{"glyphs":{"0":{"ha":557,"x_min":28,"x_max":528,"o":"m 274 -12 q 122 37 176 -12 q 48 178 68 86 q 28 411 28 269 q 88 728 28 624 q 276 833 147 833 q 467 741 407 833 q 528 463 528 649 q 506 194 528 296 q 428 40 483 92 q 274 -12 372 -12 m 279 125 q 344 202 324 125 q 365 463 365 279 q 348 641 365 583 q 285 699 331 699 q 214 626 232 699 q 196 406 196 554 q 202 235 196 293 q 226 151 208 176 q 279 125 243 125 z "},"1":{"ha":557,"x_min":26,"x_max":528,"o":"m 31 0 q 26 101 26 53 q 66 135 26 126 q 204 144 106 144 l 217 676 q 133 669 171 675 q 83 660 94 663 q 60 754 60 701 q 113 788 60 769 q 236 819 167 806 q 342 833 306 833 q 365 831 353 833 q 382 825 378 829 l 365 144 l 443 144 q 495 147 469 144 q 528 150 521 149 q 526 53 528 82 q 518 13 525 25 q 494 0 511 0 l 31 0 z "},"2":{"ha":557,"x_min":28,"x_max":528,"o":"m 33 0 q 28 43 28 17 q 34 103 28 81 q 64 165 40 125 q 213 379 113 250 q 308 514 278 463 q 339 611 339 565 q 317 667 339 647 q 257 686 294 686 q 161 674 217 686 q 74 643 106 661 q 54 756 54 686 q 131 810 54 788 q 304 833 208 833 q 467 785 418 833 q 517 638 517 736 q 480 497 517 563 q 363 326 443 431 q 233 144 275 213 l 339 144 q 469 151 410 144 q 528 160 528 158 q 526 57 528 88 q 517 13 524 26 q 493 0 510 0 l 33 0 z "},"3":{"ha":557,"x_min":46,"x_max":513,"o":"m 197 -139 q 54 -64 54 -139 q 63 11 54 -19 q 74 49 72 42 q 127 19 93 29 q 197 8 161 8 q 308 60 271 8 q 344 201 344 111 q 285 303 344 274 q 132 329 226 333 l 131 422 q 259 507 215 456 q 303 613 303 558 q 289 667 303 649 q 231 686 275 686 q 144 674 190 686 q 65 643 99 663 q 46 756 46 686 q 113 811 46 789 q 288 833 181 833 q 433 788 386 833 q 481 665 481 742 q 444 521 481 583 q 346 415 407 458 q 467 355 422 407 q 513 210 513 303 q 425 -53 513 32 q 197 -139 338 -139 z "},"4":{"ha":557,"x_min":22,"x_max":535,"o":"m 289 143 l 75 143 q 22 290 22 196 q 77 438 22 315 q 196 676 132 560 q 292 818 260 793 q 358 843 324 843 q 447 822 408 843 l 443 286 q 497 289 472 286 q 528 293 521 292 q 532 279 529 290 q 535 249 535 268 q 522 174 535 204 q 485 143 510 143 l 443 143 l 443 44 q 436 12 443 19 q 401 2 429 4 q 289 0 374 0 l 289 143 m 289 286 l 310 631 q 222 471 274 588 q 154 286 171 354 l 289 286 z "},"5":{"ha":557,"x_min":39,"x_max":515,"o":"m 193 -139 q 106 -129 140 -139 q 55 -106 71 -119 q 39 -81 39 -92 q 42 -10 39 -37 q 56 44 46 17 q 174 4 97 4 q 270 38 231 4 q 330 125 310 72 q 350 231 350 178 q 336 342 350 304 q 285 395 322 379 q 171 411 247 411 q 47 396 108 411 l 90 833 l 515 833 q 510 747 515 774 q 490 708 506 719 q 439 697 474 697 q 321 701 396 697 q 221 706 246 704 l 204 532 q 265 538 232 538 q 443 484 371 538 q 515 269 515 431 q 431 -29 515 81 q 193 -139 346 -139 z "},"6":{"ha":557,"x_min":31,"x_max":531,"o":"m 342 613 q 481 547 431 613 q 531 343 531 482 q 464 75 531 161 q 269 -11 397 -11 q 111 41 163 -11 q 45 186 60 93 q 31 447 31 279 q 112 857 31 738 q 343 976 193 976 q 493 921 493 976 q 478 813 493 861 q 421 826 454 821 q 364 832 388 832 q 228 764 274 832 q 176 538 182 696 q 245 594 207 576 q 342 613 283 613 m 278 125 q 352 180 325 125 q 379 311 379 235 q 358 428 379 386 q 293 471 336 471 q 178 403 232 471 q 179 386 179 397 q 203 178 175 232 q 278 125 232 125 z "},"7":{"ha":557,"x_min":50,"x_max":550,"o":"m 264 -128 q 164 -124 197 -128 q 118 -112 131 -121 q 106 -85 106 -103 q 144 169 106 18 q 240 467 183 319 q 349 704 297 614 q 92 696 229 696 q 50 833 50 696 l 550 833 q 337 285 408 515 q 264 -128 265 56 z "},"8":{"ha":557,"x_min":31,"x_max":531,"o":"m 458 443 q 531 254 531 358 q 503 124 531 185 q 422 27 476 64 q 289 -10 367 -10 q 92 65 154 -10 q 31 258 31 140 q 67 407 31 340 q 167 519 103 474 q 78 610 107 568 q 40 736 40 661 q 106 917 40 853 q 275 981 172 981 q 529 756 529 981 q 494 614 529 672 q 396 507 458 556 q 458 443 435 471 m 297 836 q 224 813 251 836 q 196 746 196 790 q 226 660 196 699 q 296 593 242 642 q 363 667 340 629 q 386 750 386 704 q 362 810 386 783 q 297 836 338 836 m 278 138 q 351 169 322 138 q 379 258 379 201 q 369 325 379 301 q 339 372 358 349 q 275 432 318 397 q 200 357 226 394 q 174 269 174 319 q 203 172 174 207 q 278 138 233 138 z "},"9":{"ha":557,"x_min":25,"x_max":528,"o":"m 286 846 q 437 808 388 846 q 505 679 486 771 q 528 400 524 588 q 444 -12 525 119 q 182 -144 364 -144 q 49 -85 49 -144 q 53 -34 49 -64 q 63 17 57 -4 q 161 1 114 1 q 321 77 274 1 q 376 286 368 153 q 310 231 347 249 q 215 214 274 214 q 78 290 131 214 q 25 499 25 367 q 92 762 25 678 q 286 846 158 846 m 263 356 q 381 421 331 356 l 381 429 q 373 599 381 539 q 345 684 365 658 q 289 710 325 710 q 208 660 239 710 q 176 515 176 611 q 199 398 176 440 q 263 356 221 356 z "},"\u0000":{"ha":0,"x_min":0,"x_max":0,"o":""},"\r":{"ha":196,"x_min":0,"x_max":0,"o":""}," ":{"ha":196,"x_min":0,"x_max":0,"o":""},"A":{"ha":607,"x_min":3,"x_max":606,"o":"m 603 25 q 592 4 606 11 q 533 -3 578 -3 q 444 0 485 -3 l 399 222 l 211 222 l 171 26 q 155 3 167 10 q 100 -3 143 -3 q 3 3 51 -3 l 235 946 q 297 975 240 975 q 371 969 344 975 l 603 25 m 369 361 l 342 492 q 306 754 321 592 q 268 492 286 578 l 240 361 l 369 361 z "},"Á":{"ha":607,"x_min":3,"x_max":604,"o":"m 603 25 q 592 4 606 11 q 533 -3 578 -3 q 444 0 485 -3 l 399 222 l 211 222 l 171 26 q 155 3 167 10 q 100 -3 143 -3 q 3 3 51 -3 l 235 946 q 297 975 240 975 q 371 969 344 975 l 603 25 m 369 361 l 342 492 q 306 754 321 592 q 268 492 286 578 l 240 361 l 369 361 m 251 1040 q 220 1059 233 1040 q 200 1098 207 1078 q 192 1125 193 1118 q 253 1194 214 1156 q 329 1260 293 1232 q 374 1289 365 1289 q 417 1253 397 1289 q 444 1175 438 1218 q 342 1094 421 1147 q 251 1040 264 1042 z "},"Ă":{"ha":607,"x_min":3,"x_max":604,"o":"m 603 25 q 592 4 606 11 q 533 -3 578 -3 q 444 0 485 -3 l 399 222 l 211 222 l 171 26 q 155 3 167 10 q 100 -3 143 -3 q 3 3 51 -3 l 235 946 q 297 975 240 975 q 371 969 344 975 l 603 25 m 369 361 l 342 492 q 306 754 321 592 q 268 492 286 578 l 240 361 l 369 361 m 296 1031 q 210 1053 253 1031 q 140 1113 167 1076 q 113 1186 113 1149 q 130 1237 113 1217 q 192 1274 147 1257 q 233 1207 206 1236 q 297 1178 261 1178 q 353 1197 333 1178 q 394 1253 374 1217 q 421 1268 404 1268 q 467 1242 443 1268 q 496 1188 490 1217 q 296 1031 438 1031 z "},"Ắ":{"ha":607,"x_min":3,"x_max":606,"o":"m 306 1221 q 280 1236 290 1221 q 264 1268 269 1251 q 257 1290 258 1285 q 340 1377 285 1328 q 407 1426 396 1426 q 444 1397 428 1426 q 465 1332 460 1368 q 381 1266 444 1310 q 306 1221 317 1222 m 297 1021 q 227 1040 263 1021 q 169 1089 192 1058 q 146 1150 146 1119 q 160 1192 146 1175 q 211 1222 175 1208 q 246 1167 224 1192 q 299 1143 268 1143 q 344 1158 328 1143 q 379 1204 360 1174 q 401 1218 388 1218 q 438 1197 418 1218 q 463 1151 457 1175 q 297 1021 414 1021 m 603 25 q 592 4 606 11 q 533 -3 578 -3 q 444 0 485 -3 l 399 222 l 211 222 l 171 26 q 155 3 167 10 q 100 -3 143 -3 q 3 3 51 -3 l 235 946 q 297 975 240 975 q 371 969 344 975 l 603 25 m 369 361 l 342 492 q 306 754 321 592 q 268 492 286 578 l 240 361 l 369 361 z "},"Ặ":{"ha":607,"x_min":3,"x_max":604,"o":"m 603 25 q 592 4 606 11 q 533 -3 578 -3 q 444 0 485 -3 l 399 222 l 211 222 l 171 26 q 155 3 167 10 q 100 -3 143 -3 q 3 3 51 -3 l 235 946 q 297 975 240 975 q 371 969 344 975 l 603 25 m 369 361 l 342 492 q 306 754 321 592 q 268 492 286 578 l 240 361 l 369 361 m 301 -272 q 256 -251 271 -272 q 240 -179 240 -231 q 258 -114 240 -137 q 310 -90 275 -90 q 356 -109 343 -90 q 369 -174 369 -128 q 352 -247 369 -221 q 301 -272 335 -272 m 296 1031 q 210 1053 253 1031 q 140 1113 167 1076 q 113 1186 113 1149 q 130 1237 113 1217 q 192 1274 147 1257 q 233 1207 206 1236 q 297 1178 261 1178 q 353 1197 333 1178 q 394 1253 374 1217 q 421 1268 404 1268 q 467 1242 443 1268 q 496 1188 490 1217 q 296 1031 438 1031 z "},"Ằ":{"ha":607,"x_min":3,"x_max":606,"o":"m 301 1238 q 226 1283 290 1239 q 143 1350 163 1326 q 164 1413 147 1383 q 201 1443 181 1443 q 268 1394 213 1443 q 351 1307 324 1344 q 344 1285 350 1301 q 328 1253 339 1268 q 301 1238 317 1238 m 299 1143 q 344 1158 328 1143 q 379 1204 360 1174 q 401 1218 388 1218 q 438 1197 418 1218 q 463 1151 457 1175 q 297 1021 414 1021 q 227 1040 263 1021 q 169 1089 192 1058 q 146 1150 146 1119 q 160 1192 146 1175 q 211 1222 175 1208 q 246 1167 224 1192 q 299 1143 268 1143 m 603 25 q 592 4 606 11 q 533 -3 578 -3 q 444 0 485 -3 l 399 222 l 211 222 l 171 26 q 155 3 167 10 q 100 -3 143 -3 q 3 3 51 -3 l 235 946 q 297 975 240 975 q 371 969 344 975 l 603 25 m 369 361 l 342 492 q 306 754 321 592 q 268 492 286 578 l 240 361 l 369 361 z "},"Ẳ":{"ha":607,"x_min":3,"x_max":606,"o":"m 319 1336 q 274 1385 319 1385 q 228 1371 246 1385 l 228 1451 q 242 1462 228 1456 q 272 1468 256 1468 q 381 1435 349 1468 q 413 1353 413 1401 q 401 1304 413 1321 q 373 1276 389 1288 q 353 1260 357 1264 q 346 1245 347 1256 q 344 1232 344 1235 q 272 1231 343 1231 q 271 1236 272 1232 q 269 1247 269 1240 q 274 1264 269 1256 q 294 1288 281 1276 q 313 1309 307 1299 q 319 1336 319 1319 m 297 1021 q 227 1040 263 1021 q 169 1089 192 1058 q 146 1150 146 1119 q 160 1192 146 1175 q 211 1222 175 1208 q 246 1167 224 1192 q 299 1143 268 1143 q 344 1158 328 1143 q 379 1204 360 1174 q 401 1218 388 1218 q 438 1197 418 1218 q 463 1151 457 1175 q 297 1021 414 1021 m 603 25 q 592 4 606 11 q 533 -3 578 -3 q 444 0 485 -3 l 399 222 l 211 222 l 171 26 q 155 3 167 10 q 100 -3 143 -3 q 3 3 51 -3 l 235 946 q 297 975 240 975 q 371 969 344 975 l 603 25 m 369 361 l 342 492 q 306 754 321 592 q 268 492 286 578 l 240 361 l 369 361 z "},"Ẵ":{"ha":607,"x_min":3,"x_max":606,"o":"m 190 1285 q 160 1299 174 1285 q 139 1328 147 1313 q 129 1347 131 1343 q 199 1419 158 1394 q 274 1443 239 1443 q 301 1436 290 1443 q 324 1417 313 1429 q 344 1399 335 1406 q 368 1393 354 1393 q 398 1399 388 1393 q 419 1417 408 1406 q 438 1429 429 1429 q 457 1413 449 1429 q 471 1381 465 1397 q 478 1358 476 1364 q 456 1333 478 1356 q 405 1292 435 1311 q 343 1272 375 1272 q 313 1278 322 1272 q 290 1299 303 1285 q 274 1315 282 1310 q 253 1321 265 1321 q 229 1315 239 1321 q 208 1297 219 1308 q 190 1285 197 1285 m 379 1204 q 401 1218 388 1218 q 438 1197 418 1218 q 463 1151 457 1175 q 297 1021 414 1021 q 227 1040 263 1021 q 169 1089 192 1058 q 146 1150 146 1119 q 160 1192 146 1175 q 211 1222 175 1208 q 246 1167 224 1192 q 299 1143 268 1143 q 344 1158 328 1143 q 379 1204 360 1174 m 603 25 q 592 4 606 11 q 533 -3 578 -3 q 444 0 485 -3 l 399 222 l 211 222 l 171 26 q 155 3 167 10 q 100 -3 143 -3 q 3 3 51 -3 l 235 946 q 297 975 240 975 q 371 969 344 975 l 603 25 m 369 361 l 342 492 q 306 754 321 592 q 268 492 286 578 l 240 361 l 369 361 z "},"Â":{"ha":607,"x_min":3,"x_max":604,"o":"m 603 25 q 592 4 606 11 q 533 -3 578 -3 q 444 0 485 -3 l 399 222 l 211 222 l 171 26 q 155 3 167 10 q 100 -3 143 -3 q 3 3 51 -3 l 235 946 q 297 975 240 975 q 371 969 344 975 l 603 25 m 369 361 l 342 492 q 306 754 321 592 q 268 492 286 578 l 240 361 l 369 361 m 383 1042 q 367 1058 379 1044 q 338 1092 354 1071 q 310 1138 322 1114 q 291 1108 306 1131 q 257 1064 276 1085 q 222 1043 238 1043 q 118 1083 150 1043 l 281 1269 q 311 1274 294 1274 q 354 1254 336 1274 q 397 1209 364 1244 q 460 1135 429 1174 q 490 1079 490 1096 q 383 1042 490 1042 z "},"Ấ":{"ha":607,"x_min":3,"x_max":631,"o":"m 572 1344 q 609 1315 593 1344 q 631 1250 625 1286 q 546 1184 610 1228 q 471 1139 482 1140 q 445 1154 456 1139 q 429 1186 435 1169 q 422 1208 424 1203 q 506 1295 450 1246 q 572 1344 561 1344 m 236 1032 q 185 1040 206 1032 q 150 1065 164 1047 l 285 1218 q 310 1222 296 1222 q 346 1206 331 1222 q 381 1168 354 1197 q 433 1107 408 1139 q 458 1061 458 1075 q 369 1031 458 1031 q 347 1055 369 1028 q 308 1110 324 1082 q 293 1085 306 1104 q 265 1049 281 1067 q 236 1032 249 1032 m 603 25 q 592 4 606 11 q 533 -3 578 -3 q 444 0 485 -3 l 399 222 l 211 222 l 171 26 q 155 3 167 10 q 100 -3 143 -3 q 3 3 51 -3 l 235 946 q 297 975 240 975 q 371 969 344 975 l 603 25 m 369 361 l 342 492 q 306 754 321 592 q 268 492 286 578 l 240 361 l 369 361 z "},"Ậ":{"ha":607,"x_min":3,"x_max":604,"o":"m 603 25 q 592 4 606 11 q 533 -3 578 -3 q 444 0 485 -3 l 399 222 l 211 222 l 171 26 q 155 3 167 10 q 100 -3 143 -3 q 3 3 51 -3 l 235 946 q 297 975 240 975 q 371 969 344 975 l 603 25 m 369 361 l 342 492 q 306 754 321 592 q 268 492 286 578 l 240 361 l 369 361 m 301 -272 q 256 -251 271 -272 q 240 -179 240 -231 q 258 -114 240 -137 q 310 -90 275 -90 q 356 -109 343 -90 q 369 -174 369 -128 q 352 -247 369 -221 q 301 -272 335 -272 m 383 1042 q 367 1058 379 1044 q 338 1092 354 1071 q 310 1138 322 1114 q 291 1108 306 1131 q 257 1064 276 1085 q 222 1043 238 1043 q 118 1083 150 1043 l 281 1269 q 311 1274 294 1274 q 354 1254 336 1274 q 397 1209 364 1244 q 460 1135 429 1174 q 490 1079 490 1096 q 383 1042 490 1042 z "},"Ầ":{"ha":607,"x_min":3,"x_max":606,"o":"m 444 1194 q 369 1240 433 1196 q 286 1307 306 1283 q 307 1370 290 1340 q 344 1400 324 1400 q 411 1351 356 1400 q 494 1264 467 1301 q 488 1242 493 1258 q 471 1210 482 1225 q 444 1194 460 1194 m 236 1032 q 185 1040 206 1032 q 150 1065 164 1047 l 285 1218 q 310 1222 296 1222 q 346 1206 331 1222 q 381 1168 354 1197 q 433 1107 408 1139 q 458 1061 458 1075 q 369 1031 458 1031 q 347 1055 369 1028 q 308 1110 324 1082 q 293 1085 306 1104 q 265 1049 281 1067 q 236 1032 249 1032 m 603 25 q 592 4 606 11 q 533 -3 578 -3 q 444 0 485 -3 l 399 222 l 211 222 l 171 26 q 155 3 167 10 q 100 -3 143 -3 q 3 3 51 -3 l 235 946 q 297 975 240 975 q 371 969 344 975 l 603 25 m 369 361 l 342 492 q 306 754 321 592 q 268 492 286 578 l 240 361 l 369 361 z "},"Ẩ":{"ha":607,"x_min":3,"x_max":606,"o":"m 497 1261 q 451 1310 497 1310 q 406 1296 424 1310 l 406 1376 q 419 1387 406 1381 q 450 1393 433 1393 q 558 1360 526 1393 q 590 1278 590 1326 q 578 1229 590 1246 q 551 1201 567 1213 q 531 1185 535 1189 q 524 1170 525 1181 q 522 1157 522 1160 q 450 1156 521 1156 q 449 1161 450 1157 q 447 1172 447 1165 q 451 1189 447 1181 q 472 1213 458 1201 q 491 1234 485 1224 q 497 1261 497 1244 m 236 1032 q 185 1040 206 1032 q 150 1065 164 1047 l 285 1218 q 310 1222 296 1222 q 346 1206 331 1222 q 381 1168 354 1197 q 433 1107 408 1139 q 458 1061 458 1075 q 369 1031 458 1031 q 347 1055 369 1028 q 308 1110 324 1082 q 293 1085 306 1104 q 265 1049 281 1067 q 236 1032 249 1032 m 603 25 q 592 4 606 11 q 533 -3 578 -3 q 444 0 485 -3 l 399 222 l 211 222 l 171 26 q 155 3 167 10 q 100 -3 143 -3 q 3 3 51 -3 l 235 946 q 297 975 240 975 q 371 969 344 975 l 603 25 m 369 361 l 342 492 q 306 754 321 592 q 268 492 286 578 l 240 361 l 369 361 z "},"Ẫ":{"ha":607,"x_min":3,"x_max":606,"o":"m 231 1257 q 201 1271 214 1257 q 179 1300 188 1285 q 169 1319 171 1315 q 239 1391 199 1367 q 314 1415 279 1415 q 342 1408 331 1415 q 364 1389 353 1401 q 385 1372 375 1378 q 408 1365 394 1365 q 438 1372 428 1365 q 459 1390 449 1378 q 478 1401 469 1401 q 497 1385 489 1401 q 511 1353 506 1369 q 518 1331 517 1336 q 497 1306 518 1328 q 445 1264 475 1283 q 383 1244 415 1244 q 353 1251 363 1244 q 331 1271 343 1257 q 314 1288 322 1282 q 293 1293 306 1293 q 269 1287 279 1293 q 249 1269 260 1281 q 231 1257 238 1257 m 236 1032 q 185 1040 206 1032 q 150 1065 164 1047 l 285 1218 q 310 1222 296 1222 q 346 1206 331 1222 q 381 1168 354 1197 q 433 1107 408 1139 q 458 1061 458 1075 q 369 1031 458 1031 q 347 1055 369 1028 q 308 1110 324 1082 q 293 1085 306 1104 q 265 1049 281 1067 q 236 1032 249 1032 m 603 25 q 592 4 606 11 q 533 -3 578 -3 q 444 0 485 -3 l 399 222 l 211 222 l 171 26 q 155 3 167 10 q 100 -3 143 -3 q 3 3 51 -3 l 235 946 q 297 975 240 975 q 371 969 344 975 l 603 25 m 369 361 l 342 492 q 306 754 321 592 q 268 492 286 578 l 240 361 l 369 361 z "},"Ä":{"ha":607,"x_min":3,"x_max":604,"o":"m 603 25 q 592 4 606 11 q 533 -3 578 -3 q 444 0 485 -3 l 399 222 l 211 222 l 171 26 q 155 3 167 10 q 100 -3 143 -3 q 3 3 51 -3 l 235 946 q 297 975 240 975 q 371 969 344 975 l 603 25 m 369 361 l 342 492 q 306 754 321 592 q 268 492 286 578 l 240 361 l 369 361 m 210 1042 q 157 1065 175 1042 q 139 1147 139 1089 q 159 1222 139 1194 q 219 1250 179 1250 q 275 1229 260 1250 q 290 1154 290 1208 q 269 1071 290 1100 q 210 1042 249 1042 m 390 1042 q 336 1065 354 1042 q 318 1147 318 1089 q 339 1222 318 1194 q 400 1250 360 1250 q 453 1229 439 1250 q 468 1154 468 1208 q 448 1071 468 1100 q 390 1042 428 1042 z "},"Ạ":{"ha":607,"x_min":3,"x_max":604,"o":"m 603 25 q 592 4 606 11 q 533 -3 578 -3 q 444 0 485 -3 l 399 222 l 211 222 l 171 26 q 155 3 167 10 q 100 -3 143 -3 q 3 3 51 -3 l 235 946 q 297 975 240 975 q 371 969 344 975 l 603 25 m 369 361 l 342 492 q 306 754 321 592 q 268 492 286 578 l 240 361 l 369 361 m 301 -272 q 256 -251 271 -272 q 240 -179 240 -231 q 258 -114 240 -137 q 310 -90 275 -90 q 356 -109 343 -90 q 369 -174 369 -128 q 352 -247 369 -221 q 301 -272 335 -272 z "},"À":{"ha":607,"x_min":3,"x_max":604,"o":"m 603 25 q 592 4 606 11 q 533 -3 578 -3 q 444 0 485 -3 l 399 222 l 211 222 l 171 26 q 155 3 167 10 q 100 -3 143 -3 q 3 3 51 -3 l 235 946 q 297 975 240 975 q 371 969 344 975 l 603 25 m 369 361 l 342 492 q 306 754 321 592 q 268 492 286 578 l 240 361 l 369 361 m 385 1026 q 294 1081 371 1028 q 192 1163 217 1135 q 219 1240 199 1204 q 263 1275 239 1275 q 343 1216 275 1275 q 444 1111 411 1157 q 436 1084 443 1104 q 416 1045 429 1064 q 385 1026 403 1026 z "},"Ả":{"ha":607,"x_min":3,"x_max":604,"o":"m 603 25 q 592 4 606 11 q 533 -3 578 -3 q 444 0 485 -3 l 399 222 l 211 222 l 171 26 q 155 3 167 10 q 100 -3 143 -3 q 3 3 51 -3 l 235 946 q 297 975 240 975 q 371 969 344 975 l 603 25 m 369 361 l 342 492 q 306 754 321 592 q 268 492 286 578 l 240 361 l 369 361 m 244 1013 q 244 1019 244 1014 q 243 1031 243 1024 q 247 1053 243 1046 q 271 1081 251 1061 q 294 1107 286 1094 q 301 1140 301 1119 q 246 1199 301 1199 q 192 1182 214 1199 l 192 1279 q 208 1292 192 1285 q 244 1299 224 1299 q 375 1259 336 1299 q 414 1161 414 1219 q 399 1101 414 1122 q 366 1066 385 1081 q 342 1047 347 1051 q 334 1030 336 1042 q 332 1014 332 1018 q 278 1011 329 1011 l 244 1013 z "},"Ā":{"ha":607,"x_min":3,"x_max":604,"o":"m 603 25 q 592 4 606 11 q 533 -3 578 -3 q 444 0 485 -3 l 399 222 l 211 222 l 171 26 q 155 3 167 10 q 100 -3 143 -3 q 3 3 51 -3 l 235 946 q 297 975 240 975 q 371 969 344 975 l 603 25 m 369 361 l 342 492 q 306 754 321 592 q 268 492 286 578 l 240 361 l 369 361 m 119 1067 q 108 1135 108 1096 q 125 1190 108 1168 q 171 1211 142 1211 l 485 1211 q 500 1146 500 1181 q 484 1089 500 1111 q 442 1067 468 1067 l 119 1067 z "},"Ą":{"ha":607,"x_min":3,"x_max":601,"o":"m 500 -271 q 376 -147 376 -271 q 395 -65 376 -104 q 444 1 414 -26 l 399 222 l 211 222 l 171 26 q 155 3 167 10 q 100 -3 143 -3 q 3 3 51 -3 l 235 946 q 297 975 240 975 q 371 969 344 975 l 599 43 q 601 28 601 32 q 583 -4 601 13 q 514 -125 514 -68 q 549 -164 514 -164 q 583 -154 569 -164 q 594 -185 590 -168 q 599 -214 599 -203 q 500 -271 599 -271 m 369 361 l 342 492 q 306 754 321 592 q 268 492 286 578 l 240 361 l 369 361 z "},"Å":{"ha":607,"x_min":3,"x_max":604,"o":"m 603 25 q 592 4 606 11 q 533 -3 578 -3 q 444 0 485 -3 l 399 222 l 211 222 l 171 26 q 155 3 167 10 q 100 -3 143 -3 q 3 3 51 -3 l 235 946 q 297 975 240 975 q 371 969 344 975 l 603 25 m 369 361 l 342 492 q 306 754 321 592 q 268 492 286 578 l 240 361 l 369 361 m 301 1013 q 194 1044 228 1013 q 160 1157 160 1075 q 310 1303 160 1303 q 417 1272 385 1303 q 450 1160 450 1240 q 301 1013 450 1013 m 304 1113 q 346 1158 346 1113 q 310 1203 346 1203 q 265 1157 265 1203 q 304 1113 265 1113 z "},"Ã":{"ha":607,"x_min":3,"x_max":604,"o":"m 603 25 q 592 4 606 11 q 533 -3 578 -3 q 444 0 485 -3 l 399 222 l 211 222 l 171 26 q 155 3 167 10 q 100 -3 143 -3 q 3 3 51 -3 l 235 946 q 297 975 240 975 q 371 969 344 975 l 603 25 m 369 361 l 342 492 q 306 754 321 592 q 268 492 286 578 l 240 361 l 369 361 m 351 1036 q 313 1044 326 1036 q 288 1068 300 1053 q 267 1088 276 1082 q 242 1094 258 1094 q 190 1067 215 1094 q 167 1050 176 1050 q 131 1067 147 1050 q 106 1102 115 1083 q 93 1126 96 1121 q 177 1213 128 1183 q 268 1242 226 1242 q 300 1234 288 1242 q 328 1211 313 1226 q 354 1189 343 1196 q 382 1182 365 1182 q 417 1189 406 1182 q 442 1210 429 1196 q 452 1220 446 1215 q 465 1225 458 1225 q 489 1206 478 1225 q 507 1166 500 1186 q 515 1139 514 1146 q 489 1109 515 1136 q 426 1059 463 1082 q 351 1036 390 1036 z "},"Æ":{"ha":810,"x_min":22,"x_max":796,"o":"m 589 138 l 786 138 q 785 49 786 82 q 778 8 783 15 q 758 0 774 0 l 435 0 l 435 222 l 257 222 l 190 26 q 171 3 185 10 q 119 -3 157 -3 q 22 3 71 -3 l 374 946 q 424 972 382 972 l 796 972 q 794 886 796 919 q 788 844 793 853 q 768 835 782 835 l 589 835 l 589 597 l 758 597 q 757 512 758 546 q 751 467 756 478 q 732 456 746 456 l 589 456 l 589 138 m 435 361 l 435 810 q 346 488 396 633 l 303 361 l 435 361 z "},"B":{"ha":499,"x_min":42,"x_max":483,"o":"m 42 944 q 50 965 42 958 q 81 972 58 972 l 217 972 q 386 925 321 972 q 451 754 451 878 q 413 597 451 656 q 324 532 375 539 q 483 331 483 515 q 419 91 483 182 q 224 0 356 0 l 42 0 l 42 944 m 226 589 q 267 625 253 589 q 282 721 282 661 q 269 813 282 789 q 232 838 256 838 l 199 838 l 199 589 l 226 589 m 228 133 q 281 182 261 133 q 300 317 300 231 q 292 408 300 378 q 270 449 285 439 q 231 458 256 458 l 199 458 l 199 133 l 228 133 z "},"C":{"ha":451,"x_min":28,"x_max":438,"o":"m 260 -14 q 127 24 176 -14 q 53 162 78 61 q 28 454 28 263 q 306 986 28 986 q 412 965 386 986 q 438 904 438 943 q 415 811 438 858 q 343 835 383 835 q 232 755 274 835 q 190 467 190 675 q 201 279 190 346 q 236 185 213 213 q 300 158 260 158 q 408 179 369 158 q 429 89 429 138 q 384 13 429 40 q 260 -14 339 -14 z "},"Ć":{"ha":451,"x_min":28,"x_max":438,"o":"m 260 -14 q 127 24 176 -14 q 53 162 78 61 q 28 454 28 263 q 306 986 28 986 q 412 965 386 986 q 438 904 438 943 q 415 811 438 858 q 343 835 383 835 q 232 755 274 835 q 190 467 190 675 q 201 279 190 346 q 236 185 213 213 q 300 158 260 158 q 408 179 369 158 q 429 89 429 138 q 384 13 429 40 q 260 -14 339 -14 m 215 1040 q 184 1059 197 1040 q 164 1098 171 1078 q 156 1125 157 1118 q 217 1194 178 1156 q 293 1260 257 1232 q 338 1289 329 1289 q 381 1253 361 1289 q 408 1175 401 1218 q 306 1094 385 1147 q 215 1040 228 1042 z "},"Č":{"ha":451,"x_min":28,"x_max":438,"o":"m 260 -14 q 127 24 176 -14 q 53 162 78 61 q 28 454 28 263 q 306 986 28 986 q 412 965 386 986 q 438 904 438 943 q 415 811 438 858 q 343 835 383 835 q 232 755 274 835 q 190 467 190 675 q 201 279 190 346 q 236 185 213 213 q 300 158 260 158 q 408 179 369 158 q 429 89 429 138 q 384 13 429 40 q 260 -14 339 -14 m 276 1031 q 192 1087 254 1031 q 104 1181 131 1143 q 137 1247 117 1217 q 172 1278 157 1278 q 210 1255 186 1278 q 256 1207 235 1232 q 283 1174 278 1182 q 324 1228 304 1207 q 357 1258 344 1249 q 372 1269 369 1268 q 417 1237 400 1254 q 433 1203 433 1219 q 400 1144 433 1186 q 328 1067 367 1103 q 276 1031 289 1031 z "},"Ç":{"ha":451,"x_min":28,"x_max":438,"o":"m 300 158 q 408 179 369 158 q 429 89 429 138 q 394 21 429 47 q 296 -12 358 -6 l 283 -79 l 306 -79 q 356 -104 335 -79 q 376 -178 376 -129 q 342 -269 376 -232 q 251 -307 308 -307 q 212 -302 231 -307 q 182 -292 193 -297 q 168 -286 171 -287 q 177 -249 169 -276 q 190 -215 185 -221 q 207 -217 194 -211 q 230 -228 219 -224 q 254 -233 240 -233 q 293 -189 293 -233 q 285 -156 293 -167 q 257 -144 276 -144 q 215 -148 231 -144 q 194 -153 199 -151 l 218 -11 q 110 39 151 -4 q 49 181 69 82 q 28 454 28 281 q 306 986 28 986 q 412 965 386 986 q 438 904 438 943 q 415 811 438 858 q 343 835 383 835 q 232 755 274 835 q 190 467 190 675 q 201 279 190 346 q 236 185 213 213 q 300 158 260 158 z "},"D":{"ha":501,"x_min":42,"x_max":486,"o":"m 42 944 q 50 965 42 958 q 81 972 58 972 l 214 972 q 370 936 313 972 q 457 805 428 900 q 486 535 486 710 q 424 127 486 254 q 221 0 361 0 l 42 0 l 42 944 m 225 146 q 269 176 251 146 q 299 295 288 206 q 310 551 310 385 q 299 731 310 671 q 271 812 289 792 q 224 832 253 832 l 196 832 l 196 146 l 225 146 z "},"Ð":{"ha":501,"x_min":-6,"x_max":486,"o":"m 214 972 q 369 937 311 972 q 457 810 428 901 q 486 551 486 719 q 459 235 486 356 q 374 57 432 114 q 221 0 315 0 l 42 0 l 42 438 l -6 438 q -1 544 -6 517 q 22 571 3 571 l 42 571 l 42 944 q 50 965 42 958 q 81 972 58 972 l 214 972 m 225 146 q 269 176 251 146 q 299 295 288 206 q 310 551 310 385 q 299 731 310 671 q 271 812 289 792 q 224 832 253 832 l 196 832 l 196 571 l 267 571 q 263 465 267 492 q 240 438 258 438 l 196 438 l 196 147 l 225 146 z "},"Ď":{"ha":501,"x_min":42,"x_max":486,"o":"m 42 944 q 50 965 42 958 q 81 972 58 972 l 214 972 q 370 936 313 972 q 457 805 428 900 q 486 535 486 710 q 424 127 486 254 q 221 0 361 0 l 42 0 l 42 944 m 225 146 q 269 176 251 146 q 299 295 288 206 q 310 551 310 385 q 299 731 310 671 q 271 812 289 792 q 224 832 253 832 l 196 832 l 196 146 l 225 146 m 247 1031 q 163 1087 225 1031 q 75 1181 101 1143 q 108 1247 88 1217 q 143 1278 128 1278 q 181 1255 157 1278 q 227 1207 206 1232 q 254 1174 249 1182 q 295 1228 275 1207 q 328 1258 315 1249 q 343 1269 340 1268 q 388 1237 371 1254 q 404 1203 404 1219 q 371 1144 404 1186 q 299 1067 338 1103 q 247 1031 260 1031 z "},"Đ":{"ha":501,"x_min":-36,"x_max":486,"o":"m 214 972 q 370 936 313 972 q 457 805 428 900 q 486 535 486 710 q 424 127 486 254 q 221 0 361 0 l 42 0 l 42 403 l -26 403 q -36 458 -36 428 q -22 505 -36 488 q 15 522 -8 522 l 42 522 l 42 944 q 50 965 42 958 q 81 972 58 972 l 214 972 m 225 146 q 269 176 251 146 q 299 295 288 206 q 310 551 310 385 q 299 731 310 671 q 271 812 289 792 q 224 832 253 832 l 196 832 l 196 522 l 275 522 q 288 468 288 497 q 274 421 288 439 q 240 403 261 403 l 196 403 l 196 146 l 225 146 z "},"E":{"ha":418,"x_min":42,"x_max":403,"o":"m 196 138 l 393 138 q 392 49 393 82 q 385 8 390 15 q 367 0 381 0 l 42 0 l 42 944 q 47 962 42 951 q 69 972 53 972 l 403 972 q 401 886 403 919 q 394 844 400 853 q 375 835 389 835 l 196 835 l 196 597 l 365 597 q 364 512 365 546 q 358 467 363 478 q 340 456 353 456 l 196 456 l 196 138 z "},"É":{"ha":418,"x_min":42,"x_max":403,"o":"m 196 138 l 393 138 q 392 49 393 82 q 385 8 390 15 q 367 0 381 0 l 42 0 l 42 944 q 47 962 42 951 q 69 972 53 972 l 403 972 q 401 886 403 919 q 394 844 400 853 q 375 835 389 835 l 196 835 l 196 597 l 365 597 q 364 512 365 546 q 358 467 363 478 q 340 456 353 456 l 196 456 l 196 138 m 163 1040 q 131 1059 144 1040 q 111 1098 118 1078 q 103 1125 104 1118 q 165 1194 125 1156 q 240 1260 204 1232 q 285 1289 276 1289 q 328 1253 308 1289 q 356 1175 349 1218 q 253 1094 332 1147 q 163 1040 175 1042 z "},"Ě":{"ha":418,"x_min":42,"x_max":403,"o":"m 196 138 l 393 138 q 392 49 393 82 q 385 8 390 15 q 367 0 381 0 l 42 0 l 42 944 q 47 962 42 951 q 69 972 53 972 l 403 972 q 401 886 403 919 q 394 844 400 853 q 375 835 389 835 l 196 835 l 196 597 l 365 597 q 364 512 365 546 q 358 467 363 478 q 340 456 353 456 l 196 456 l 196 138 m 224 1031 q 140 1087 201 1031 q 51 1181 78 1143 q 84 1247 64 1217 q 119 1278 104 1278 q 158 1255 133 1278 q 203 1207 182 1232 q 231 1174 225 1182 q 272 1228 251 1207 q 304 1258 292 1249 q 319 1269 317 1268 q 364 1237 347 1254 q 381 1203 381 1219 q 347 1144 381 1186 q 275 1067 314 1103 q 224 1031 236 1031 z "},"Ê":{"ha":418,"x_min":29,"x_max":403,"o":"m 196 138 l 393 138 q 392 49 393 82 q 385 8 390 15 q 367 0 381 0 l 42 0 l 42 944 q 47 962 42 951 q 69 972 53 972 l 403 972 q 401 886 403 919 q 394 844 400 853 q 375 835 389 835 l 196 835 l 196 597 l 365 597 q 364 512 365 546 q 358 467 363 478 q 340 456 353 456 l 196 456 l 196 138 m 294 1042 q 278 1058 290 1044 q 249 1092 265 1071 q 221 1138 233 1114 q 202 1108 217 1131 q 168 1064 188 1085 q 133 1043 149 1043 q 29 1083 61 1043 l 192 1269 q 222 1274 206 1274 q 265 1254 247 1274 q 308 1209 275 1244 q 371 1135 340 1174 q 401 1079 401 1096 q 294 1042 401 1042 z "},"Ế":{"ha":418,"x_min":42,"x_max":542,"o":"m 483 1344 q 520 1315 504 1344 q 542 1250 536 1286 q 457 1184 521 1228 q 382 1139 393 1140 q 356 1154 367 1139 q 340 1186 346 1169 q 333 1208 335 1203 q 417 1295 361 1246 q 483 1344 472 1344 m 147 1032 q 96 1040 117 1032 q 61 1065 75 1047 l 196 1218 q 221 1222 206 1222 q 257 1206 242 1222 q 292 1168 265 1197 q 344 1107 319 1139 q 369 1061 369 1075 q 281 1031 369 1031 q 258 1055 281 1028 q 219 1110 235 1082 q 204 1085 217 1104 q 176 1049 192 1067 q 147 1032 160 1032 m 196 835 l 196 597 l 365 597 q 364 512 365 546 q 358 467 363 478 q 340 456 353 456 l 196 456 l 196 138 l 393 138 q 392 49 393 82 q 385 8 390 15 q 367 0 381 0 l 42 0 l 42 944 q 47 962 42 951 q 69 972 53 972 l 403 972 q 401 886 403 919 q 394 844 400 853 q 375 835 389 835 l 196 835 z "},"Ệ":{"ha":418,"x_min":29,"x_max":403,"o":"m 196 138 l 393 138 q 392 49 393 82 q 385 8 390 15 q 367 0 381 0 l 42 0 l 42 944 q 47 962 42 951 q 69 972 53 972 l 403 972 q 401 886 403 919 q 394 844 400 853 q 375 835 389 835 l 196 835 l 196 597 l 365 597 q 364 512 365 546 q 358 467 363 478 q 340 456 353 456 l 196 456 l 196 138 m 206 -272 q 160 -251 175 -272 q 144 -179 144 -231 q 162 -114 144 -137 q 214 -90 179 -90 q 260 -109 247 -90 q 274 -174 274 -128 q 256 -247 274 -221 q 206 -272 239 -272 m 294 1042 q 278 1058 290 1044 q 249 1092 265 1071 q 221 1138 233 1114 q 202 1108 217 1131 q 168 1064 188 1085 q 133 1043 149 1043 q 29 1083 61 1043 l 192 1269 q 222 1274 206 1274 q 265 1254 247 1274 q 308 1209 275 1244 q 371 1135 340 1174 q 401 1079 401 1096 q 294 1042 401 1042 z "},"Ề":{"ha":418,"x_min":42,"x_max":406,"o":"m 356 1194 q 281 1240 344 1196 q 197 1307 217 1283 q 218 1370 201 1340 q 256 1400 235 1400 q 322 1351 267 1400 q 406 1264 378 1301 q 399 1242 404 1258 q 382 1210 393 1225 q 356 1194 371 1194 m 147 1032 q 96 1040 117 1032 q 61 1065 75 1047 l 196 1218 q 221 1222 206 1222 q 257 1206 242 1222 q 292 1168 265 1197 q 344 1107 319 1139 q 369 1061 369 1075 q 281 1031 369 1031 q 258 1055 281 1028 q 219 1110 235 1082 q 204 1085 217 1104 q 176 1049 192 1067 q 147 1032 160 1032 m 196 835 l 196 597 l 365 597 q 364 512 365 546 q 358 467 363 478 q 340 456 353 456 l 196 456 l 196 138 l 393 138 q 392 49 393 82 q 385 8 390 15 q 367 0 381 0 l 42 0 l 42 944 q 47 962 42 951 q 69 972 53 972 l 403 972 q 401 886 403 919 q 394 844 400 853 q 375 835 389 835 l 196 835 z "},"Ể":{"ha":418,"x_min":42,"x_max":501,"o":"m 361 1393 q 469 1360 438 1393 q 501 1278 501 1326 q 490 1229 501 1246 q 462 1201 478 1213 q 442 1185 446 1189 q 435 1170 436 1181 q 433 1157 433 1160 q 361 1156 432 1156 q 360 1161 361 1157 q 358 1172 358 1165 q 363 1189 358 1181 q 383 1213 369 1201 q 402 1234 396 1224 q 408 1261 408 1244 q 363 1310 408 1310 q 317 1296 335 1310 l 317 1376 q 331 1387 317 1381 q 361 1393 344 1393 m 147 1032 q 96 1040 117 1032 q 61 1065 75 1047 l 196 1218 q 221 1222 206 1222 q 257 1206 242 1222 q 292 1168 265 1197 q 344 1107 319 1139 q 369 1061 369 1075 q 281 1031 369 1031 q 258 1055 281 1028 q 219 1110 235 1082 q 204 1085 217 1104 q 176 1049 192 1067 q 147 1032 160 1032 m 196 835 l 196 597 l 365 597 q 364 512 365 546 q 358 467 363 478 q 340 456 353 456 l 196 456 l 196 138 l 393 138 q 392 49 393 82 q 385 8 390 15 q 367 0 381 0 l 42 0 l 42 944 q 47 962 42 951 q 69 972 53 972 l 403 972 q 401 886 403 919 q 394 844 400 853 q 375 835 389 835 l 196 835 z "},"Ễ":{"ha":418,"x_min":42,"x_max":429,"o":"m 389 1401 q 408 1385 400 1401 q 422 1353 417 1369 q 429 1331 428 1336 q 408 1306 429 1328 q 356 1264 386 1283 q 294 1244 326 1244 q 264 1251 274 1244 q 242 1271 254 1257 q 225 1288 233 1282 q 204 1293 217 1293 q 181 1287 190 1293 q 160 1269 171 1281 q 142 1257 149 1257 q 112 1271 125 1257 q 90 1300 99 1285 q 81 1319 82 1315 q 150 1391 110 1367 q 225 1415 190 1415 q 253 1408 242 1415 q 275 1389 264 1401 q 296 1372 286 1378 q 319 1365 306 1365 q 349 1372 339 1365 q 370 1390 360 1378 q 389 1401 381 1401 m 219 1110 q 204 1085 217 1104 q 176 1049 192 1067 q 147 1032 160 1032 q 96 1040 117 1032 q 61 1065 75 1047 l 196 1218 q 221 1222 206 1222 q 257 1206 242 1222 q 292 1168 265 1197 q 344 1107 319 1139 q 369 1061 369 1075 q 281 1031 369 1031 q 258 1055 281 1028 q 219 1110 235 1082 m 196 835 l 196 597 l 365 597 q 364 512 365 546 q 358 467 363 478 q 340 456 353 456 l 196 456 l 196 138 l 393 138 q 392 49 393 82 q 385 8 390 15 q 367 0 381 0 l 42 0 l 42 944 q 47 962 42 951 q 69 972 53 972 l 403 972 q 401 886 403 919 q 394 844 400 853 q 375 835 389 835 l 196 835 z "},"Ë":{"ha":418,"x_min":42,"x_max":403,"o":"m 196 138 l 393 138 q 392 49 393 82 q 385 8 390 15 q 367 0 381 0 l 42 0 l 42 944 q 47 962 42 951 q 69 972 53 972 l 403 972 q 401 886 403 919 q 394 844 400 853 q 375 835 389 835 l 196 835 l 196 597 l 365 597 q 364 512 365 546 q 358 467 363 478 q 340 456 353 456 l 196 456 l 196 138 m 121 1042 q 68 1065 86 1042 q 50 1147 50 1089 q 70 1222 50 1194 q 131 1250 90 1250 q 186 1229 171 1250 q 201 1154 201 1208 q 181 1071 201 1100 q 121 1042 160 1042 m 301 1042 q 247 1065 265 1042 q 229 1147 229 1089 q 250 1222 229 1194 q 311 1250 271 1250 q 365 1229 350 1250 q 379 1154 379 1208 q 359 1071 379 1100 q 301 1042 339 1042 z "},"Ė":{"ha":418,"x_min":42,"x_max":403,"o":"m 196 138 l 393 138 q 392 49 393 82 q 385 8 390 15 q 367 0 381 0 l 42 0 l 42 944 q 47 962 42 951 q 69 972 53 972 l 403 972 q 401 886 403 919 q 394 844 400 853 q 375 835 389 835 l 196 835 l 196 597 l 365 597 q 364 512 365 546 q 358 467 363 478 q 340 456 353 456 l 196 456 l 196 138 m 211 1036 q 155 1061 174 1036 q 136 1147 136 1086 q 158 1226 136 1197 q 221 1256 179 1256 q 278 1233 263 1256 q 293 1154 293 1211 q 272 1067 293 1099 q 211 1036 251 1036 z "},"Ẹ":{"ha":418,"x_min":42,"x_max":403,"o":"m 196 138 l 393 138 q 392 49 393 82 q 385 8 390 15 q 367 0 381 0 l 42 0 l 42 944 q 47 962 42 951 q 69 972 53 972 l 403 972 q 401 886 403 919 q 394 844 400 853 q 375 835 389 835 l 196 835 l 196 597 l 365 597 q 364 512 365 546 q 358 467 363 478 q 340 456 353 456 l 196 456 l 196 138 m 206 -272 q 160 -251 175 -272 q 144 -179 144 -231 q 162 -114 144 -137 q 214 -90 179 -90 q 260 -109 247 -90 q 274 -174 274 -128 q 256 -247 274 -221 q 206 -272 239 -272 z "},"È":{"ha":418,"x_min":42,"x_max":403,"o":"m 196 138 l 393 138 q 392 49 393 82 q 385 8 390 15 q 367 0 381 0 l 42 0 l 42 944 q 47 962 42 951 q 69 972 53 972 l 403 972 q 401 886 403 919 q 394 844 400 853 q 375 835 389 835 l 196 835 l 196 597 l 365 597 q 364 512 365 546 q 358 467 363 478 q 340 456 353 456 l 196 456 l 196 138 m 296 1026 q 205 1081 282 1028 q 103 1163 128 1135 q 130 1240 110 1204 q 174 1275 150 1275 q 254 1216 186 1275 q 356 1111 322 1157 q 347 1084 354 1104 q 327 1045 340 1064 q 296 1026 314 1026 z "},"Ẻ":{"ha":418,"x_min":42,"x_max":403,"o":"m 196 138 l 393 138 q 392 49 393 82 q 385 8 390 15 q 367 0 381 0 l 42 0 l 42 944 q 47 962 42 951 q 69 972 53 972 l 403 972 q 401 886 403 919 q 394 844 400 853 q 375 835 389 835 l 196 835 l 196 597 l 365 597 q 364 512 365 546 q 358 467 363 478 q 340 456 353 456 l 196 456 l 196 138 m 156 1013 q 155 1019 156 1014 q 154 1031 154 1024 q 158 1053 154 1046 q 182 1081 163 1061 q 205 1107 197 1094 q 213 1140 213 1119 q 157 1199 213 1199 q 103 1182 125 1199 l 103 1279 q 119 1292 103 1285 q 156 1299 135 1299 q 286 1259 247 1299 q 325 1161 325 1219 q 310 1101 325 1122 q 277 1066 296 1081 q 253 1047 258 1051 q 245 1030 247 1042 q 243 1014 243 1018 q 189 1011 240 1011 l 156 1013 z "},"Ē":{"ha":418,"x_min":19,"x_max":411,"o":"m 196 138 l 393 138 q 392 49 393 82 q 385 8 390 15 q 367 0 381 0 l 42 0 l 42 944 q 47 962 42 951 q 69 972 53 972 l 403 972 q 401 886 403 919 q 394 844 400 853 q 375 835 389 835 l 196 835 l 196 597 l 365 597 q 364 512 365 546 q 358 467 363 478 q 340 456 353 456 l 196 456 l 196 138 m 31 1067 q 19 1135 19 1096 q 36 1190 19 1168 q 82 1211 53 1211 l 396 1211 q 411 1146 411 1181 q 395 1089 411 1111 q 353 1067 379 1067 l 31 1067 z "},"Ę":{"ha":418,"x_min":42,"x_max":403,"o":"m 286 -271 q 163 -147 163 -271 q 181 -67 163 -104 q 228 0 199 -29 l 42 0 l 42 944 q 47 962 42 951 q 69 972 53 972 l 403 972 q 401 886 403 919 q 394 844 400 853 q 375 835 389 835 l 196 835 l 196 597 l 365 597 q 364 512 365 546 q 358 467 363 478 q 340 456 353 456 l 196 456 l 196 138 l 393 138 q 392 53 393 85 q 386 12 390 21 q 371 -7 382 3 q 321 -61 343 -29 q 299 -125 299 -93 q 307 -154 299 -144 q 333 -164 315 -164 q 369 -154 354 -164 q 380 -185 376 -168 q 383 -214 383 -201 q 286 -271 383 -271 z "},"Ẽ":{"ha":418,"x_min":4,"x_max":426,"o":"m 196 138 l 393 138 q 392 49 393 82 q 385 8 390 15 q 367 0 381 0 l 42 0 l 42 944 q 47 962 42 951 q 69 972 53 972 l 403 972 q 401 886 403 919 q 394 844 400 853 q 375 835 389 835 l 196 835 l 196 597 l 365 597 q 364 512 365 546 q 358 467 363 478 q 340 456 353 456 l 196 456 l 196 138 m 263 1036 q 224 1044 238 1036 q 199 1068 211 1053 q 178 1088 188 1082 q 153 1094 169 1094 q 101 1067 126 1094 q 78 1050 88 1050 q 42 1067 58 1050 q 17 1102 26 1083 q 4 1126 7 1121 q 88 1213 39 1183 q 179 1242 138 1242 q 211 1234 199 1242 q 239 1211 224 1226 q 265 1189 254 1196 q 293 1182 276 1182 q 328 1189 317 1182 q 353 1210 340 1196 q 363 1220 357 1215 q 376 1225 369 1225 q 400 1206 389 1225 q 418 1166 411 1186 q 426 1139 425 1146 q 400 1109 426 1136 q 338 1059 374 1082 q 263 1036 301 1036 z "},"F":{"ha":411,"x_min":42,"x_max":403,"o":"m 403 972 q 401 888 403 919 q 395 849 400 856 q 375 842 390 842 l 196 842 l 196 597 l 365 597 q 364 512 365 546 q 358 467 363 478 q 340 457 353 457 l 196 457 l 196 28 l 196 25 q 172 0 196 0 l 42 0 l 42 944 q 47 962 42 951 q 69 972 53 972 l 403 972 z "},"G":{"ha":514,"x_min":28,"x_max":485,"o":"m 292 -14 q 129 26 185 -14 q 51 165 74 65 q 28 454 28 264 q 63 787 28 671 q 163 944 97 903 q 333 986 228 986 q 444 963 404 986 q 485 906 485 939 q 465 807 485 863 q 422 827 450 819 q 367 835 394 835 q 260 799 297 835 q 208 685 222 763 q 194 467 194 607 q 203 255 194 325 q 233 161 213 185 q 294 138 254 138 q 340 151 329 138 l 340 463 l 275 463 l 275 563 q 308 590 275 590 l 485 590 l 483 29 q 292 -14 418 -14 z "},"Ğ":{"ha":514,"x_min":28,"x_max":493,"o":"m 292 -14 q 129 26 185 -14 q 51 165 74 65 q 28 454 28 264 q 63 787 28 671 q 163 944 97 903 q 333 986 228 986 q 444 963 404 986 q 485 906 485 939 q 465 807 485 863 q 422 827 450 819 q 367 835 394 835 q 260 799 297 835 q 208 685 222 763 q 194 467 194 607 q 203 255 194 325 q 233 161 213 185 q 294 138 254 138 q 340 151 329 138 l 340 463 l 275 463 l 275 563 q 308 590 275 590 l 485 590 l 483 29 q 292 -14 418 -14 m 293 1031 q 207 1053 250 1031 q 137 1113 164 1076 q 110 1186 110 1149 q 127 1237 110 1217 q 189 1274 144 1257 q 231 1207 203 1236 q 294 1178 258 1178 q 351 1197 331 1178 q 392 1253 371 1217 q 418 1268 401 1268 q 464 1242 440 1268 q 493 1188 488 1217 q 293 1031 435 1031 z "},"Ģ":{"ha":514,"x_min":28,"x_max":485,"o":"m 292 -14 q 129 26 185 -14 q 51 165 74 65 q 28 454 28 264 q 63 787 28 671 q 163 944 97 903 q 333 986 228 986 q 444 963 404 986 q 485 906 485 939 q 465 807 485 863 q 422 827 450 819 q 367 835 394 835 q 260 799 297 835 q 208 685 222 763 q 194 467 194 607 q 203 255 194 325 q 233 161 213 185 q 294 138 254 138 q 340 151 329 138 l 340 463 l 275 463 l 275 563 q 308 590 275 590 l 485 590 l 483 29 q 292 -14 418 -14 m 256 -386 q 217 -378 232 -386 q 197 -346 203 -369 q 224 -292 219 -310 q 235 -242 229 -275 q 204 -209 213 -229 q 196 -158 196 -189 q 222 -95 196 -121 q 285 -69 247 -69 q 358 -95 332 -69 q 383 -169 383 -121 q 359 -273 383 -224 q 303 -354 335 -322 q 256 -386 272 -386 z "},"H":{"ha":532,"x_min":43,"x_max":488,"o":"m 488 28 q 481 8 488 13 q 437 1 475 3 q 333 0 399 0 l 333 446 l 197 446 l 197 28 q 191 8 197 13 q 147 1 185 3 q 43 0 108 0 l 43 944 q 49 965 43 960 q 94 971 56 969 q 197 972 132 972 l 197 590 l 333 590 l 333 944 q 340 965 333 960 q 384 971 346 969 q 488 972 422 972 l 488 28 z "},"I":{"ha":242,"x_min":42,"x_max":199,"o":"m 42 904 q 49 954 42 942 q 85 969 57 967 q 199 972 113 972 l 199 28 q 192 8 199 13 q 146 1 185 3 q 42 0 107 0 l 42 904 z "},"Ĳ":{"ha":660,"x_min":42,"x_max":618,"o":"m 42 904 q 49 954 42 942 q 85 969 57 967 q 199 972 113 972 l 199 28 q 192 8 199 13 q 146 1 185 3 q 42 0 107 0 l 42 904 m 410 -12 q 288 13 319 -12 q 256 81 256 38 q 260 122 256 106 q 276 164 265 139 q 329 135 299 147 q 388 124 360 124 q 435 134 419 124 q 456 172 450 144 q 461 254 461 199 l 461 904 q 468 954 461 942 q 503 969 475 967 q 618 972 531 972 l 618 224 q 569 46 618 104 q 410 -12 521 -12 z "},"Í":{"ha":242,"x_min":8,"x_max":261,"o":"m 42 904 q 49 954 42 942 q 85 969 57 967 q 199 972 113 972 l 199 28 q 192 8 199 13 q 146 1 185 3 q 42 0 107 0 l 42 904 m 68 1040 q 37 1059 50 1040 q 17 1098 24 1078 q 8 1125 10 1118 q 70 1194 31 1156 q 146 1260 110 1232 q 190 1289 182 1289 q 234 1253 214 1289 q 261 1175 254 1218 q 159 1094 238 1147 q 68 1040 81 1042 z "},"Î":{"ha":242,"x_min":-65,"x_max":307,"o":"m 42 904 q 49 954 42 942 q 85 969 57 967 q 199 972 113 972 l 199 28 q 192 8 199 13 q 146 1 185 3 q 42 0 107 0 l 42 904 m 200 1042 q 183 1058 196 1044 q 155 1092 171 1071 q 126 1138 139 1114 q 108 1108 122 1131 q 74 1064 93 1085 q 39 1043 54 1043 q -65 1083 -33 1043 l 97 1269 q 128 1274 111 1274 q 171 1254 153 1274 q 213 1209 181 1244 q 276 1135 246 1174 q 307 1079 307 1096 q 200 1042 307 1042 z "},"Ï":{"ha":242,"x_min":-44,"x_max":285,"o":"m 42 904 q 49 954 42 942 q 85 969 57 967 q 199 972 113 972 l 199 28 q 192 8 199 13 q 146 1 185 3 q 42 0 107 0 l 42 904 m 26 1042 q -26 1065 -8 1042 q -44 1147 -44 1089 q -24 1222 -44 1194 q 36 1250 -4 1250 q 92 1229 76 1250 q 107 1154 107 1208 q 86 1071 107 1100 q 26 1042 65 1042 m 207 1042 q 153 1065 171 1042 q 135 1147 135 1089 q 156 1222 135 1194 q 217 1250 176 1250 q 270 1229 256 1250 q 285 1154 285 1208 q 265 1071 285 1100 q 207 1042 244 1042 z "},"İ":{"ha":242,"x_min":42,"x_max":199,"o":"m 42 904 q 49 954 42 942 q 85 969 57 967 q 199 972 113 972 l 199 28 q 192 8 199 13 q 146 1 185 3 q 42 0 107 0 l 42 904 m 117 1036 q 60 1061 79 1036 q 42 1147 42 1086 q 63 1226 42 1197 q 126 1256 85 1256 q 183 1233 168 1256 q 199 1154 199 1211 q 178 1067 199 1099 q 117 1036 157 1036 z "},"Ị":{"ha":242,"x_min":42,"x_max":199,"o":"m 42 904 q 49 954 42 942 q 85 969 57 967 q 199 972 113 972 l 199 28 q 192 8 199 13 q 146 1 185 3 q 42 0 107 0 l 42 904 m 118 -272 q 72 -251 88 -272 q 57 -179 57 -231 q 74 -114 57 -137 q 126 -90 92 -90 q 173 -109 160 -90 q 186 -174 186 -128 q 169 -247 186 -221 q 118 -272 151 -272 z "},"Ì":{"ha":242,"x_min":8,"x_max":261,"o":"m 42 904 q 49 954 42 942 q 85 969 57 967 q 199 972 113 972 l 199 28 q 192 8 199 13 q 146 1 185 3 q 42 0 107 0 l 42 904 m 201 1026 q 110 1081 188 1028 q 8 1163 33 1135 q 35 1240 15 1204 q 79 1275 56 1275 q 160 1216 92 1275 q 261 1111 228 1157 q 253 1084 260 1104 q 233 1045 246 1064 q 201 1026 219 1026 z "},"Ỉ":{"ha":242,"x_min":8,"x_max":231,"o":"m 42 904 q 49 954 42 942 q 85 969 57 967 q 199 972 113 972 l 199 28 q 192 8 199 13 q 146 1 185 3 q 42 0 107 0 l 42 904 m 61 1013 q 60 1019 61 1014 q 60 1031 60 1024 q 64 1053 60 1046 q 88 1081 68 1061 q 110 1107 103 1094 q 118 1140 118 1119 q 63 1199 118 1199 q 8 1182 31 1199 l 8 1279 q 24 1292 8 1285 q 61 1299 40 1299 q 192 1259 153 1299 q 231 1161 231 1219 q 216 1101 231 1122 q 183 1066 201 1081 q 158 1047 164 1051 q 151 1030 153 1042 q 149 1014 149 1018 q 94 1011 146 1011 l 61 1013 z "},"Ī":{"ha":242,"x_min":-75,"x_max":317,"o":"m 42 904 q 49 954 42 942 q 85 969 57 967 q 199 972 113 972 l 199 28 q 192 8 199 13 q 146 1 185 3 q 42 0 107 0 l 42 904 m -64 1067 q -75 1135 -75 1096 q -58 1190 -75 1168 q -12 1211 -42 1211 l 301 1211 q 317 1146 317 1181 q 301 1089 317 1111 q 258 1067 285 1067 l -64 1067 z "},"Į":{"ha":242,"x_min":-18,"x_max":204,"o":"m 110 -271 q -18 -153 -18 -271 q -3 -75 -18 -108 q 42 0 13 -42 l 42 904 q 49 954 42 942 q 85 969 57 967 q 199 972 113 972 l 199 28 q 196 12 199 18 q 183 -4 193 6 q 118 -126 118 -74 q 126 -155 118 -146 q 154 -164 135 -164 q 189 -154 175 -164 q 200 -185 196 -168 q 204 -214 204 -203 q 178 -257 204 -243 q 110 -271 151 -271 z "},"Ĩ":{"ha":242,"x_min":-90,"x_max":332,"o":"m 42 904 q 49 954 42 942 q 85 969 57 967 q 199 972 113 972 l 199 28 q 192 8 199 13 q 146 1 185 3 q 42 0 107 0 l 42 904 m 168 1036 q 130 1044 143 1036 q 104 1068 117 1053 q 84 1088 93 1082 q 58 1094 75 1094 q 7 1067 32 1094 q -17 1050 -7 1050 q -52 1067 -36 1050 q -78 1102 -68 1083 q -90 1126 -87 1121 q -6 1213 -56 1183 q 85 1242 43 1242 q 117 1234 104 1242 q 144 1211 129 1226 q 171 1189 160 1196 q 199 1182 182 1182 q 234 1189 222 1182 q 258 1210 246 1196 q 269 1220 263 1215 q 282 1225 275 1225 q 306 1206 294 1225 q 324 1166 317 1186 q 332 1139 331 1146 q 306 1109 332 1136 q 243 1059 279 1082 q 168 1036 207 1036 z "},"J":{"ha":418,"x_min":14,"x_max":376,"o":"m 168 -12 q 46 13 78 -12 q 14 81 14 38 q 19 122 14 106 q 35 164 24 139 q 88 135 57 147 q 146 124 118 124 q 193 134 178 124 q 214 172 208 144 q 219 254 219 199 l 219 904 q 226 954 219 942 q 261 969 233 967 q 376 972 289 972 l 376 224 q 328 46 376 104 q 168 -12 279 -12 z "},"K":{"ha":539,"x_min":39,"x_max":518,"o":"m 449 974 q 518 947 518 974 q 515 935 518 943 l 354 557 q 467 352 429 488 q 507 29 506 217 q 495 3 507 10 q 443 -3 483 -3 q 332 1 390 -3 q 312 259 331 154 q 239 425 293 364 q 196 457 219 446 l 196 28 q 189 8 196 13 q 144 1 182 3 q 39 0 106 0 l 39 944 q 46 965 39 960 q 91 971 53 969 q 196 972 129 972 l 196 571 l 350 963 q 449 974 400 974 z "},"Ķ":{"ha":539,"x_min":39,"x_max":518,"o":"m 449 974 q 518 947 518 974 q 515 935 518 943 l 354 557 q 467 352 429 488 q 507 29 506 217 q 495 3 507 10 q 443 -3 483 -3 q 332 1 390 -3 q 312 259 331 154 q 239 425 293 364 q 196 457 219 446 l 196 28 q 189 8 196 13 q 144 1 182 3 q 39 0 106 0 l 39 944 q 46 965 39 960 q 91 971 53 969 q 196 972 129 972 l 196 571 l 350 963 q 449 974 400 974 m 235 -386 q 197 -378 211 -386 q 176 -346 182 -369 q 203 -292 199 -310 q 214 -242 208 -275 q 183 -209 192 -229 q 175 -158 175 -189 q 201 -95 175 -121 q 264 -69 226 -69 q 337 -95 311 -69 q 363 -169 363 -121 q 338 -273 363 -224 q 283 -354 314 -322 q 235 -386 251 -386 z "},"L":{"ha":415,"x_min":42,"x_max":393,"o":"m 42 933 q 49 962 42 954 q 84 971 57 969 q 196 972 111 972 l 196 144 l 393 144 l 393 28 q 367 0 393 0 l 42 0 l 42 933 z "},"Ĺ":{"ha":415,"x_min":13,"x_max":393,"o":"m 42 933 q 49 962 42 954 q 84 971 57 969 q 196 972 111 972 l 196 144 l 393 144 l 393 28 q 367 0 393 0 l 42 0 l 42 933 m 72 1040 q 41 1059 54 1040 q 21 1098 28 1078 q 13 1125 14 1118 q 74 1194 35 1156 q 150 1260 114 1232 q 194 1289 186 1289 q 238 1253 218 1289 q 265 1175 258 1218 q 163 1094 242 1147 q 72 1040 85 1042 z "},"Ľ":{"ha":442,"x_min":42,"x_max":451,"o":"m 42 933 q 49 962 42 954 q 84 971 57 969 q 196 972 111 972 l 196 144 l 393 144 l 393 28 q 367 0 393 0 l 42 0 l 42 933 m 325 626 q 287 635 301 626 q 267 667 272 643 q 294 720 289 703 q 304 772 299 738 q 274 804 282 785 q 265 854 265 824 q 291 918 265 892 q 354 944 317 944 q 426 918 401 944 q 451 843 451 892 q 427 740 451 790 q 372 658 403 690 q 325 626 342 626 z "},"Ļ":{"ha":415,"x_min":42,"x_max":393,"o":"m 42 933 q 49 962 42 954 q 84 971 57 969 q 196 972 111 972 l 196 144 l 393 144 l 393 28 q 367 0 393 0 l 42 0 l 42 933 m 172 -386 q 134 -378 149 -386 q 114 -346 119 -369 q 141 -292 136 -310 q 151 -242 146 -275 q 121 -209 129 -229 q 113 -158 113 -189 q 138 -95 113 -121 q 201 -69 164 -69 q 274 -95 249 -69 q 300 -169 300 -121 q 276 -273 300 -224 q 220 -354 251 -322 q 172 -386 189 -386 z "},"Ŀ":{"ha":451,"x_min":42,"x_max":419,"o":"m 42 933 q 49 962 42 954 q 84 971 57 969 q 196 972 111 972 l 196 144 l 393 144 l 393 28 q 367 0 393 0 l 42 0 l 42 933 m 322 354 q 246 378 268 354 q 224 453 224 403 q 250 525 224 496 q 322 554 276 554 q 397 528 375 554 q 419 453 419 501 q 393 383 419 411 q 322 354 367 354 z "},"Ł":{"ha":442,"x_min":0,"x_max":421,"o":"m 421 144 l 421 28 q 416 10 421 21 q 393 0 411 0 l 69 0 l 69 413 l 18 401 q 0 507 0 481 q 18 539 0 535 l 69 550 l 69 933 q 77 962 69 954 q 112 971 85 969 q 224 972 139 972 l 224 583 l 338 607 l 344 574 q 351 537 346 561 q 356 501 356 513 q 339 472 356 476 l 224 447 l 224 144 l 421 144 z "},"M":{"ha":663,"x_min":42,"x_max":621,"o":"m 621 972 l 621 28 q 614 8 621 13 q 568 1 607 3 q 463 0 529 0 l 469 267 q 481 458 472 365 q 499 608 490 550 q 510 682 507 667 l 506 685 q 435 426 454 481 l 368 242 q 353 232 365 232 l 289 232 l 224 426 q 156 685 204 485 l 151 682 q 163 609 154 667 q 181 460 172 551 q 190 268 190 368 l 194 28 q 186 8 194 13 q 140 1 178 3 q 42 0 103 0 l 42 944 q 49 967 42 963 q 69 972 56 972 l 186 972 l 297 628 q 324 536 315 575 q 335 488 333 497 q 344 536 336 497 q 368 625 353 575 l 464 944 q 474 967 469 961 q 492 972 479 972 l 621 972 z "},"N":{"ha":597,"x_min":42,"x_max":556,"o":"m 401 944 q 409 965 401 960 q 454 971 417 969 q 556 972 492 972 l 556 28 q 549 8 556 15 q 528 0 542 0 l 408 0 l 261 372 q 178 681 225 465 q 196 361 196 503 l 196 28 q 189 8 196 13 q 144 1 182 3 q 42 0 106 0 l 42 944 q 69 972 42 972 l 192 972 l 338 607 q 419 313 372 519 q 401 621 401 481 l 401 944 z "},"Ń":{"ha":597,"x_min":42,"x_max":556,"o":"m 401 944 q 409 965 401 960 q 454 971 417 969 q 556 972 492 972 l 556 28 q 549 8 556 15 q 528 0 542 0 l 408 0 l 261 372 q 178 681 225 465 q 196 361 196 503 l 196 28 q 189 8 196 13 q 144 1 182 3 q 42 0 106 0 l 42 944 q 69 972 42 972 l 192 972 l 338 607 q 419 313 372 519 q 401 621 401 481 l 401 944 m 246 1040 q 215 1059 228 1040 q 194 1098 201 1078 q 186 1125 188 1118 q 248 1194 208 1156 q 324 1260 288 1232 q 368 1289 360 1289 q 412 1253 392 1289 q 439 1175 432 1218 q 337 1094 415 1147 q 246 1040 258 1042 z "},"Ň":{"ha":597,"x_min":42,"x_max":556,"o":"m 401 944 q 409 965 401 960 q 454 971 417 969 q 556 972 492 972 l 556 28 q 549 8 556 15 q 528 0 542 0 l 408 0 l 261 372 q 178 681 225 465 q 196 361 196 503 l 196 28 q 189 8 196 13 q 144 1 182 3 q 42 0 106 0 l 42 944 q 69 972 42 972 l 192 972 l 338 607 q 419 313 372 519 q 401 621 401 481 l 401 944 m 307 1031 q 223 1087 285 1031 q 135 1181 161 1143 q 167 1247 147 1217 q 203 1278 188 1278 q 241 1255 217 1278 q 287 1207 265 1232 q 314 1174 308 1182 q 355 1228 335 1207 q 388 1258 375 1249 q 403 1269 400 1268 q 447 1237 431 1254 q 464 1203 464 1219 q 431 1144 464 1186 q 358 1067 397 1103 q 307 1031 319 1031 z "},"Ņ":{"ha":597,"x_min":42,"x_max":556,"o":"m 401 944 q 409 965 401 960 q 454 971 417 969 q 556 972 492 972 l 556 28 q 549 8 556 15 q 528 0 542 0 l 408 0 l 261 372 q 178 681 225 465 q 196 361 196 503 l 196 28 q 189 8 196 13 q 144 1 182 3 q 42 0 106 0 l 42 944 q 69 972 42 972 l 192 972 l 338 607 q 419 313 372 519 q 401 621 401 481 l 401 944 m 264 -386 q 226 -378 240 -386 q 206 -346 211 -369 q 233 -292 228 -310 q 243 -242 238 -275 q 213 -209 221 -229 q 204 -158 204 -189 q 230 -95 204 -121 q 293 -69 256 -69 q 366 -95 340 -69 q 392 -169 392 -121 q 367 -273 392 -224 q 312 -354 343 -322 q 264 -386 281 -386 z "},"Ñ":{"ha":597,"x_min":42,"x_max":556,"o":"m 401 944 q 409 965 401 960 q 454 971 417 969 q 556 972 492 972 l 556 28 q 549 8 556 15 q 528 0 542 0 l 408 0 l 261 372 q 178 681 225 465 q 196 361 196 503 l 196 28 q 189 8 196 13 q 144 1 182 3 q 42 0 106 0 l 42 944 q 69 972 42 972 l 192 972 l 338 607 q 419 313 372 519 q 401 621 401 481 l 401 944 m 346 1036 q 308 1044 321 1036 q 282 1068 294 1053 q 262 1088 271 1082 q 236 1094 253 1094 q 185 1067 210 1094 q 161 1050 171 1050 q 126 1067 142 1050 q 100 1102 110 1083 q 88 1126 90 1121 q 172 1213 122 1183 q 263 1242 221 1242 q 294 1234 282 1242 q 322 1211 307 1226 q 349 1189 338 1196 q 376 1182 360 1182 q 412 1189 400 1182 q 436 1210 424 1196 q 447 1220 440 1215 q 460 1225 453 1225 q 483 1206 472 1225 q 501 1166 494 1186 q 510 1139 508 1146 q 483 1109 510 1136 q 421 1059 457 1082 q 346 1036 385 1036 z "},"O":{"ha":569,"x_min":28,"x_max":540,"o":"m 278 -14 q 129 28 182 -14 q 52 178 76 69 q 28 492 28 286 q 56 786 28 678 q 142 940 85 894 q 293 986 200 986 q 439 943 386 986 q 516 794 492 900 q 540 497 540 689 q 513 192 540 303 q 428 33 485 81 q 278 -14 372 -14 m 286 146 q 339 181 321 146 q 364 288 357 215 q 371 492 371 361 q 366 694 371 626 q 344 794 361 763 q 290 826 326 826 q 238 791 257 826 q 212 676 219 756 q 204 457 204 597 q 210 274 204 339 q 234 177 217 208 q 286 146 251 146 z "},"Ó":{"ha":569,"x_min":28,"x_max":540,"o":"m 278 -14 q 129 28 182 -14 q 52 178 76 69 q 28 492 28 286 q 56 786 28 678 q 142 940 85 894 q 293 986 200 986 q 439 943 386 986 q 516 794 492 900 q 540 497 540 689 q 513 192 540 303 q 428 33 485 81 q 278 -14 372 -14 m 286 146 q 339 181 321 146 q 364 288 357 215 q 371 492 371 361 q 366 694 371 626 q 344 794 361 763 q 290 826 326 826 q 238 791 257 826 q 212 676 219 756 q 204 457 204 597 q 210 274 204 339 q 234 177 217 208 q 286 146 251 146 m 232 1040 q 201 1059 214 1040 q 181 1098 188 1078 q 172 1125 174 1118 q 234 1194 194 1156 q 310 1260 274 1232 q 354 1289 346 1289 q 398 1253 378 1289 q 425 1175 418 1218 q 323 1094 401 1147 q 232 1040 244 1042 z "},"Ô":{"ha":569,"x_min":28,"x_max":540,"o":"m 278 -14 q 129 28 182 -14 q 52 178 76 69 q 28 492 28 286 q 56 786 28 678 q 142 940 85 894 q 293 986 200 986 q 439 943 386 986 q 516 794 492 900 q 540 497 540 689 q 513 192 540 303 q 428 33 485 81 q 278 -14 372 -14 m 286 146 q 339 181 321 146 q 364 288 357 215 q 371 492 371 361 q 366 694 371 626 q 344 794 361 763 q 290 826 326 826 q 238 791 257 826 q 212 676 219 756 q 204 457 204 597 q 210 274 204 339 q 234 177 217 208 q 286 146 251 146 m 364 1042 q 347 1058 360 1044 q 319 1092 335 1071 q 290 1138 303 1114 q 272 1108 286 1131 q 238 1064 257 1085 q 203 1043 218 1043 q 99 1083 131 1043 l 261 1269 q 292 1274 275 1274 q 335 1254 317 1274 q 377 1209 344 1244 q 440 1135 410 1174 q 471 1079 471 1096 q 364 1042 471 1042 z "},"Ố":{"ha":569,"x_min":28,"x_max":611,"o":"m 451 1139 q 426 1154 436 1139 q 410 1186 415 1169 q 403 1208 404 1203 q 486 1295 431 1246 q 553 1344 542 1344 q 590 1315 574 1344 q 611 1250 606 1286 q 526 1184 590 1228 q 451 1139 463 1140 m 350 1031 q 327 1055 350 1028 q 289 1110 304 1082 q 274 1085 286 1104 q 245 1049 261 1067 q 217 1032 229 1032 q 165 1040 186 1032 q 131 1065 144 1047 l 265 1218 q 290 1222 275 1222 q 326 1206 311 1222 q 362 1168 335 1197 q 414 1107 389 1139 q 439 1061 439 1075 q 350 1031 439 1031 m 278 -14 q 129 28 182 -14 q 52 178 76 69 q 28 492 28 286 q 56 786 28 678 q 142 940 85 894 q 293 986 200 986 q 439 943 386 986 q 516 794 492 900 q 540 497 540 689 q 513 192 540 303 q 428 33 485 81 q 278 -14 372 -14 m 286 146 q 339 181 321 146 q 364 288 357 215 q 371 492 371 361 q 366 694 371 626 q 344 794 361 763 q 290 826 326 826 q 238 791 257 826 q 212 676 219 756 q 204 457 204 597 q 210 274 204 339 q 234 177 217 208 q 286 146 251 146 z "},"Ộ":{"ha":569,"x_min":28,"x_max":540,"o":"m 278 -14 q 129 28 182 -14 q 52 178 76 69 q 28 492 28 286 q 56 786 28 678 q 142 940 85 894 q 293 986 200 986 q 439 943 386 986 q 516 794 492 900 q 540 497 540 689 q 513 192 540 303 q 428 33 485 81 q 278 -14 372 -14 m 286 146 q 339 181 321 146 q 364 288 357 215 q 371 492 371 361 q 366 694 371 626 q 344 794 361 763 q 290 826 326 826 q 238 791 257 826 q 212 676 219 756 q 204 457 204 597 q 210 274 204 339 q 234 177 217 208 q 286 146 251 146 m 282 -272 q 236 -251 251 -272 q 221 -179 221 -231 q 238 -114 221 -137 q 290 -90 256 -90 q 337 -109 324 -90 q 350 -174 350 -128 q 333 -247 350 -221 q 282 -272 315 -272 m 364 1042 q 347 1058 360 1044 q 319 1092 335 1071 q 290 1138 303 1114 q 272 1108 286 1131 q 238 1064 257 1085 q 203 1043 218 1043 q 99 1083 131 1043 l 261 1269 q 292 1274 275 1274 q 335 1254 317 1274 q 377 1209 344 1244 q 440 1135 410 1174 q 471 1079 471 1096 q 364 1042 471 1042 z "},"Ồ":{"ha":569,"x_min":28,"x_max":540,"o":"m 425 1194 q 350 1240 414 1196 q 267 1307 286 1283 q 288 1370 271 1340 q 325 1400 304 1400 q 392 1351 336 1400 q 475 1264 447 1301 q 468 1242 474 1258 q 451 1210 463 1225 q 425 1194 440 1194 m 350 1031 q 327 1055 350 1028 q 289 1110 304 1082 q 274 1085 286 1104 q 245 1049 261 1067 q 217 1032 229 1032 q 165 1040 186 1032 q 131 1065 144 1047 l 265 1218 q 290 1222 275 1222 q 326 1206 311 1222 q 362 1168 335 1197 q 414 1107 389 1139 q 439 1061 439 1075 q 350 1031 439 1031 m 278 -14 q 129 28 182 -14 q 52 178 76 69 q 28 492 28 286 q 56 786 28 678 q 142 940 85 894 q 293 986 200 986 q 439 943 386 986 q 516 794 492 900 q 540 497 540 689 q 513 192 540 303 q 428 33 485 81 q 278 -14 372 -14 m 286 146 q 339 181 321 146 q 364 288 357 215 q 371 492 371 361 q 366 694 371 626 q 344 794 361 763 q 290 826 326 826 q 238 791 257 826 q 212 676 219 756 q 204 457 204 597 q 210 274 204 339 q 234 177 217 208 q 286 146 251 146 z "},"Ổ":{"ha":569,"x_min":28,"x_max":571,"o":"m 431 1156 q 429 1161 431 1157 q 428 1172 428 1165 q 432 1189 428 1181 q 453 1213 439 1201 q 472 1234 465 1224 q 478 1261 478 1244 q 432 1310 478 1310 q 386 1296 404 1310 l 386 1376 q 400 1387 386 1381 q 431 1393 414 1393 q 539 1360 507 1393 q 571 1278 571 1326 q 559 1229 571 1246 q 531 1201 547 1213 q 511 1185 515 1189 q 504 1170 506 1181 q 503 1157 503 1160 q 431 1156 501 1156 m 350 1031 q 327 1055 350 1028 q 289 1110 304 1082 q 274 1085 286 1104 q 245 1049 261 1067 q 217 1032 229 1032 q 165 1040 186 1032 q 131 1065 144 1047 l 265 1218 q 290 1222 275 1222 q 326 1206 311 1222 q 362 1168 335 1197 q 414 1107 389 1139 q 439 1061 439 1075 q 350 1031 439 1031 m 278 -14 q 129 28 182 -14 q 52 178 76 69 q 28 492 28 286 q 56 786 28 678 q 142 940 85 894 q 293 986 200 986 q 439 943 386 986 q 516 794 492 900 q 540 497 540 689 q 513 192 540 303 q 428 33 485 81 q 278 -14 372 -14 m 286 146 q 339 181 321 146 q 364 288 357 215 q 371 492 371 361 q 366 694 371 626 q 344 794 361 763 q 290 826 326 826 q 238 791 257 826 q 212 676 219 756 q 204 457 204 597 q 210 274 204 339 q 234 177 217 208 q 286 146 251 146 z "},"Ỗ":{"ha":569,"x_min":28,"x_max":540,"o":"m 364 1244 q 333 1251 343 1244 q 311 1271 324 1257 q 294 1288 303 1282 q 274 1293 286 1293 q 250 1287 260 1293 q 229 1269 240 1281 q 211 1257 218 1257 q 181 1271 194 1257 q 160 1300 168 1285 q 150 1319 151 1315 q 219 1391 179 1367 q 294 1415 260 1415 q 322 1408 311 1415 q 344 1389 333 1401 q 365 1372 356 1378 q 389 1365 375 1365 q 419 1372 408 1365 q 440 1390 429 1378 q 458 1401 450 1401 q 478 1385 469 1401 q 492 1353 486 1369 q 499 1331 497 1336 q 477 1306 499 1328 q 426 1264 456 1283 q 364 1244 396 1244 m 350 1031 q 327 1055 350 1028 q 289 1110 304 1082 q 274 1085 286 1104 q 245 1049 261 1067 q 217 1032 229 1032 q 165 1040 186 1032 q 131 1065 144 1047 l 265 1218 q 290 1222 275 1222 q 326 1206 311 1222 q 362 1168 335 1197 q 414 1107 389 1139 q 439 1061 439 1075 q 350 1031 439 1031 m 278 -14 q 129 28 182 -14 q 52 178 76 69 q 28 492 28 286 q 56 786 28 678 q 142 940 85 894 q 293 986 200 986 q 439 943 386 986 q 516 794 492 900 q 540 497 540 689 q 513 192 540 303 q 428 33 485 81 q 278 -14 372 -14 m 286 146 q 339 181 321 146 q 364 288 357 215 q 371 492 371 361 q 366 694 371 626 q 344 794 361 763 q 290 826 326 826 q 238 791 257 826 q 212 676 219 756 q 204 457 204 597 q 210 274 204 339 q 234 177 217 208 q 286 146 251 146 z "},"Ö":{"ha":569,"x_min":28,"x_max":540,"o":"m 278 -14 q 129 28 182 -14 q 52 178 76 69 q 28 492 28 286 q 56 786 28 678 q 142 940 85 894 q 293 986 200 986 q 439 943 386 986 q 516 794 492 900 q 540 497 540 689 q 513 192 540 303 q 428 33 485 81 q 278 -14 372 -14 m 286 146 q 339 181 321 146 q 364 288 357 215 q 371 492 371 361 q 366 694 371 626 q 344 794 361 763 q 290 826 326 826 q 238 791 257 826 q 212 676 219 756 q 204 457 204 597 q 210 274 204 339 q 234 177 217 208 q 286 146 251 146 m 190 1042 q 138 1065 156 1042 q 119 1147 119 1089 q 140 1222 119 1194 q 200 1250 160 1250 q 256 1229 240 1250 q 271 1154 271 1208 q 250 1071 271 1100 q 190 1042 229 1042 m 371 1042 q 317 1065 335 1042 q 299 1147 299 1089 q 319 1222 299 1194 q 381 1250 340 1250 q 434 1229 419 1250 q 449 1154 449 1208 q 428 1071 449 1100 q 371 1042 408 1042 z "},"Ọ":{"ha":569,"x_min":28,"x_max":540,"o":"m 278 -14 q 129 28 182 -14 q 52 178 76 69 q 28 492 28 286 q 56 786 28 678 q 142 940 85 894 q 293 986 200 986 q 439 943 386 986 q 516 794 492 900 q 540 497 540 689 q 513 192 540 303 q 428 33 485 81 q 278 -14 372 -14 m 286 146 q 339 181 321 146 q 364 288 357 215 q 371 492 371 361 q 366 694 371 626 q 344 794 361 763 q 290 826 326 826 q 238 791 257 826 q 212 676 219 756 q 204 457 204 597 q 210 274 204 339 q 234 177 217 208 q 286 146 251 146 m 282 -272 q 236 -251 251 -272 q 221 -179 221 -231 q 238 -114 221 -137 q 290 -90 256 -90 q 337 -109 324 -90 q 350 -174 350 -128 q 333 -247 350 -221 q 282 -272 315 -272 z "},"Ò":{"ha":569,"x_min":28,"x_max":540,"o":"m 278 -14 q 129 28 182 -14 q 52 178 76 69 q 28 492 28 286 q 56 786 28 678 q 142 940 85 894 q 293 986 200 986 q 439 943 386 986 q 516 794 492 900 q 540 497 540 689 q 513 192 540 303 q 428 33 485 81 q 278 -14 372 -14 m 286 146 q 339 181 321 146 q 364 288 357 215 q 371 492 371 361 q 366 694 371 626 q 344 794 361 763 q 290 826 326 826 q 238 791 257 826 q 212 676 219 756 q 204 457 204 597 q 210 274 204 339 q 234 177 217 208 q 286 146 251 146 m 365 1026 q 274 1081 351 1028 q 172 1163 197 1135 q 199 1240 179 1204 q 243 1275 219 1275 q 324 1216 256 1275 q 425 1111 392 1157 q 417 1084 424 1104 q 397 1045 410 1064 q 365 1026 383 1026 z "},"Ỏ":{"ha":569,"x_min":28,"x_max":540,"o":"m 278 -14 q 129 28 182 -14 q 52 178 76 69 q 28 492 28 286 q 56 786 28 678 q 142 940 85 894 q 293 986 200 986 q 439 943 386 986 q 516 794 492 900 q 540 497 540 689 q 513 192 540 303 q 428 33 485 81 q 278 -14 372 -14 m 286 146 q 339 181 321 146 q 364 288 357 215 q 371 492 371 361 q 366 694 371 626 q 344 794 361 763 q 290 826 326 826 q 238 791 257 826 q 212 676 219 756 q 204 457 204 597 q 210 274 204 339 q 234 177 217 208 q 286 146 251 146 m 225 1013 q 224 1019 225 1014 q 224 1031 224 1024 q 228 1053 224 1046 q 251 1081 232 1061 q 274 1107 267 1094 q 282 1140 282 1119 q 226 1199 282 1199 q 172 1182 194 1199 l 172 1279 q 188 1292 172 1285 q 225 1299 204 1299 q 356 1259 317 1299 q 394 1161 394 1219 q 380 1101 394 1122 q 347 1066 365 1081 q 322 1047 328 1051 q 315 1030 317 1042 q 313 1014 313 1018 q 258 1011 310 1011 l 225 1013 z "},"Ơ":{"ha":569,"x_min":28,"x_max":560,"o":"m 558 1053 q 540 973 560 1015 q 474 904 519 931 q 524 753 508 850 q 540 497 540 656 q 513 192 540 303 q 428 33 485 81 q 278 -14 372 -14 q 129 28 182 -14 q 52 178 76 69 q 28 492 28 286 q 56 786 28 678 q 142 940 85 894 q 293 986 200 986 q 385 974 346 986 q 426 1003 414 982 q 438 1058 438 1024 q 451 1067 438 1064 q 485 1071 465 1071 q 535 1066 513 1071 q 558 1053 558 1061 m 286 146 q 339 181 321 146 q 364 288 357 215 q 371 492 371 361 q 366 694 371 626 q 344 794 361 763 q 290 826 326 826 q 238 791 257 826 q 212 676 219 756 q 204 457 204 597 q 210 274 204 339 q 234 177 217 208 q 286 146 251 146 z "},"Ớ":{"ha":569,"x_min":28,"x_max":558,"o":"m 558 1053 q 540 973 560 1015 q 474 904 519 931 q 524 753 508 850 q 540 497 540 656 q 513 192 540 303 q 428 33 485 81 q 278 -14 372 -14 q 129 28 182 -14 q 52 178 76 69 q 28 492 28 286 q 56 786 28 678 q 142 940 85 894 q 293 986 200 986 q 385 974 346 986 q 426 1003 414 982 q 438 1058 438 1024 q 451 1067 438 1064 q 485 1071 465 1071 q 535 1066 513 1071 q 558 1053 558 1061 m 286 146 q 339 181 321 146 q 364 288 357 215 q 371 492 371 361 q 366 694 371 626 q 344 794 361 763 q 290 826 326 826 q 238 791 257 826 q 212 676 219 756 q 204 457 204 597 q 210 274 204 339 q 234 177 217 208 q 286 146 251 146 m 218 1040 q 187 1059 200 1040 q 167 1098 174 1078 q 158 1125 160 1118 q 220 1194 181 1156 q 296 1260 260 1232 q 340 1289 332 1289 q 384 1253 364 1289 q 411 1175 404 1218 q 309 1094 388 1147 q 218 1040 231 1042 z "},"Ợ":{"ha":569,"x_min":28,"x_max":558,"o":"m 558 1053 q 540 973 560 1015 q 474 904 519 931 q 524 753 508 850 q 540 497 540 656 q 513 192 540 303 q 428 33 485 81 q 278 -14 372 -14 q 129 28 182 -14 q 52 178 76 69 q 28 492 28 286 q 56 786 28 678 q 142 940 85 894 q 293 986 200 986 q 385 974 346 986 q 426 1003 414 982 q 438 1058 438 1024 q 451 1067 438 1064 q 485 1071 465 1071 q 535 1066 513 1071 q 558 1053 558 1061 m 286 146 q 339 181 321 146 q 364 288 357 215 q 371 492 371 361 q 366 694 371 626 q 344 794 361 763 q 290 826 326 826 q 238 791 257 826 q 212 676 219 756 q 204 457 204 597 q 210 274 204 339 q 234 177 217 208 q 286 146 251 146 m 282 -272 q 236 -251 251 -272 q 221 -179 221 -231 q 238 -114 221 -137 q 290 -90 256 -90 q 337 -109 324 -90 q 350 -174 350 -128 q 333 -247 350 -221 q 282 -272 315 -272 z "},"Ờ":{"ha":569,"x_min":28,"x_max":558,"o":"m 558 1053 q 540 973 560 1015 q 474 904 519 931 q 524 753 508 850 q 540 497 540 656 q 513 192 540 303 q 428 33 485 81 q 278 -14 372 -14 q 129 28 182 -14 q 52 178 76 69 q 28 492 28 286 q 56 786 28 678 q 142 940 85 894 q 293 986 200 986 q 385 974 346 986 q 426 1003 414 982 q 438 1058 438 1024 q 451 1067 438 1064 q 485 1071 465 1071 q 535 1066 513 1071 q 558 1053 558 1061 m 286 146 q 339 181 321 146 q 364 288 357 215 q 371 492 371 361 q 366 694 371 626 q 344 794 361 763 q 290 826 326 826 q 238 791 257 826 q 212 676 219 756 q 204 457 204 597 q 210 274 204 339 q 234 177 217 208 q 286 146 251 146 m 351 1026 q 260 1081 338 1028 q 158 1163 183 1135 q 185 1240 165 1204 q 229 1275 206 1275 q 310 1216 242 1275 q 411 1111 378 1157 q 403 1084 410 1104 q 383 1045 396 1064 q 351 1026 369 1026 z "},"Ở":{"ha":569,"x_min":28,"x_max":558,"o":"m 558 1053 q 540 973 560 1015 q 474 904 519 931 q 524 753 508 850 q 540 497 540 656 q 513 192 540 303 q 428 33 485 81 q 278 -14 372 -14 q 129 28 182 -14 q 52 178 76 69 q 28 492 28 286 q 56 786 28 678 q 142 940 85 894 q 293 986 200 986 q 385 974 346 986 q 426 1003 414 982 q 438 1058 438 1024 q 451 1067 438 1064 q 485 1071 465 1071 q 535 1066 513 1071 q 558 1053 558 1061 m 286 146 q 339 181 321 146 q 364 288 357 215 q 371 492 371 361 q 366 694 371 626 q 344 794 361 763 q 290 826 326 826 q 238 791 257 826 q 212 676 219 756 q 204 457 204 597 q 210 274 204 339 q 234 177 217 208 q 286 146 251 146 m 225 1013 q 224 1019 225 1014 q 224 1031 224 1024 q 228 1053 224 1046 q 251 1081 232 1061 q 274 1107 267 1094 q 282 1140 282 1119 q 226 1199 282 1199 q 172 1182 194 1199 l 172 1279 q 188 1292 172 1285 q 225 1299 204 1299 q 356 1259 317 1299 q 394 1161 394 1219 q 380 1101 394 1122 q 347 1066 365 1081 q 322 1047 328 1051 q 315 1030 317 1042 q 313 1014 313 1018 q 258 1011 310 1011 l 225 1013 z "},"Ỡ":{"ha":569,"x_min":28,"x_max":558,"o":"m 558 1053 q 540 973 560 1015 q 474 904 519 931 q 524 753 508 850 q 540 497 540 656 q 513 192 540 303 q 428 33 485 81 q 278 -14 372 -14 q 129 28 182 -14 q 52 178 76 69 q 28 492 28 286 q 56 786 28 678 q 142 940 85 894 q 293 986 200 986 q 385 974 346 986 q 426 1003 414 982 q 438 1058 438 1024 q 451 1067 438 1064 q 485 1071 465 1071 q 535 1066 513 1071 q 558 1053 558 1061 m 286 146 q 339 181 321 146 q 364 288 357 215 q 371 492 371 361 q 366 694 371 626 q 344 794 361 763 q 290 826 326 826 q 238 791 257 826 q 212 676 219 756 q 204 457 204 597 q 210 274 204 339 q 234 177 217 208 q 286 146 251 146 m 332 1036 q 294 1044 307 1036 q 268 1068 281 1053 q 248 1088 257 1082 q 222 1094 239 1094 q 171 1067 196 1094 q 147 1050 157 1050 q 112 1067 128 1050 q 86 1102 96 1083 q 74 1126 76 1121 q 158 1213 108 1183 q 249 1242 207 1242 q 281 1234 268 1242 q 308 1211 293 1226 q 335 1189 324 1196 q 363 1182 346 1182 q 398 1189 386 1182 q 422 1210 410 1196 q 433 1220 426 1215 q 446 1225 439 1225 q 469 1206 458 1225 q 488 1166 481 1186 q 496 1139 494 1146 q 469 1109 496 1136 q 407 1059 443 1082 q 332 1036 371 1036 z "},"Ő":{"ha":569,"x_min":28,"x_max":540,"o":"m 278 -14 q 129 28 182 -14 q 52 178 76 69 q 28 492 28 286 q 56 786 28 678 q 142 940 85 894 q 293 986 200 986 q 439 943 386 986 q 516 794 492 900 q 540 497 540 689 q 513 192 540 303 q 428 33 485 81 q 278 -14 372 -14 m 286 146 q 339 181 321 146 q 364 288 357 215 q 371 492 371 361 q 366 694 371 626 q 344 794 361 763 q 290 826 326 826 q 238 791 257 826 q 212 676 219 756 q 204 457 204 597 q 210 274 204 339 q 234 177 217 208 q 286 146 251 146 m 182 1026 q 145 1037 164 1022 q 114 1069 126 1051 q 99 1092 101 1086 q 162 1206 117 1139 q 219 1278 207 1274 q 271 1256 243 1283 q 318 1189 299 1228 q 249 1096 304 1160 q 182 1026 193 1032 m 375 1026 q 340 1037 358 1022 q 310 1069 322 1051 q 294 1092 297 1086 q 356 1206 313 1139 q 414 1278 400 1274 q 465 1255 438 1283 q 511 1189 493 1226 q 442 1095 497 1160 q 375 1026 388 1031 z "},"Ō":{"ha":569,"x_min":28,"x_max":540,"o":"m 278 -14 q 129 28 182 -14 q 52 178 76 69 q 28 492 28 286 q 56 786 28 678 q 142 940 85 894 q 293 986 200 986 q 439 943 386 986 q 516 794 492 900 q 540 497 540 689 q 513 192 540 303 q 428 33 485 81 q 278 -14 372 -14 m 286 146 q 339 181 321 146 q 364 288 357 215 q 371 492 371 361 q 366 694 371 626 q 344 794 361 763 q 290 826 326 826 q 238 791 257 826 q 212 676 219 756 q 204 457 204 597 q 210 274 204 339 q 234 177 217 208 q 286 146 251 146 m 100 1067 q 89 1135 89 1096 q 106 1190 89 1168 q 151 1211 122 1211 l 465 1211 q 481 1146 481 1181 q 465 1089 481 1111 q 422 1067 449 1067 l 100 1067 z "},"Ø":{"ha":583,"x_min":-7,"x_max":596,"o":"m 594 953 q 575 873 596 940 q 532 742 554 806 q 547 497 547 651 q 519 192 547 303 q 435 33 492 81 q 285 -14 379 -14 q 185 1 226 -14 q 117 49 144 15 l 88 -21 q 31 -8 61 -22 q -4 25 0 6 q 57 189 -7 36 q 35 492 35 296 q 63 787 35 679 q 147 940 90 894 q 296 986 203 986 q 396 971 354 986 q 467 919 438 956 q 483 961 472 932 q 499 999 493 990 q 527 994 506 999 q 570 979 549 989 q 594 953 592 969 m 211 372 l 349 797 q 294 828 331 828 q 244 792 263 828 q 219 677 226 757 q 211 457 211 597 l 211 372 m 279 146 q 332 167 311 146 q 365 265 353 189 q 378 492 378 340 l 378 579 q 278 276 344 474 l 240 163 q 279 146 254 146 z "},"Õ":{"ha":569,"x_min":28,"x_max":540,"o":"m 278 -14 q 129 28 182 -14 q 52 178 76 69 q 28 492 28 286 q 56 786 28 678 q 142 940 85 894 q 293 986 200 986 q 439 943 386 986 q 516 794 492 900 q 540 497 540 689 q 513 192 540 303 q 428 33 485 81 q 278 -14 372 -14 m 286 146 q 339 181 321 146 q 364 288 357 215 q 371 492 371 361 q 366 694 371 626 q 344 794 361 763 q 290 826 326 826 q 238 791 257 826 q 212 676 219 756 q 204 457 204 597 q 210 274 204 339 q 234 177 217 208 q 286 146 251 146 m 332 1036 q 294 1044 307 1036 q 268 1068 281 1053 q 248 1088 257 1082 q 222 1094 239 1094 q 171 1067 196 1094 q 147 1050 157 1050 q 112 1067 128 1050 q 86 1102 96 1083 q 74 1126 76 1121 q 158 1213 108 1183 q 249 1242 207 1242 q 281 1234 268 1242 q 308 1211 293 1226 q 335 1189 324 1196 q 363 1182 346 1182 q 398 1189 386 1182 q 422 1210 410 1196 q 433 1220 426 1215 q 446 1225 439 1225 q 469 1206 458 1225 q 488 1166 481 1186 q 496 1139 494 1146 q 469 1109 496 1136 q 407 1059 443 1082 q 332 1036 371 1036 z "},"Œ":{"ha":763,"x_min":21,"x_max":749,"o":"m 542 138 l 739 138 q 738 49 739 82 q 731 8 736 15 q 711 0 726 0 l 415 0 l 415 32 q 271 -11 363 -11 q 123 31 176 -11 q 45 181 69 74 q 21 489 21 289 q 49 782 21 674 q 133 938 76 890 q 282 985 190 985 q 417 950 367 985 q 443 972 421 972 l 749 972 q 747 886 749 919 q 740 844 746 853 q 721 835 735 835 l 542 835 l 542 597 l 711 597 q 710 512 711 546 q 703 467 708 478 q 685 456 699 456 l 542 456 l 542 138 m 279 139 q 332 175 314 139 q 357 286 350 211 q 364 492 364 361 q 358 699 364 628 q 335 804 353 769 q 281 839 318 839 q 231 801 249 839 q 205 680 213 763 q 197 457 197 597 q 203 272 197 339 q 227 172 210 206 q 279 139 244 139 z "},"P":{"ha":485,"x_min":42,"x_max":471,"o":"m 200 972 q 351 947 293 972 q 440 860 410 922 q 471 686 471 797 q 397 444 471 514 q 207 375 322 375 l 196 375 l 196 28 q 189 8 196 13 q 144 1 182 3 q 42 0 106 0 l 42 944 q 47 966 42 960 q 69 972 53 972 l 200 972 m 225 518 q 279 557 261 518 q 297 706 297 596 q 283 806 297 774 q 235 839 268 839 l 196 839 l 196 518 l 225 518 z "},"Þ":{"ha":485,"x_min":42,"x_max":471,"o":"m 42 935 q 50 959 42 951 q 79 969 58 967 q 147 972 100 972 l 196 972 l 196 792 l 200 792 q 351 767 293 792 q 440 679 410 742 q 471 506 471 617 q 397 264 471 333 q 207 194 322 194 l 196 194 l 196 28 q 188 8 196 13 q 142 1 179 3 q 42 0 104 0 l 42 935 m 225 336 q 279 376 261 336 q 297 525 297 415 q 283 626 297 593 q 235 658 268 658 q 196 654 210 658 l 196 342 q 204 339 197 342 q 225 336 211 336 z "},"Q":{"ha":569,"x_min":28,"x_max":581,"o":"m 560 -47 q 575 -86 569 -62 q 581 -128 581 -110 q 537 -182 581 -167 q 444 -197 493 -197 q 315 -153 364 -197 q 238 -12 265 -108 q 115 42 160 -4 q 49 195 69 89 q 28 492 28 301 q 56 786 28 678 q 142 940 85 894 q 293 986 200 986 q 439 943 386 986 q 516 794 492 900 q 540 497 540 689 q 509 178 540 292 q 411 21 478 65 q 433 -49 418 -28 q 476 -71 447 -71 q 560 -47 522 -71 m 290 826 q 238 791 257 826 q 212 676 219 756 q 204 457 204 597 q 210 274 204 339 q 234 177 217 208 q 286 146 251 146 q 339 181 321 146 q 364 288 357 215 q 371 492 371 361 q 366 694 371 626 q 344 794 361 763 q 290 826 326 826 z "},"R":{"ha":507,"x_min":42,"x_max":493,"o":"m 374 425 q 453 268 418 365 q 493 31 489 171 q 488 8 493 15 q 467 -1 483 1 q 413 -4 450 -4 q 322 0 375 -4 q 293 235 319 144 q 232 376 267 326 q 207 375 224 375 l 196 375 l 196 28 q 188 8 196 13 q 143 1 181 3 q 42 0 106 0 l 42 944 q 47 962 42 951 q 69 972 53 972 l 200 972 q 351 947 293 972 q 440 860 410 922 q 471 686 471 797 q 374 425 471 501 m 196 518 l 225 518 q 279 556 261 518 q 297 694 297 593 q 283 804 297 769 q 235 839 268 839 l 196 839 l 196 518 z "},"Ŕ":{"ha":507,"x_min":42,"x_max":493,"o":"m 374 425 q 453 268 418 365 q 493 31 489 171 q 488 8 493 15 q 467 -1 483 1 q 413 -4 450 -4 q 322 0 375 -4 q 293 235 319 144 q 232 376 267 326 q 207 375 224 375 l 196 375 l 196 28 q 188 8 196 13 q 143 1 181 3 q 42 0 106 0 l 42 944 q 47 962 42 951 q 69 972 53 972 l 200 972 q 351 947 293 972 q 440 860 410 922 q 471 686 471 797 q 374 425 471 501 m 196 518 l 225 518 q 279 556 261 518 q 297 694 297 593 q 283 804 297 769 q 235 839 268 839 l 196 839 l 196 518 m 174 1040 q 142 1059 156 1040 q 122 1098 129 1078 q 114 1125 115 1118 q 176 1194 136 1156 q 251 1260 215 1232 q 296 1289 288 1289 q 340 1253 319 1289 q 367 1175 360 1218 q 265 1094 343 1147 q 174 1040 186 1042 z "},"Ř":{"ha":507,"x_min":42,"x_max":493,"o":"m 374 425 q 453 268 418 365 q 493 31 489 171 q 488 8 493 15 q 467 -1 483 1 q 413 -4 450 -4 q 322 0 375 -4 q 293 235 319 144 q 232 376 267 326 q 207 375 224 375 l 196 375 l 196 28 q 188 8 196 13 q 143 1 181 3 q 42 0 106 0 l 42 944 q 47 962 42 951 q 69 972 53 972 l 200 972 q 351 947 293 972 q 440 860 410 922 q 471 686 471 797 q 374 425 471 501 m 196 518 l 225 518 q 279 556 261 518 q 297 694 297 593 q 283 804 297 769 q 235 839 268 839 l 196 839 l 196 518 m 235 1031 q 151 1087 213 1031 q 63 1181 89 1143 q 95 1247 75 1217 q 131 1278 115 1278 q 169 1255 144 1278 q 215 1207 193 1232 q 242 1174 236 1182 q 283 1228 263 1207 q 315 1258 303 1249 q 331 1269 328 1268 q 375 1237 358 1254 q 392 1203 392 1219 q 358 1144 392 1186 q 286 1067 325 1103 q 235 1031 247 1031 z "},"Ŗ":{"ha":507,"x_min":42,"x_max":493,"o":"m 374 425 q 453 268 418 365 q 493 31 489 171 q 488 8 493 15 q 467 -1 483 1 q 413 -4 450 -4 q 322 0 375 -4 q 293 235 319 144 q 232 376 267 326 q 207 375 224 375 l 196 375 l 196 28 q 188 8 196 13 q 143 1 181 3 q 42 0 106 0 l 42 944 q 47 962 42 951 q 69 972 53 972 l 200 972 q 351 947 293 972 q 440 860 410 922 q 471 686 471 797 q 374 425 471 501 m 196 518 l 225 518 q 279 556 261 518 q 297 694 297 593 q 283 804 297 769 q 235 839 268 839 l 196 839 l 196 518 m 219 -386 q 181 -378 196 -386 q 161 -346 167 -369 q 188 -292 183 -310 q 199 -242 193 -275 q 168 -209 176 -229 q 160 -158 160 -189 q 185 -95 160 -121 q 249 -69 211 -69 q 322 -95 296 -69 q 347 -169 347 -121 q 323 -273 347 -224 q 267 -354 299 -322 q 219 -386 236 -386 z "},"S":{"ha":478,"x_min":21,"x_max":457,"o":"m 204 -14 q 69 13 115 -14 q 22 79 22 40 q 31 134 22 104 q 57 190 40 164 q 115 157 79 169 q 186 144 150 144 q 265 172 242 144 q 289 253 289 200 q 276 321 289 289 q 226 401 263 353 l 100 569 q 38 676 54 629 q 21 774 21 724 q 85 928 21 871 q 268 986 149 986 q 413 967 369 986 q 457 908 457 947 q 421 822 457 863 q 372 841 408 832 q 300 850 336 850 q 218 832 247 850 q 189 778 189 814 q 200 719 189 746 q 240 654 211 693 l 374 483 q 440 370 422 421 q 457 257 457 319 q 400 61 457 136 q 204 -14 343 -14 z "},"Ś":{"ha":478,"x_min":21,"x_max":457,"o":"m 204 -14 q 69 13 115 -14 q 22 79 22 40 q 31 134 22 104 q 57 190 40 164 q 115 157 79 169 q 186 144 150 144 q 265 172 242 144 q 289 253 289 200 q 276 321 289 289 q 226 401 263 353 l 100 569 q 38 676 54 629 q 21 774 21 724 q 85 928 21 871 q 268 986 149 986 q 413 967 369 986 q 457 908 457 947 q 421 822 457 863 q 372 841 408 832 q 300 850 336 850 q 218 832 247 850 q 189 778 189 814 q 200 719 189 746 q 240 654 211 693 l 374 483 q 440 370 422 421 q 457 257 457 319 q 400 61 457 136 q 204 -14 343 -14 m 186 1040 q 155 1059 168 1040 q 135 1098 142 1078 q 126 1125 128 1118 q 188 1194 149 1156 q 264 1260 228 1232 q 308 1289 300 1289 q 352 1253 332 1289 q 379 1175 372 1218 q 277 1094 356 1147 q 186 1040 199 1042 z "},"Š":{"ha":478,"x_min":21,"x_max":457,"o":"m 204 -14 q 69 13 115 -14 q 22 79 22 40 q 31 134 22 104 q 57 190 40 164 q 115 157 79 169 q 186 144 150 144 q 265 172 242 144 q 289 253 289 200 q 276 321 289 289 q 226 401 263 353 l 100 569 q 38 676 54 629 q 21 774 21 724 q 85 928 21 871 q 268 986 149 986 q 413 967 369 986 q 457 908 457 947 q 421 822 457 863 q 372 841 408 832 q 300 850 336 850 q 218 832 247 850 q 189 778 189 814 q 200 719 189 746 q 240 654 211 693 l 374 483 q 440 370 422 421 q 457 257 457 319 q 400 61 457 136 q 204 -14 343 -14 m 247 1031 q 163 1087 225 1031 q 75 1181 101 1143 q 108 1247 88 1217 q 143 1278 128 1278 q 181 1255 157 1278 q 227 1207 206 1232 q 254 1174 249 1182 q 295 1228 275 1207 q 328 1258 315 1249 q 343 1269 340 1268 q 388 1237 371 1254 q 404 1203 404 1219 q 371 1144 404 1186 q 299 1067 338 1103 q 247 1031 260 1031 z "},"Ş":{"ha":478,"x_min":21,"x_max":457,"o":"m 374 483 q 440 370 422 421 q 457 257 457 319 q 413 79 457 151 q 263 -10 368 7 l 250 -79 l 272 -79 q 322 -104 301 -79 q 343 -178 343 -129 q 309 -269 343 -232 q 218 -307 275 -307 q 178 -302 197 -307 q 149 -292 160 -297 q 135 -286 138 -287 q 144 -249 136 -276 q 157 -215 151 -221 q 174 -217 161 -211 q 197 -228 186 -224 q 221 -233 207 -233 q 260 -189 260 -233 q 251 -156 260 -167 q 224 -144 243 -144 q 181 -148 197 -144 q 161 -153 165 -151 l 185 -14 q 64 15 106 -11 q 22 79 22 42 q 31 134 22 104 q 57 190 40 164 q 115 157 79 169 q 186 144 150 144 q 265 172 242 144 q 289 253 289 200 q 276 321 289 289 q 226 401 263 353 l 100 569 q 38 676 54 629 q 21 774 21 724 q 85 928 21 871 q 268 986 149 986 q 413 967 369 986 q 457 908 457 947 q 421 822 457 863 q 372 841 408 832 q 300 850 336 850 q 218 832 247 850 q 189 778 189 814 q 200 719 189 746 q 240 654 211 693 l 374 483 z "},"Ș":{"ha":478,"x_min":21,"x_max":457,"o":"m 204 -14 q 69 13 115 -14 q 22 79 22 40 q 31 134 22 104 q 57 190 40 164 q 115 157 79 169 q 186 144 150 144 q 265 172 242 144 q 289 253 289 200 q 276 321 289 289 q 226 401 263 353 l 100 569 q 38 676 54 629 q 21 774 21 724 q 85 928 21 871 q 268 986 149 986 q 413 967 369 986 q 457 908 457 947 q 421 822 457 863 q 372 841 408 832 q 300 850 336 850 q 218 832 247 850 q 189 778 189 814 q 200 719 189 746 q 240 654 211 693 l 374 483 q 440 370 422 421 q 457 257 457 319 q 400 61 457 136 q 204 -14 343 -14 m 204 -386 q 166 -378 181 -386 q 146 -346 151 -369 q 173 -292 168 -310 q 183 -242 178 -275 q 153 -209 161 -229 q 144 -158 144 -189 q 170 -95 144 -121 q 233 -69 196 -69 q 306 -95 281 -69 q 332 -169 332 -121 q 308 -273 332 -224 q 252 -354 283 -322 q 204 -386 221 -386 z "},"T":{"ha":528,"x_min":14,"x_max":514,"o":"m 514 972 l 514 856 q 508 833 514 839 q 486 828 501 828 l 338 828 l 338 28 q 330 8 338 13 q 285 1 322 3 q 183 0 247 0 l 183 828 l 14 828 l 14 944 q 42 972 14 972 l 514 972 z "},"Ť":{"ha":528,"x_min":14,"x_max":514,"o":"m 514 972 l 514 856 q 508 833 514 839 q 486 828 501 828 l 338 828 l 338 28 q 330 8 338 13 q 285 1 322 3 q 183 0 247 0 l 183 828 l 14 828 l 14 944 q 42 972 14 972 l 514 972 m 272 1031 q 188 1087 250 1031 q 100 1181 126 1143 q 133 1247 113 1217 q 168 1278 153 1278 q 206 1255 182 1278 q 252 1207 231 1232 q 279 1174 274 1182 q 320 1228 300 1207 q 353 1258 340 1249 q 368 1269 365 1268 q 413 1237 396 1254 q 429 1203 429 1219 q 396 1144 429 1186 q 324 1067 363 1103 q 272 1031 285 1031 z "},"Ţ":{"ha":528,"x_min":14,"x_max":514,"o":"m 514 972 l 514 856 q 508 833 514 839 q 486 828 501 828 l 338 828 l 338 28 q 330 8 338 13 q 290 1 322 3 l 275 -79 l 297 -79 q 347 -104 326 -79 q 368 -178 368 -129 q 334 -269 368 -232 q 243 -307 300 -307 q 203 -302 222 -307 q 174 -292 185 -297 q 160 -286 163 -287 q 169 -249 161 -276 q 182 -215 176 -221 q 199 -217 186 -211 q 222 -228 211 -224 q 246 -233 232 -233 q 285 -189 285 -233 q 276 -156 285 -167 q 249 -144 268 -144 q 206 -148 222 -144 q 186 -153 190 -151 l 213 0 l 183 0 l 183 828 l 14 828 l 14 944 q 42 972 14 972 l 514 972 z "},"Ț":{"ha":528,"x_min":14,"x_max":514,"o":"m 514 972 l 514 856 q 508 833 514 839 q 486 828 501 828 l 338 828 l 338 28 q 330 8 338 13 q 285 1 322 3 q 183 0 247 0 l 183 828 l 14 828 l 14 944 q 42 972 14 972 l 514 972 m 229 -386 q 191 -378 206 -386 q 171 -346 176 -369 q 198 -292 193 -310 q 208 -242 203 -275 q 178 -209 186 -229 q 169 -158 169 -189 q 195 -95 169 -121 q 258 -69 221 -69 q 331 -95 306 -69 q 357 -169 357 -121 q 333 -273 357 -224 q 277 -354 308 -322 q 229 -386 246 -386 z "},"U":{"ha":572,"x_min":42,"x_max":529,"o":"m 290 -14 q 133 22 188 -14 q 60 118 78 58 q 42 267 42 178 l 42 943 q 49 965 42 960 q 84 971 56 969 q 201 972 113 972 l 201 261 q 219 158 201 189 q 290 128 238 128 q 372 144 342 128 l 372 943 q 379 965 372 960 q 414 971 386 969 q 529 972 442 972 l 529 39 q 435 3 499 19 q 290 -14 371 -14 z "},"Ú":{"ha":572,"x_min":42,"x_max":529,"o":"m 290 -14 q 133 22 188 -14 q 60 118 78 58 q 42 267 42 178 l 42 943 q 49 965 42 960 q 84 971 56 969 q 201 972 113 972 l 201 261 q 219 158 201 189 q 290 128 238 128 q 372 144 342 128 l 372 943 q 379 965 372 960 q 414 971 386 969 q 529 972 442 972 l 529 39 q 435 3 499 19 q 290 -14 371 -14 m 233 1040 q 202 1059 215 1040 q 182 1098 189 1078 q 174 1125 175 1118 q 235 1194 196 1156 q 311 1260 275 1232 q 356 1289 347 1289 q 399 1253 379 1289 q 426 1175 419 1218 q 324 1094 403 1147 q 233 1040 246 1042 z "},"Û":{"ha":572,"x_min":42,"x_max":529,"o":"m 290 -14 q 133 22 188 -14 q 60 118 78 58 q 42 267 42 178 l 42 943 q 49 965 42 960 q 84 971 56 969 q 201 972 113 972 l 201 261 q 219 158 201 189 q 290 128 238 128 q 372 144 342 128 l 372 943 q 379 965 372 960 q 414 971 386 969 q 529 972 442 972 l 529 39 q 435 3 499 19 q 290 -14 371 -14 m 365 1042 q 349 1058 361 1044 q 320 1092 336 1071 q 292 1138 304 1114 q 273 1108 288 1131 q 239 1064 258 1085 q 204 1043 219 1043 q 100 1083 132 1043 l 263 1269 q 293 1274 276 1274 q 336 1254 318 1274 q 378 1209 346 1244 q 442 1135 411 1174 q 472 1079 472 1096 q 365 1042 472 1042 z "},"Ü":{"ha":572,"x_min":42,"x_max":529,"o":"m 290 -14 q 133 22 188 -14 q 60 118 78 58 q 42 267 42 178 l 42 943 q 49 965 42 960 q 84 971 56 969 q 201 972 113 972 l 201 261 q 219 158 201 189 q 290 128 238 128 q 372 144 342 128 l 372 943 q 379 965 372 960 q 414 971 386 969 q 529 972 442 972 l 529 39 q 435 3 499 19 q 290 -14 371 -14 m 192 1042 q 139 1065 157 1042 q 121 1147 121 1089 q 141 1222 121 1194 q 201 1250 161 1250 q 257 1229 242 1250 q 272 1154 272 1208 q 251 1071 272 1100 q 192 1042 231 1042 m 372 1042 q 318 1065 336 1042 q 300 1147 300 1089 q 321 1222 300 1194 q 382 1250 342 1250 q 435 1229 421 1250 q 450 1154 450 1208 q 430 1071 450 1100 q 372 1042 410 1042 z "},"Ụ":{"ha":572,"x_min":42,"x_max":529,"o":"m 290 -14 q 133 22 188 -14 q 60 118 78 58 q 42 267 42 178 l 42 943 q 49 965 42 960 q 84 971 56 969 q 201 972 113 972 l 201 261 q 219 158 201 189 q 290 128 238 128 q 372 144 342 128 l 372 943 q 379 965 372 960 q 414 971 386 969 q 529 972 442 972 l 529 39 q 435 3 499 19 q 290 -14 371 -14 m 283 -272 q 238 -251 253 -272 q 222 -179 222 -231 q 240 -114 222 -137 q 292 -90 257 -90 q 338 -109 325 -90 q 351 -174 351 -128 q 334 -247 351 -221 q 283 -272 317 -272 z "},"Ù":{"ha":572,"x_min":42,"x_max":529,"o":"m 290 -14 q 133 22 188 -14 q 60 118 78 58 q 42 267 42 178 l 42 943 q 49 965 42 960 q 84 971 56 969 q 201 972 113 972 l 201 261 q 219 158 201 189 q 290 128 238 128 q 372 144 342 128 l 372 943 q 379 965 372 960 q 414 971 386 969 q 529 972 442 972 l 529 39 q 435 3 499 19 q 290 -14 371 -14 m 367 1026 q 276 1081 353 1028 q 174 1163 199 1135 q 201 1240 181 1204 q 244 1275 221 1275 q 325 1216 257 1275 q 426 1111 393 1157 q 418 1084 425 1104 q 398 1045 411 1064 q 367 1026 385 1026 z "},"Ủ":{"ha":572,"x_min":42,"x_max":529,"o":"m 290 -14 q 133 22 188 -14 q 60 118 78 58 q 42 267 42 178 l 42 943 q 49 965 42 960 q 84 971 56 969 q 201 972 113 972 l 201 261 q 219 158 201 189 q 290 128 238 128 q 372 144 342 128 l 372 943 q 379 965 372 960 q 414 971 386 969 q 529 972 442 972 l 529 39 q 435 3 499 19 q 290 -14 371 -14 m 226 1013 q 226 1019 226 1014 q 225 1031 225 1024 q 229 1053 225 1046 q 253 1081 233 1061 q 276 1107 268 1094 q 283 1140 283 1119 q 228 1199 283 1199 q 174 1182 196 1199 l 174 1279 q 190 1292 174 1285 q 226 1299 206 1299 q 357 1259 318 1299 q 396 1161 396 1219 q 381 1101 396 1122 q 348 1066 367 1081 q 324 1047 329 1051 q 316 1030 318 1042 q 314 1014 314 1018 q 260 1011 311 1011 l 226 1013 z "},"Ư":{"ha":572,"x_min":42,"x_max":619,"o":"m 618 1053 q 599 972 619 1014 q 529 901 578 929 l 529 39 q 435 3 499 19 q 290 -14 371 -14 q 133 22 188 -14 q 60 118 78 58 q 42 267 42 178 l 42 943 q 49 965 42 960 q 84 971 56 969 q 201 972 113 972 l 201 261 q 219 158 201 189 q 290 128 238 128 q 372 144 342 128 l 372 943 q 376 961 372 956 q 393 969 379 967 q 440 972 407 972 q 485 1001 472 979 q 497 1058 497 1022 q 511 1067 497 1064 q 544 1071 525 1071 q 595 1066 572 1071 q 618 1053 618 1061 z "},"Ứ":{"ha":572,"x_min":42,"x_max":618,"o":"m 618 1053 q 599 972 619 1014 q 529 901 578 929 l 529 39 q 435 3 499 19 q 290 -14 371 -14 q 133 22 188 -14 q 60 118 78 58 q 42 267 42 178 l 42 943 q 49 965 42 960 q 84 971 56 969 q 201 972 113 972 l 201 261 q 219 158 201 189 q 290 128 238 128 q 372 144 342 128 l 372 943 q 376 961 372 956 q 393 969 379 967 q 440 972 407 972 q 485 1001 472 979 q 497 1058 497 1022 q 511 1067 497 1064 q 544 1071 525 1071 q 595 1066 572 1071 q 618 1053 618 1061 m 219 1040 q 188 1059 201 1040 q 168 1098 175 1078 q 160 1125 161 1118 q 222 1194 182 1156 q 297 1260 261 1232 q 342 1289 333 1289 q 385 1253 365 1289 q 413 1175 406 1218 q 310 1094 389 1147 q 219 1040 232 1042 z "},"Ự":{"ha":572,"x_min":42,"x_max":618,"o":"m 618 1053 q 599 972 619 1014 q 529 901 578 929 l 529 39 q 435 3 499 19 q 290 -14 371 -14 q 133 22 188 -14 q 60 118 78 58 q 42 267 42 178 l 42 943 q 49 965 42 960 q 84 971 56 969 q 201 972 113 972 l 201 261 q 219 158 201 189 q 290 128 238 128 q 372 144 342 128 l 372 943 q 376 961 372 956 q 393 969 379 967 q 440 972 407 972 q 485 1001 472 979 q 497 1058 497 1022 q 511 1067 497 1064 q 544 1071 525 1071 q 595 1066 572 1071 q 618 1053 618 1061 m 283 -272 q 238 -251 253 -272 q 222 -179 222 -231 q 240 -114 222 -137 q 292 -90 257 -90 q 338 -109 325 -90 q 351 -174 351 -128 q 334 -247 351 -221 q 283 -272 317 -272 z "},"Ừ":{"ha":572,"x_min":42,"x_max":618,"o":"m 618 1053 q 599 972 619 1014 q 529 901 578 929 l 529 39 q 435 3 499 19 q 290 -14 371 -14 q 133 22 188 -14 q 60 118 78 58 q 42 267 42 178 l 42 943 q 49 965 42 960 q 84 971 56 969 q 201 972 113 972 l 201 261 q 219 158 201 189 q 290 128 238 128 q 372 144 342 128 l 372 943 q 376 961 372 956 q 393 969 379 967 q 440 972 407 972 q 485 1001 472 979 q 497 1058 497 1022 q 511 1067 497 1064 q 544 1071 525 1071 q 595 1066 572 1071 q 618 1053 618 1061 m 353 1026 q 262 1081 339 1028 q 160 1163 185 1135 q 187 1240 167 1204 q 231 1275 207 1275 q 311 1216 243 1275 q 413 1111 379 1157 q 404 1084 411 1104 q 384 1045 397 1064 q 353 1026 371 1026 z "},"Ử":{"ha":572,"x_min":42,"x_max":618,"o":"m 618 1053 q 599 972 619 1014 q 529 901 578 929 l 529 39 q 435 3 499 19 q 290 -14 371 -14 q 133 22 188 -14 q 60 118 78 58 q 42 267 42 178 l 42 943 q 49 965 42 960 q 84 971 56 969 q 201 972 113 972 l 201 261 q 219 158 201 189 q 290 128 238 128 q 372 144 342 128 l 372 943 q 376 961 372 956 q 393 969 379 967 q 440 972 407 972 q 485 1001 472 979 q 497 1058 497 1022 q 511 1067 497 1064 q 544 1071 525 1071 q 595 1066 572 1071 q 618 1053 618 1061 m 226 1013 q 226 1019 226 1014 q 225 1031 225 1024 q 229 1053 225 1046 q 253 1081 233 1061 q 276 1107 268 1094 q 283 1140 283 1119 q 228 1199 283 1199 q 174 1182 196 1199 l 174 1279 q 190 1292 174 1285 q 226 1299 206 1299 q 357 1259 318 1299 q 396 1161 396 1219 q 381 1101 396 1122 q 348 1066 367 1081 q 324 1047 329 1051 q 316 1030 318 1042 q 314 1014 314 1018 q 260 1011 311 1011 l 226 1013 z "},"Ữ":{"ha":572,"x_min":42,"x_max":618,"o":"m 618 1053 q 599 972 619 1014 q 529 901 578 929 l 529 39 q 435 3 499 19 q 290 -14 371 -14 q 133 22 188 -14 q 60 118 78 58 q 42 267 42 178 l 42 943 q 49 965 42 960 q 84 971 56 969 q 201 972 113 972 l 201 261 q 219 158 201 189 q 290 128 238 128 q 372 144 342 128 l 372 943 q 376 961 372 956 q 393 969 379 967 q 440 972 407 972 q 485 1001 472 979 q 497 1058 497 1022 q 511 1067 497 1064 q 544 1071 525 1071 q 595 1066 572 1071 q 618 1053 618 1061 m 333 1036 q 295 1044 308 1036 q 269 1068 282 1053 q 249 1088 258 1082 q 224 1094 240 1094 q 172 1067 197 1094 q 149 1050 158 1050 q 113 1067 129 1050 q 88 1102 97 1083 q 75 1126 78 1121 q 159 1213 110 1183 q 250 1242 208 1242 q 282 1234 269 1242 q 310 1211 294 1226 q 336 1189 325 1196 q 364 1182 347 1182 q 399 1189 388 1182 q 424 1210 411 1196 q 434 1220 428 1215 q 447 1225 440 1225 q 471 1206 460 1225 q 489 1166 482 1186 q 497 1139 496 1146 q 471 1109 497 1136 q 408 1059 444 1082 q 333 1036 372 1036 z "},"Ű":{"ha":572,"x_min":42,"x_max":529,"o":"m 290 -14 q 133 22 188 -14 q 60 118 78 58 q 42 267 42 178 l 42 943 q 49 965 42 960 q 84 971 56 969 q 201 972 113 972 l 201 261 q 219 158 201 189 q 290 128 238 128 q 372 144 342 128 l 372 943 q 379 965 372 960 q 414 971 386 969 q 529 972 442 972 l 529 39 q 435 3 499 19 q 290 -14 371 -14 m 183 1026 q 147 1037 165 1022 q 115 1069 128 1051 q 100 1092 103 1086 q 163 1206 118 1139 q 221 1278 208 1274 q 272 1256 244 1283 q 319 1189 300 1228 q 250 1096 306 1160 q 183 1026 194 1032 m 376 1026 q 342 1037 360 1022 q 311 1069 324 1051 q 296 1092 299 1086 q 358 1206 314 1139 q 415 1278 401 1274 q 467 1255 439 1283 q 513 1189 494 1226 q 444 1095 499 1160 q 376 1026 389 1031 z "},"Ū":{"ha":572,"x_min":42,"x_max":529,"o":"m 290 -14 q 133 22 188 -14 q 60 118 78 58 q 42 267 42 178 l 42 943 q 49 965 42 960 q 84 971 56 969 q 201 972 113 972 l 201 261 q 219 158 201 189 q 290 128 238 128 q 372 144 342 128 l 372 943 q 379 965 372 960 q 414 971 386 969 q 529 972 442 972 l 529 39 q 435 3 499 19 q 290 -14 371 -14 m 101 1067 q 90 1135 90 1096 q 107 1190 90 1168 q 153 1211 124 1211 l 467 1211 q 482 1146 482 1181 q 466 1089 482 1111 q 424 1067 450 1067 l 101 1067 z "},"Ų":{"ha":572,"x_min":42,"x_max":529,"o":"m 425 -271 q 301 -147 301 -271 q 350 -11 301 -85 q 290 -14 314 -14 q 133 22 188 -14 q 60 118 78 58 q 42 267 42 178 l 42 943 q 49 965 42 960 q 84 971 56 969 q 201 972 113 972 l 201 261 q 219 158 201 189 q 290 128 238 128 q 372 144 342 128 l 372 943 q 379 965 372 960 q 414 971 386 969 q 529 972 442 972 l 529 39 q 463 -44 489 3 q 438 -125 438 -90 q 446 -154 438 -144 q 472 -164 454 -164 q 507 -154 493 -164 q 518 -185 514 -168 q 522 -214 522 -203 q 425 -271 522 -271 z "},"Ů":{"ha":572,"x_min":42,"x_max":529,"o":"m 290 -14 q 133 22 188 -14 q 60 118 78 58 q 42 267 42 178 l 42 943 q 49 965 42 960 q 84 971 56 969 q 201 972 113 972 l 201 261 q 219 158 201 189 q 290 128 238 128 q 372 144 342 128 l 372 943 q 379 965 372 960 q 414 971 386 969 q 529 972 442 972 l 529 39 q 435 3 499 19 q 290 -14 371 -14 m 283 1013 q 176 1044 210 1013 q 142 1157 142 1075 q 292 1303 142 1303 q 399 1272 367 1303 q 432 1160 432 1240 q 283 1013 432 1013 m 286 1113 q 328 1158 328 1113 q 292 1203 328 1203 q 247 1157 247 1203 q 286 1113 247 1113 z "},"Ũ":{"ha":572,"x_min":42,"x_max":529,"o":"m 290 -14 q 133 22 188 -14 q 60 118 78 58 q 42 267 42 178 l 42 943 q 49 965 42 960 q 84 971 56 969 q 201 972 113 972 l 201 261 q 219 158 201 189 q 290 128 238 128 q 372 144 342 128 l 372 943 q 379 965 372 960 q 414 971 386 969 q 529 972 442 972 l 529 39 q 435 3 499 19 q 290 -14 371 -14 m 333 1036 q 295 1044 308 1036 q 269 1068 282 1053 q 249 1088 258 1082 q 224 1094 240 1094 q 172 1067 197 1094 q 149 1050 158 1050 q 113 1067 129 1050 q 88 1102 97 1083 q 75 1126 78 1121 q 159 1213 110 1183 q 250 1242 208 1242 q 282 1234 269 1242 q 310 1211 294 1226 q 336 1189 325 1196 q 364 1182 347 1182 q 399 1189 388 1182 q 424 1210 411 1196 q 434 1220 428 1215 q 447 1225 440 1225 q 471 1206 460 1225 q 489 1166 482 1186 q 497 1139 496 1146 q 471 1109 497 1136 q 408 1059 444 1082 q 333 1036 372 1036 z "},"V":{"ha":583,"x_min":7,"x_max":576,"o":"m 257 -8 q 171 74 189 -8 q 84 520 140 211 q 10 932 28 829 q 7 953 7 949 q 15 968 7 964 q 44 972 24 972 l 174 972 l 244 517 q 296 126 265 382 q 342 517 315 346 l 403 931 q 413 963 406 954 q 440 972 421 972 l 576 972 l 392 0 q 257 -8 324 -8 z "},"W":{"ha":928,"x_min":8,"x_max":921,"o":"m 921 972 l 754 0 q 686 -6 715 -4 q 619 -8 657 -8 q 565 14 585 -8 q 538 79 546 36 l 506 233 q 460 590 485 338 q 417 233 433 335 l 378 0 q 231 -7 310 -7 q 183 17 201 -7 q 156 79 164 40 q 76 525 126 219 q 10 932 26 831 q 8 950 8 939 q 16 967 8 963 q 44 972 24 972 l 174 972 l 243 517 q 282 157 272 329 l 293 157 q 328 517 297 326 l 388 889 q 397 922 390 913 q 425 931 404 931 l 533 931 l 606 517 q 646 157 629 381 l 657 157 q 690 517 664 335 l 750 931 q 760 963 753 954 q 786 972 767 972 l 921 972 z "},"Ẃ":{"ha":928,"x_min":8,"x_max":921,"o":"m 921 972 l 754 0 q 686 -6 715 -4 q 619 -8 657 -8 q 565 14 585 -8 q 538 79 546 36 l 506 233 q 460 590 485 338 q 417 233 433 335 l 378 0 q 231 -7 310 -7 q 183 17 201 -7 q 156 79 164 40 q 76 525 126 219 q 10 932 26 831 q 8 950 8 939 q 16 967 8 963 q 44 972 24 972 l 174 972 l 243 517 q 282 157 272 329 l 293 157 q 328 517 297 326 l 388 889 q 397 922 390 913 q 425 931 404 931 l 533 931 l 606 517 q 646 157 629 381 l 657 157 q 690 517 664 335 l 750 931 q 760 963 753 954 q 786 972 767 972 l 921 972 m 411 1040 q 380 1059 393 1040 q 360 1098 367 1078 q 351 1125 353 1118 q 413 1194 374 1156 q 489 1260 453 1232 q 533 1289 525 1289 q 577 1253 557 1289 q 604 1175 597 1218 q 502 1094 581 1147 q 411 1040 424 1042 z "},"Ŵ":{"ha":928,"x_min":8,"x_max":921,"o":"m 921 972 l 754 0 q 686 -6 715 -4 q 619 -8 657 -8 q 565 14 585 -8 q 538 79 546 36 l 506 233 q 460 590 485 338 q 417 233 433 335 l 378 0 q 231 -7 310 -7 q 183 17 201 -7 q 156 79 164 40 q 76 525 126 219 q 10 932 26 831 q 8 950 8 939 q 16 967 8 963 q 44 972 24 972 l 174 972 l 243 517 q 282 157 272 329 l 293 157 q 328 517 297 326 l 388 889 q 397 922 390 913 q 425 931 404 931 l 533 931 l 606 517 q 646 157 629 381 l 657 157 q 690 517 664 335 l 750 931 q 760 963 753 954 q 786 972 767 972 l 921 972 m 543 1042 q 526 1058 539 1044 q 498 1092 514 1071 q 469 1138 482 1114 q 451 1108 465 1131 q 417 1064 436 1085 q 382 1043 397 1043 q 278 1083 310 1043 l 440 1269 q 471 1274 454 1274 q 514 1254 496 1274 q 556 1209 524 1244 q 619 1135 589 1174 q 650 1079 650 1096 q 543 1042 650 1042 z "},"Ẅ":{"ha":928,"x_min":8,"x_max":921,"o":"m 921 972 l 754 0 q 686 -6 715 -4 q 619 -8 657 -8 q 565 14 585 -8 q 538 79 546 36 l 506 233 q 460 590 485 338 q 417 233 433 335 l 378 0 q 231 -7 310 -7 q 183 17 201 -7 q 156 79 164 40 q 76 525 126 219 q 10 932 26 831 q 8 950 8 939 q 16 967 8 963 q 44 972 24 972 l 174 972 l 243 517 q 282 157 272 329 l 293 157 q 328 517 297 326 l 388 889 q 397 922 390 913 q 425 931 404 931 l 533 931 l 606 517 q 646 157 629 381 l 657 157 q 690 517 664 335 l 750 931 q 760 963 753 954 q 786 972 767 972 l 921 972 m 369 1042 q 317 1065 335 1042 q 299 1147 299 1089 q 319 1222 299 1194 q 379 1250 339 1250 q 435 1229 419 1250 q 450 1154 450 1208 q 429 1071 450 1100 q 369 1042 408 1042 m 550 1042 q 496 1065 514 1042 q 478 1147 478 1089 q 499 1222 478 1194 q 560 1250 519 1250 q 613 1229 599 1250 q 628 1154 628 1208 q 608 1071 628 1100 q 550 1042 588 1042 z "},"Ẁ":{"ha":928,"x_min":8,"x_max":921,"o":"m 921 972 l 754 0 q 686 -6 715 -4 q 619 -8 657 -8 q 565 14 585 -8 q 538 79 546 36 l 506 233 q 460 590 485 338 q 417 233 433 335 l 378 0 q 231 -7 310 -7 q 183 17 201 -7 q 156 79 164 40 q 76 525 126 219 q 10 932 26 831 q 8 950 8 939 q 16 967 8 963 q 44 972 24 972 l 174 972 l 243 517 q 282 157 272 329 l 293 157 q 328 517 297 326 l 388 889 q 397 922 390 913 q 425 931 404 931 l 533 931 l 606 517 q 646 157 629 381 l 657 157 q 690 517 664 335 l 750 931 q 760 963 753 954 q 786 972 767 972 l 921 972 m 544 1026 q 453 1081 531 1028 q 351 1163 376 1135 q 378 1240 358 1204 q 422 1275 399 1275 q 503 1216 435 1275 q 604 1111 571 1157 q 596 1084 603 1104 q 576 1045 589 1064 q 544 1026 563 1026 z "},"X":{"ha":585,"x_min":10,"x_max":571,"o":"m 568 22 q 571 11 571 18 q 553 0 571 0 l 382 0 l 329 163 q 292 290 317 201 l 281 329 q 229 163 257 235 l 175 19 q 163 4 169 8 q 143 0 156 0 l 10 0 l 199 499 l 47 946 q 52 965 43 960 q 108 971 61 969 q 232 972 156 972 l 272 826 q 311 665 293 751 q 351 826 331 757 l 388 947 q 400 965 392 961 q 447 971 408 969 q 551 972 485 972 l 396 517 l 568 22 z "},"Y":{"ha":511,"x_min":4,"x_max":506,"o":"m 336 28 q 330 8 336 13 q 285 1 324 3 q 182 0 247 0 l 182 400 l 8 949 q 12 965 4 961 q 64 971 19 969 q 185 972 108 972 l 225 790 q 249 657 236 742 q 265 522 261 572 q 283 656 269 571 q 307 792 296 742 l 340 944 q 353 965 344 960 q 401 971 363 969 q 506 972 439 972 l 336 406 l 336 28 z "},"Ý":{"ha":511,"x_min":7,"x_max":506,"o":"m 336 28 q 330 8 336 13 q 285 1 324 3 q 182 0 247 0 l 182 400 l 8 949 q 12 965 4 961 q 64 971 19 969 q 185 972 108 972 l 225 790 q 249 657 236 742 q 265 522 261 572 q 283 656 269 571 q 307 792 296 742 l 340 944 q 353 965 344 960 q 401 971 363 969 q 506 972 439 972 l 336 406 l 336 28 m 203 1040 q 172 1059 185 1040 q 151 1098 158 1078 q 143 1125 144 1118 q 205 1194 165 1156 q 281 1260 244 1232 q 325 1289 317 1289 q 369 1253 349 1289 q 396 1175 389 1218 q 294 1094 372 1147 q 203 1040 215 1042 z "},"Ŷ":{"ha":511,"x_min":7,"x_max":506,"o":"m 336 28 q 330 8 336 13 q 285 1 324 3 q 182 0 247 0 l 182 400 l 8 949 q 12 965 4 961 q 64 971 19 969 q 185 972 108 972 l 225 790 q 249 657 236 742 q 265 522 261 572 q 283 656 269 571 q 307 792 296 742 l 340 944 q 353 965 344 960 q 401 971 363 969 q 506 972 439 972 l 336 406 l 336 28 m 335 1042 q 318 1058 331 1044 q 290 1092 306 1071 q 261 1138 274 1114 q 242 1108 257 1131 q 208 1064 228 1085 q 174 1043 189 1043 q 69 1083 101 1043 l 232 1269 q 263 1274 246 1274 q 306 1254 288 1274 q 348 1209 315 1244 q 411 1135 381 1174 q 442 1079 442 1096 q 335 1042 442 1042 z "},"Ÿ":{"ha":511,"x_min":7,"x_max":506,"o":"m 336 28 q 330 8 336 13 q 285 1 324 3 q 182 0 247 0 l 182 400 l 8 949 q 12 965 4 961 q 64 971 19 969 q 185 972 108 972 l 225 790 q 249 657 236 742 q 265 522 261 572 q 283 656 269 571 q 307 792 296 742 l 340 944 q 353 965 344 960 q 401 971 363 969 q 506 972 439 972 l 336 406 l 336 28 m 161 1042 q 108 1065 126 1042 q 90 1147 90 1089 q 110 1222 90 1194 q 171 1250 131 1250 q 226 1229 211 1250 q 242 1154 242 1208 q 221 1071 242 1100 q 161 1042 200 1042 m 342 1042 q 288 1065 306 1042 q 269 1147 269 1089 q 290 1222 269 1194 q 351 1250 311 1250 q 405 1229 390 1250 q 419 1154 419 1208 q 399 1071 419 1100 q 342 1042 379 1042 z "},"Ỵ":{"ha":511,"x_min":7,"x_max":506,"o":"m 336 28 q 330 8 336 13 q 285 1 324 3 q 182 0 247 0 l 182 400 l 8 949 q 12 965 4 961 q 64 971 19 969 q 185 972 108 972 l 225 790 q 249 657 236 742 q 265 522 261 572 q 283 656 269 571 q 307 792 296 742 l 340 944 q 353 965 344 960 q 401 971 363 969 q 506 972 439 972 l 336 406 l 336 28 m 253 -272 q 207 -251 222 -272 q 192 -179 192 -231 q 209 -114 192 -137 q 261 -90 226 -90 q 308 -109 294 -90 q 321 -174 321 -128 q 303 -247 321 -221 q 253 -272 286 -272 z "},"Ỳ":{"ha":511,"x_min":7,"x_max":506,"o":"m 336 28 q 330 8 336 13 q 285 1 324 3 q 182 0 247 0 l 182 400 l 8 949 q 12 965 4 961 q 64 971 19 969 q 185 972 108 972 l 225 790 q 249 657 236 742 q 265 522 261 572 q 283 656 269 571 q 307 792 296 742 l 340 944 q 353 965 344 960 q 401 971 363 969 q 506 972 439 972 l 336 406 l 336 28 m 336 1026 q 245 1081 322 1028 q 143 1163 168 1135 q 170 1240 150 1204 q 214 1275 190 1275 q 294 1216 226 1275 q 396 1111 363 1157 q 388 1084 394 1104 q 367 1045 381 1064 q 336 1026 354 1026 z "},"Ỷ":{"ha":511,"x_min":7,"x_max":506,"o":"m 336 28 q 330 8 336 13 q 285 1 324 3 q 182 0 247 0 l 182 400 l 8 949 q 12 965 4 961 q 64 971 19 969 q 185 972 108 972 l 225 790 q 249 657 236 742 q 265 522 261 572 q 283 656 269 571 q 307 792 296 742 l 340 944 q 353 965 344 960 q 401 971 363 969 q 506 972 439 972 l 336 406 l 336 28 m 196 1013 q 195 1019 196 1014 q 194 1031 194 1024 q 199 1053 194 1046 q 222 1081 203 1061 q 245 1107 238 1094 q 253 1140 253 1119 q 197 1199 253 1199 q 143 1182 165 1199 l 143 1279 q 159 1292 143 1285 q 196 1299 175 1299 q 326 1259 288 1299 q 365 1161 365 1219 q 351 1101 365 1122 q 317 1066 336 1081 q 293 1047 299 1051 q 285 1030 288 1042 q 283 1014 283 1018 q 229 1011 281 1011 l 196 1013 z "},"Ỹ":{"ha":511,"x_min":7,"x_max":506,"o":"m 336 28 q 330 8 336 13 q 285 1 324 3 q 182 0 247 0 l 182 400 l 8 949 q 12 965 4 961 q 64 971 19 969 q 185 972 108 972 l 225 790 q 249 657 236 742 q 265 522 261 572 q 283 656 269 571 q 307 792 296 742 l 340 944 q 353 965 344 960 q 401 971 363 969 q 506 972 439 972 l 336 406 l 336 28 m 303 1036 q 265 1044 278 1036 q 239 1068 251 1053 q 219 1088 228 1082 q 193 1094 210 1094 q 142 1067 167 1094 q 118 1050 128 1050 q 83 1067 99 1050 q 57 1102 67 1083 q 44 1126 47 1121 q 128 1213 79 1183 q 219 1242 178 1242 q 251 1234 239 1242 q 279 1211 264 1226 q 306 1189 294 1196 q 333 1182 317 1182 q 369 1189 357 1182 q 393 1210 381 1196 q 403 1220 397 1215 q 417 1225 410 1225 q 440 1206 429 1225 q 458 1166 451 1186 q 467 1139 465 1146 q 440 1109 467 1136 q 378 1059 414 1082 q 303 1036 342 1036 z "},"Z":{"ha":522,"x_min":18,"x_max":496,"o":"m 39 0 q 18 60 18 24 q 31 124 18 92 l 318 836 l 100 836 q 35 829 58 836 l 35 943 q 43 965 35 957 q 64 972 51 972 l 481 972 q 491 950 488 960 q 494 924 494 940 q 481 858 494 893 l 186 136 l 403 136 q 496 150 463 136 l 496 28 q 490 7 496 14 q 468 0 483 0 l 39 0 z "},"Ź":{"ha":522,"x_min":18,"x_max":496,"o":"m 39 0 q 18 60 18 24 q 31 124 18 92 l 318 836 l 100 836 q 35 829 58 836 l 35 943 q 43 965 35 957 q 64 972 51 972 l 481 972 q 491 950 488 960 q 494 924 494 940 q 481 858 494 893 l 186 136 l 403 136 q 496 150 463 136 l 496 28 q 490 7 496 14 q 468 0 483 0 l 39 0 m 208 1040 q 177 1059 190 1040 q 157 1098 164 1078 q 149 1125 150 1118 q 210 1194 171 1156 q 286 1260 250 1232 q 331 1289 322 1289 q 374 1253 354 1289 q 401 1175 394 1218 q 299 1094 378 1147 q 208 1040 221 1042 z "},"Ž":{"ha":522,"x_min":18,"x_max":496,"o":"m 39 0 q 18 60 18 24 q 31 124 18 92 l 318 836 l 100 836 q 35 829 58 836 l 35 943 q 43 965 35 957 q 64 972 51 972 l 481 972 q 491 950 488 960 q 494 924 494 940 q 481 858 494 893 l 186 136 l 403 136 q 496 150 463 136 l 496 28 q 490 7 496 14 q 468 0 483 0 l 39 0 m 269 1031 q 185 1087 247 1031 q 97 1181 124 1143 q 130 1247 110 1217 q 165 1278 150 1278 q 203 1255 179 1278 q 249 1207 228 1232 q 276 1174 271 1182 q 317 1228 297 1207 q 350 1258 338 1249 q 365 1269 363 1268 q 410 1237 393 1254 q 426 1203 426 1219 q 393 1144 426 1186 q 321 1067 360 1103 q 269 1031 282 1031 z "},"Ż":{"ha":522,"x_min":18,"x_max":496,"o":"m 39 0 q 18 60 18 24 q 31 124 18 92 l 318 836 l 100 836 q 35 829 58 836 l 35 943 q 43 965 35 957 q 64 972 51 972 l 481 972 q 491 950 488 960 q 494 924 494 940 q 481 858 494 893 l 186 136 l 403 136 q 496 150 463 136 l 496 28 q 490 7 496 14 q 468 0 483 0 l 39 0 m 257 1036 q 201 1061 219 1036 q 182 1147 182 1086 q 203 1226 182 1197 q 267 1256 225 1256 q 324 1233 308 1256 q 339 1154 339 1211 q 318 1067 339 1099 q 257 1036 297 1036 z "},"a":{"ha":471,"x_min":28,"x_max":432,"o":"m 225 -14 q 123 1 165 -14 q 54 65 81 17 q 28 203 28 113 q 72 383 28 333 q 189 432 117 432 q 235 427 210 432 q 278 411 261 422 l 278 507 q 265 547 278 535 q 219 560 251 560 q 133 551 181 560 q 51 531 86 543 q 31 619 31 571 q 36 647 31 633 q 50 668 42 661 q 125 695 68 682 q 257 708 182 708 q 392 670 353 708 q 432 539 432 632 l 432 474 q 425 31 432 133 q 225 -14 350 -14 m 236 113 q 275 126 263 113 q 278 307 278 158 q 240 319 264 319 q 203 295 215 319 q 190 207 190 271 q 200 134 190 156 q 236 113 210 113 z "},"á":{"ha":471,"x_min":28,"x_max":432,"o":"m 225 -14 q 123 1 165 -14 q 54 65 81 17 q 28 203 28 113 q 72 383 28 333 q 189 432 117 432 q 235 427 210 432 q 278 411 261 422 l 278 507 q 265 547 278 535 q 219 560 251 560 q 133 551 181 560 q 51 531 86 543 q 31 619 31 571 q 36 647 31 633 q 50 668 42 661 q 125 695 68 682 q 257 708 182 708 q 392 670 353 708 q 432 539 432 632 l 432 474 q 425 31 432 133 q 225 -14 350 -14 m 236 113 q 275 126 263 113 q 278 307 278 158 q 240 319 264 319 q 203 295 215 319 q 190 207 190 271 q 200 134 190 156 q 236 113 210 113 m 182 763 q 151 781 164 763 q 131 820 138 800 q 122 847 124 840 q 184 916 144 878 q 260 983 224 954 q 304 1011 296 1011 q 348 976 328 1011 q 375 897 368 940 q 273 817 351 869 q 182 763 194 764 z "},"ă":{"ha":471,"x_min":28,"x_max":432,"o":"m 225 -14 q 123 1 165 -14 q 54 65 81 17 q 28 203 28 113 q 72 383 28 333 q 189 432 117 432 q 235 427 210 432 q 278 411 261 422 l 278 507 q 265 547 278 535 q 219 560 251 560 q 133 551 181 560 q 51 531 86 543 q 31 619 31 571 q 36 647 31 633 q 50 668 42 661 q 125 695 68 682 q 257 708 182 708 q 392 670 353 708 q 432 539 432 632 l 432 474 q 425 31 432 133 q 225 -14 350 -14 m 236 113 q 275 126 263 113 q 278 307 278 158 q 240 319 264 319 q 203 295 215 319 q 190 207 190 271 q 200 134 190 156 q 236 113 210 113 m 226 753 q 140 776 183 753 q 70 835 97 799 q 43 908 43 871 q 60 959 43 939 q 122 996 78 979 q 164 929 136 958 q 228 900 192 900 q 284 919 264 900 q 325 975 304 939 q 351 990 335 990 q 397 965 374 990 q 426 910 421 939 q 226 753 368 753 z "},"ắ":{"ha":471,"x_min":28,"x_max":432,"o":"m 236 943 q 210 958 221 943 q 194 990 200 974 q 188 1013 189 1007 q 271 1099 215 1050 q 338 1149 326 1149 q 374 1119 358 1149 q 396 1054 390 1090 q 311 988 375 1032 q 236 943 247 944 m 228 743 q 158 762 193 743 q 99 811 122 781 q 76 872 76 842 q 91 914 76 897 q 142 944 106 931 q 176 890 154 914 q 229 865 199 865 q 274 881 258 865 q 310 926 290 896 q 332 940 318 940 q 368 919 349 940 q 393 874 388 897 q 228 743 344 743 m 225 -14 q 123 1 165 -14 q 54 65 81 17 q 28 203 28 113 q 72 383 28 333 q 189 432 117 432 q 235 427 210 432 q 278 411 261 422 l 278 507 q 265 547 278 535 q 219 560 251 560 q 133 551 181 560 q 51 531 86 543 q 31 619 31 571 q 36 647 31 633 q 50 668 42 661 q 125 695 68 682 q 257 708 182 708 q 392 670 353 708 q 432 539 432 632 l 432 474 q 425 31 432 133 q 225 -14 350 -14 m 236 113 q 275 126 263 113 q 278 307 278 158 q 240 319 264 319 q 203 295 215 319 q 190 207 190 271 q 200 134 190 156 q 236 113 210 113 z "},"ặ":{"ha":471,"x_min":28,"x_max":432,"o":"m 225 -14 q 123 1 165 -14 q 54 65 81 17 q 28 203 28 113 q 72 383 28 333 q 189 432 117 432 q 235 427 210 432 q 278 411 261 422 l 278 507 q 265 547 278 535 q 219 560 251 560 q 133 551 181 560 q 51 531 86 543 q 31 619 31 571 q 36 647 31 633 q 50 668 42 661 q 125 695 68 682 q 257 708 182 708 q 392 670 353 708 q 432 539 432 632 l 432 474 q 425 31 432 133 q 225 -14 350 -14 m 236 113 q 275 126 263 113 q 278 307 278 158 q 240 319 264 319 q 203 295 215 319 q 190 207 190 271 q 200 134 190 156 q 236 113 210 113 m 232 -272 q 186 -251 201 -272 q 171 -179 171 -231 q 188 -114 171 -137 q 240 -90 206 -90 q 287 -109 274 -90 q 300 -174 300 -128 q 283 -247 300 -221 q 232 -272 265 -272 m 226 753 q 140 776 183 753 q 70 835 97 799 q 43 908 43 871 q 60 959 43 939 q 122 996 78 979 q 164 929 136 958 q 228 900 192 900 q 284 919 264 900 q 325 975 304 939 q 351 990 335 990 q 397 965 374 990 q 426 910 421 939 q 226 753 368 753 z "},"ằ":{"ha":471,"x_min":28,"x_max":432,"o":"m 232 960 q 157 1005 221 961 q 74 1072 93 1049 q 94 1135 78 1106 q 132 1165 111 1165 q 199 1116 143 1165 q 282 1029 254 1067 q 275 1007 281 1024 q 258 975 269 990 q 232 960 247 960 m 228 743 q 158 762 193 743 q 99 811 122 781 q 76 872 76 842 q 91 914 76 897 q 142 944 106 931 q 176 890 154 914 q 229 865 199 865 q 274 881 258 865 q 310 926 290 896 q 332 940 318 940 q 368 919 349 940 q 393 874 388 897 q 228 743 344 743 m 225 -14 q 123 1 165 -14 q 54 65 81 17 q 28 203 28 113 q 72 383 28 333 q 189 432 117 432 q 235 427 210 432 q 278 411 261 422 l 278 507 q 265 547 278 535 q 219 560 251 560 q 133 551 181 560 q 51 531 86 543 q 31 619 31 571 q 36 647 31 633 q 50 668 42 661 q 125 695 68 682 q 257 708 182 708 q 392 670 353 708 q 432 539 432 632 l 432 474 q 425 31 432 133 q 225 -14 350 -14 m 236 113 q 275 126 263 113 q 278 307 278 158 q 240 319 264 319 q 203 295 215 319 q 190 207 190 271 q 200 134 190 156 q 236 113 210 113 z "},"ẳ":{"ha":471,"x_min":28,"x_max":432,"o":"m 203 953 q 201 958 203 954 q 200 969 200 963 q 204 986 200 978 q 225 1010 211 999 q 244 1031 238 1021 q 250 1058 250 1042 q 204 1107 250 1107 q 158 1093 176 1107 l 158 1174 q 172 1184 158 1178 q 203 1190 186 1190 q 311 1157 279 1190 q 343 1075 343 1124 q 331 1026 343 1043 q 303 998 319 1010 q 283 982 288 986 q 276 967 278 978 q 275 954 275 957 q 203 953 274 953 m 228 743 q 158 762 193 743 q 99 811 122 781 q 76 872 76 842 q 91 914 76 897 q 142 944 106 931 q 176 890 154 914 q 229 865 199 865 q 274 881 258 865 q 310 926 290 896 q 332 940 318 940 q 368 919 349 940 q 393 874 388 897 q 228 743 344 743 m 225 -14 q 123 1 165 -14 q 54 65 81 17 q 28 203 28 113 q 72 383 28 333 q 189 432 117 432 q 235 427 210 432 q 278 411 261 422 l 278 507 q 265 547 278 535 q 219 560 251 560 q 133 551 181 560 q 51 531 86 543 q 31 619 31 571 q 36 647 31 633 q 50 668 42 661 q 125 695 68 682 q 257 708 182 708 q 392 670 353 708 q 432 539 432 632 l 432 474 q 425 31 432 133 q 225 -14 350 -14 m 236 113 q 275 126 263 113 q 278 307 278 158 q 240 319 264 319 q 203 295 215 319 q 190 207 190 271 q 200 134 190 156 q 236 113 210 113 z "},"ẵ":{"ha":471,"x_min":28,"x_max":432,"o":"m 274 994 q 243 1001 253 994 q 221 1021 233 1007 q 204 1038 213 1032 q 183 1043 196 1043 q 160 1037 169 1043 q 139 1019 150 1031 q 121 1007 128 1007 q 91 1021 104 1007 q 69 1050 78 1035 q 60 1069 61 1065 q 129 1141 89 1117 q 204 1165 169 1165 q 232 1158 221 1165 q 254 1139 243 1151 q 275 1122 265 1128 q 299 1115 285 1115 q 328 1122 318 1115 q 349 1140 339 1128 q 368 1151 360 1151 q 388 1135 379 1151 q 401 1103 396 1119 q 408 1081 407 1086 q 387 1056 408 1078 q 335 1014 365 1033 q 274 994 306 994 m 228 743 q 158 762 193 743 q 99 811 122 781 q 76 872 76 842 q 91 914 76 897 q 142 944 106 931 q 176 890 154 914 q 229 865 199 865 q 274 881 258 865 q 310 926 290 896 q 332 940 318 940 q 368 919 349 940 q 393 874 388 897 q 228 743 344 743 m 225 -14 q 123 1 165 -14 q 54 65 81 17 q 28 203 28 113 q 72 383 28 333 q 189 432 117 432 q 235 427 210 432 q 278 411 261 422 l 278 507 q 265 547 278 535 q 219 560 251 560 q 133 551 181 560 q 51 531 86 543 q 31 619 31 571 q 36 647 31 633 q 50 668 42 661 q 125 695 68 682 q 257 708 182 708 q 392 670 353 708 q 432 539 432 632 l 432 474 q 425 31 432 133 q 225 -14 350 -14 m 236 113 q 275 126 263 113 q 278 307 278 158 q 240 319 264 319 q 203 295 215 319 q 190 207 190 271 q 200 134 190 156 q 236 113 210 113 z "},"â":{"ha":471,"x_min":28,"x_max":432,"o":"m 225 -14 q 123 1 165 -14 q 54 65 81 17 q 28 203 28 113 q 72 383 28 333 q 189 432 117 432 q 235 427 210 432 q 278 411 261 422 l 278 507 q 265 547 278 535 q 219 560 251 560 q 133 551 181 560 q 51 531 86 543 q 31 619 31 571 q 36 647 31 633 q 50 668 42 661 q 125 695 68 682 q 257 708 182 708 q 392 670 353 708 q 432 539 432 632 l 432 474 q 425 31 432 133 q 225 -14 350 -14 m 236 113 q 275 126 263 113 q 278 307 278 158 q 240 319 264 319 q 203 295 215 319 q 190 207 190 271 q 200 134 190 156 q 236 113 210 113 m 314 764 q 297 780 310 767 q 269 815 285 793 q 240 860 253 836 q 222 830 236 853 q 188 786 207 807 q 153 765 168 765 q 49 806 81 765 l 211 992 q 242 996 225 996 q 285 976 267 996 q 327 931 294 967 q 390 857 360 896 q 421 801 421 818 q 314 764 421 764 z "},"ấ":{"ha":471,"x_min":28,"x_max":561,"o":"m 401 861 q 376 876 386 861 q 360 908 365 892 q 353 931 354 925 q 436 1017 381 968 q 503 1067 492 1067 q 540 1038 524 1067 q 561 972 556 1008 q 476 906 540 950 q 401 861 413 863 m 300 753 q 277 777 300 750 q 239 832 254 804 q 224 808 236 826 q 195 772 211 789 q 167 754 179 754 q 115 762 136 754 q 81 788 94 769 l 215 940 q 240 944 226 944 q 276 928 261 944 q 312 890 285 919 q 364 829 339 861 q 389 783 389 797 q 300 753 389 753 m 225 -14 q 123 1 165 -14 q 54 65 81 17 q 28 203 28 113 q 72 383 28 333 q 189 432 117 432 q 235 427 210 432 q 278 411 261 422 l 278 507 q 265 547 278 535 q 219 560 251 560 q 133 551 181 560 q 51 531 86 543 q 31 619 31 571 q 36 647 31 633 q 50 668 42 661 q 125 695 68 682 q 257 708 182 708 q 392 670 353 708 q 432 539 432 632 l 432 474 q 425 31 432 133 q 225 -14 350 -14 m 236 113 q 275 126 263 113 q 278 307 278 158 q 240 319 264 319 q 203 295 215 319 q 190 207 190 271 q 200 134 190 156 q 236 113 210 113 z "},"ậ":{"ha":471,"x_min":28,"x_max":432,"o":"m 225 -14 q 123 1 165 -14 q 54 65 81 17 q 28 203 28 113 q 72 383 28 333 q 189 432 117 432 q 235 427 210 432 q 278 411 261 422 l 278 507 q 265 547 278 535 q 219 560 251 560 q 133 551 181 560 q 51 531 86 543 q 31 619 31 571 q 36 647 31 633 q 50 668 42 661 q 125 695 68 682 q 257 708 182 708 q 392 670 353 708 q 432 539 432 632 l 432 474 q 425 31 432 133 q 225 -14 350 -14 m 236 113 q 275 126 263 113 q 278 307 278 158 q 240 319 264 319 q 203 295 215 319 q 190 207 190 271 q 200 134 190 156 q 236 113 210 113 m 232 -272 q 186 -251 201 -272 q 171 -179 171 -231 q 188 -114 171 -137 q 240 -90 206 -90 q 287 -109 274 -90 q 300 -174 300 -128 q 283 -247 300 -221 q 232 -272 265 -272 m 314 764 q 297 780 310 767 q 269 815 285 793 q 240 860 253 836 q 222 830 236 853 q 188 786 207 807 q 153 765 168 765 q 49 806 81 765 l 211 992 q 242 996 225 996 q 285 976 267 996 q 327 931 294 967 q 390 857 360 896 q 421 801 421 818 q 314 764 421 764 z "},"ầ":{"ha":471,"x_min":28,"x_max":432,"o":"m 375 917 q 300 962 364 918 q 217 1029 236 1006 q 238 1092 221 1063 q 275 1122 254 1122 q 342 1073 286 1122 q 425 986 397 1024 q 418 964 424 981 q 401 932 413 947 q 375 917 390 917 m 300 753 q 277 777 300 750 q 239 832 254 804 q 224 808 236 826 q 195 772 211 789 q 167 754 179 754 q 115 762 136 754 q 81 788 94 769 l 215 940 q 240 944 226 944 q 276 928 261 944 q 312 890 285 919 q 364 829 339 861 q 389 783 389 797 q 300 753 389 753 m 225 -14 q 123 1 165 -14 q 54 65 81 17 q 28 203 28 113 q 72 383 28 333 q 189 432 117 432 q 235 427 210 432 q 278 411 261 422 l 278 507 q 265 547 278 535 q 219 560 251 560 q 133 551 181 560 q 51 531 86 543 q 31 619 31 571 q 36 647 31 633 q 50 668 42 661 q 125 695 68 682 q 257 708 182 708 q 392 670 353 708 q 432 539 432 632 l 432 474 q 425 31 432 133 q 225 -14 350 -14 m 236 113 q 275 126 263 113 q 278 307 278 158 q 240 319 264 319 q 203 295 215 319 q 190 207 190 271 q 200 134 190 156 q 236 113 210 113 z "},"ẩ":{"ha":471,"x_min":28,"x_max":521,"o":"m 381 878 q 379 883 381 879 q 378 894 378 888 q 382 911 378 903 q 403 935 389 924 q 422 956 415 946 q 428 983 428 967 q 382 1032 428 1032 q 336 1018 354 1032 l 336 1099 q 350 1109 336 1103 q 381 1115 364 1115 q 489 1082 457 1115 q 521 1000 521 1049 q 509 951 521 968 q 481 923 497 935 q 461 907 465 911 q 454 892 456 903 q 453 879 453 882 q 381 878 451 878 m 300 753 q 277 777 300 750 q 239 832 254 804 q 224 808 236 826 q 195 772 211 789 q 167 754 179 754 q 115 762 136 754 q 81 788 94 769 l 215 940 q 240 944 226 944 q 276 928 261 944 q 312 890 285 919 q 364 829 339 861 q 389 783 389 797 q 300 753 389 753 m 225 -14 q 123 1 165 -14 q 54 65 81 17 q 28 203 28 113 q 72 383 28 333 q 189 432 117 432 q 235 427 210 432 q 278 411 261 422 l 278 507 q 265 547 278 535 q 219 560 251 560 q 133 551 181 560 q 51 531 86 543 q 31 619 31 571 q 36 647 31 633 q 50 668 42 661 q 125 695 68 682 q 257 708 182 708 q 392 670 353 708 q 432 539 432 632 l 432 474 q 425 31 432 133 q 225 -14 350 -14 m 236 113 q 275 126 263 113 q 278 307 278 158 q 240 319 264 319 q 203 295 215 319 q 190 207 190 271 q 200 134 190 156 q 236 113 210 113 z "},"ẫ":{"ha":471,"x_min":28,"x_max":449,"o":"m 314 967 q 283 973 293 967 q 261 993 274 979 q 244 1010 253 1004 q 224 1015 236 1015 q 200 1009 210 1015 q 179 991 190 1003 q 161 979 168 979 q 131 993 144 979 q 110 1022 118 1007 q 100 1042 101 1038 q 169 1113 129 1089 q 244 1138 210 1138 q 272 1131 261 1138 q 294 1111 283 1124 q 315 1094 306 1100 q 339 1088 325 1088 q 369 1094 358 1088 q 390 1112 379 1100 q 408 1124 400 1124 q 428 1108 419 1124 q 442 1075 436 1092 q 449 1053 447 1058 q 427 1028 449 1050 q 376 986 406 1006 q 314 967 346 967 m 300 753 q 277 777 300 750 q 239 832 254 804 q 224 808 236 826 q 195 772 211 789 q 167 754 179 754 q 115 762 136 754 q 81 788 94 769 l 215 940 q 240 944 226 944 q 276 928 261 944 q 312 890 285 919 q 364 829 339 861 q 389 783 389 797 q 300 753 389 753 m 225 -14 q 123 1 165 -14 q 54 65 81 17 q 28 203 28 113 q 72 383 28 333 q 189 432 117 432 q 235 427 210 432 q 278 411 261 422 l 278 507 q 265 547 278 535 q 219 560 251 560 q 133 551 181 560 q 51 531 86 543 q 31 619 31 571 q 36 647 31 633 q 50 668 42 661 q 125 695 68 682 q 257 708 182 708 q 392 670 353 708 q 432 539 432 632 l 432 474 q 425 31 432 133 q 225 -14 350 -14 m 236 113 q 275 126 263 113 q 278 307 278 158 q 240 319 264 319 q 203 295 215 319 q 190 207 190 271 q 200 134 190 156 q 236 113 210 113 z "},"ä":{"ha":471,"x_min":28,"x_max":432,"o":"m 225 -14 q 123 1 165 -14 q 54 65 81 17 q 28 203 28 113 q 72 383 28 333 q 189 432 117 432 q 235 427 210 432 q 278 411 261 422 l 278 507 q 265 547 278 535 q 219 560 251 560 q 133 551 181 560 q 51 531 86 543 q 31 619 31 571 q 36 647 31 633 q 50 668 42 661 q 125 695 68 682 q 257 708 182 708 q 392 670 353 708 q 432 539 432 632 l 432 474 q 425 31 432 133 q 225 -14 350 -14 m 236 113 q 275 126 263 113 q 278 307 278 158 q 240 319 264 319 q 203 295 215 319 q 190 207 190 271 q 200 134 190 156 q 236 113 210 113 m 140 764 q 88 788 106 764 q 69 869 69 811 q 90 944 69 917 q 150 972 110 972 q 206 951 190 972 q 221 876 221 931 q 200 793 221 822 q 140 764 179 764 m 321 764 q 267 788 285 764 q 249 869 249 811 q 269 944 249 917 q 331 972 290 972 q 384 951 369 972 q 399 876 399 931 q 378 793 399 822 q 321 764 358 764 z "},"ạ":{"ha":471,"x_min":28,"x_max":432,"o":"m 225 -14 q 123 1 165 -14 q 54 65 81 17 q 28 203 28 113 q 72 383 28 333 q 189 432 117 432 q 235 427 210 432 q 278 411 261 422 l 278 507 q 265 547 278 535 q 219 560 251 560 q 133 551 181 560 q 51 531 86 543 q 31 619 31 571 q 36 647 31 633 q 50 668 42 661 q 125 695 68 682 q 257 708 182 708 q 392 670 353 708 q 432 539 432 632 l 432 474 q 425 31 432 133 q 225 -14 350 -14 m 236 113 q 275 126 263 113 q 278 307 278 158 q 240 319 264 319 q 203 295 215 319 q 190 207 190 271 q 200 134 190 156 q 236 113 210 113 m 232 -272 q 186 -251 201 -272 q 171 -179 171 -231 q 188 -114 171 -137 q 240 -90 206 -90 q 287 -109 274 -90 q 300 -174 300 -128 q 283 -247 300 -221 q 232 -272 265 -272 z "},"à":{"ha":471,"x_min":28,"x_max":432,"o":"m 225 -14 q 123 1 165 -14 q 54 65 81 17 q 28 203 28 113 q 72 383 28 333 q 189 432 117 432 q 235 427 210 432 q 278 411 261 422 l 278 507 q 265 547 278 535 q 219 560 251 560 q 133 551 181 560 q 51 531 86 543 q 31 619 31 571 q 36 647 31 633 q 50 668 42 661 q 125 695 68 682 q 257 708 182 708 q 392 670 353 708 q 432 539 432 632 l 432 474 q 425 31 432 133 q 225 -14 350 -14 m 236 113 q 275 126 263 113 q 278 307 278 158 q 240 319 264 319 q 203 295 215 319 q 190 207 190 271 q 200 134 190 156 q 236 113 210 113 m 315 749 q 224 803 301 750 q 122 885 147 857 q 149 962 129 926 q 193 997 169 997 q 274 938 206 997 q 375 833 342 879 q 367 806 374 826 q 347 767 360 786 q 315 749 333 749 z "},"ả":{"ha":471,"x_min":28,"x_max":432,"o":"m 225 -14 q 123 1 165 -14 q 54 65 81 17 q 28 203 28 113 q 72 383 28 333 q 189 432 117 432 q 235 427 210 432 q 278 411 261 422 l 278 507 q 265 547 278 535 q 219 560 251 560 q 133 551 181 560 q 51 531 86 543 q 31 619 31 571 q 36 647 31 633 q 50 668 42 661 q 125 695 68 682 q 257 708 182 708 q 392 670 353 708 q 432 539 432 632 l 432 474 q 425 31 432 133 q 225 -14 350 -14 m 236 113 q 275 126 263 113 q 278 307 278 158 q 240 319 264 319 q 203 295 215 319 q 190 207 190 271 q 200 134 190 156 q 236 113 210 113 m 175 735 q 174 741 175 736 q 174 753 174 746 q 178 775 174 768 q 201 803 182 783 q 224 829 217 817 q 232 863 232 842 q 176 921 232 921 q 122 904 144 921 l 122 1001 q 138 1014 122 1007 q 175 1021 154 1021 q 306 981 267 1021 q 344 883 344 942 q 330 824 344 844 q 297 788 315 803 q 272 769 278 774 q 265 752 267 764 q 263 736 263 740 q 208 733 260 733 l 175 735 z "},"ā":{"ha":471,"x_min":28,"x_max":432,"o":"m 225 -14 q 123 1 165 -14 q 54 65 81 17 q 28 203 28 113 q 72 383 28 333 q 189 432 117 432 q 235 427 210 432 q 278 411 261 422 l 278 507 q 265 547 278 535 q 219 560 251 560 q 133 551 181 560 q 51 531 86 543 q 31 619 31 571 q 36 647 31 633 q 50 668 42 661 q 125 695 68 682 q 257 708 182 708 q 392 670 353 708 q 432 539 432 632 l 432 474 q 425 31 432 133 q 225 -14 350 -14 m 236 113 q 275 126 263 113 q 278 307 278 158 q 240 319 264 319 q 203 295 215 319 q 190 207 190 271 q 200 134 190 156 q 236 113 210 113 m 50 789 q 39 857 39 818 q 56 912 39 890 q 101 933 72 933 l 415 933 q 431 868 431 903 q 415 811 431 833 q 372 789 399 789 l 50 789 z "},"ą":{"ha":471,"x_min":28,"x_max":432,"o":"m 325 -271 q 201 -147 201 -271 q 253 -14 201 -75 l 225 -14 q 123 1 165 -14 q 54 65 81 17 q 28 203 28 113 q 72 383 28 333 q 189 432 117 432 q 235 427 210 432 q 278 411 261 422 l 278 507 q 265 547 278 535 q 219 560 251 560 q 133 551 181 560 q 51 531 86 543 q 31 619 31 571 q 36 647 31 633 q 50 668 42 661 q 125 695 68 682 q 257 708 182 708 q 392 670 353 708 q 432 539 432 632 l 432 474 q 425 31 432 133 q 364 -44 390 -1 q 338 -125 338 -86 q 372 -164 338 -164 q 407 -154 393 -164 q 422 -214 422 -183 q 415 -240 422 -229 q 325 -271 396 -271 m 236 113 q 275 126 263 113 q 278 307 278 158 q 240 319 264 319 q 203 295 215 319 q 190 207 190 271 q 200 134 190 156 q 236 113 210 113 z "},"å":{"ha":471,"x_min":28,"x_max":432,"o":"m 225 -14 q 123 1 165 -14 q 54 65 81 17 q 28 203 28 113 q 72 383 28 333 q 189 432 117 432 q 235 427 210 432 q 278 411 261 422 l 278 507 q 265 547 278 535 q 219 560 251 560 q 133 551 181 560 q 51 531 86 543 q 31 619 31 571 q 36 647 31 633 q 50 668 42 661 q 125 695 68 682 q 257 708 182 708 q 392 670 353 708 q 432 539 432 632 l 432 474 q 425 31 432 133 q 225 -14 350 -14 m 236 113 q 275 126 263 113 q 278 307 278 158 q 240 319 264 319 q 203 295 215 319 q 190 207 190 271 q 200 134 190 156 q 236 113 210 113 m 232 735 q 124 766 158 735 q 90 879 90 797 q 240 1025 90 1025 q 348 994 315 1025 q 381 882 381 963 q 232 735 381 735 m 235 835 q 276 881 276 835 q 240 925 276 925 q 196 879 196 925 q 235 835 196 835 z "},"ã":{"ha":471,"x_min":24,"x_max":446,"o":"m 225 -14 q 123 1 165 -14 q 54 65 81 17 q 28 203 28 113 q 72 383 28 333 q 189 432 117 432 q 235 427 210 432 q 278 411 261 422 l 278 507 q 265 547 278 535 q 219 560 251 560 q 133 551 181 560 q 51 531 86 543 q 31 619 31 571 q 36 647 31 633 q 50 668 42 661 q 125 695 68 682 q 257 708 182 708 q 392 670 353 708 q 432 539 432 632 l 432 474 q 425 31 432 133 q 225 -14 350 -14 m 236 113 q 275 126 263 113 q 278 307 278 158 q 240 319 264 319 q 203 295 215 319 q 190 207 190 271 q 200 134 190 156 q 236 113 210 113 m 282 758 q 244 767 257 758 q 218 790 231 775 q 198 810 207 804 q 172 817 189 817 q 121 789 146 817 q 97 772 107 772 q 62 789 78 772 q 36 824 46 806 q 24 849 26 843 q 108 935 58 906 q 199 964 157 964 q 231 956 218 964 q 258 933 243 949 q 285 911 274 918 q 313 904 296 904 q 348 911 336 904 q 372 932 360 918 q 383 942 376 938 q 396 947 389 947 q 419 928 408 947 q 438 888 431 908 q 446 861 444 868 q 419 831 446 858 q 357 781 393 804 q 282 758 321 758 z "},"æ":{"ha":746,"x_min":28,"x_max":708,"o":"m 522 136 q 608 146 569 136 q 686 175 646 156 q 695 116 692 156 q 699 39 699 76 q 672 16 699 28 q 599 -4 644 4 q 501 -12 553 -12 q 385 17 424 -12 q 225 -14 325 -14 q 122 0 163 -14 q 54 65 81 14 q 28 217 28 115 q 72 403 28 347 q 183 460 117 460 q 278 439 246 460 l 278 519 q 260 559 278 546 q 211 572 242 572 q 51 536 118 572 q 35 584 39 557 q 31 629 31 611 q 36 653 31 640 q 47 669 42 665 q 123 697 67 685 q 267 708 179 708 q 342 696 314 708 q 385 656 371 683 q 447 697 411 686 q 531 708 482 708 q 708 482 708 708 q 689 285 708 361 q 574 278 635 278 q 446 288 501 278 q 454 189 447 221 q 476 147 461 157 q 522 136 492 136 m 510 575 q 466 535 481 575 q 447 407 451 494 q 525 397 489 397 q 551 399 543 397 q 558 471 558 419 q 548 555 558 535 q 510 575 538 575 m 278 336 q 240 346 263 346 q 190 221 190 346 q 194 151 190 174 q 206 120 197 128 q 233 113 215 113 q 258 116 244 113 q 278 126 272 119 l 278 336 z "},"b":{"ha":508,"x_min":49,"x_max":479,"o":"m 211 -14 q 115 -3 157 -14 q 49 28 72 8 l 49 951 q 60 1000 49 986 q 100 1017 72 1014 q 203 1021 128 1021 l 203 668 q 322 708 251 708 q 442 644 406 708 q 479 426 479 581 q 440 146 479 243 q 342 17 400 49 q 211 -14 285 -14 m 235 121 q 284 181 263 121 q 306 399 306 242 q 292 531 306 492 q 251 571 279 571 q 203 550 224 571 l 203 132 q 235 121 217 121 z "},"c":{"ha":406,"x_min":28,"x_max":390,"o":"m 233 -14 q 115 14 158 -14 q 49 116 71 42 q 28 332 28 190 q 63 571 28 488 q 152 681 99 654 q 275 708 206 708 q 358 690 326 708 q 390 638 390 671 q 376 556 390 596 q 334 568 358 563 q 289 574 310 574 q 216 526 243 574 q 189 335 189 479 q 197 206 189 251 q 226 142 206 161 q 283 122 246 122 q 331 128 306 122 q 372 142 356 133 q 385 61 385 92 q 342 6 385 26 q 233 -14 300 -14 z "},"ć":{"ha":406,"x_min":28,"x_max":390,"o":"m 233 -14 q 115 14 158 -14 q 49 116 71 42 q 28 332 28 190 q 63 571 28 488 q 152 681 99 654 q 275 708 206 708 q 358 690 326 708 q 390 638 390 671 q 376 556 390 596 q 334 568 358 563 q 289 574 310 574 q 216 526 243 574 q 189 335 189 479 q 197 206 189 251 q 226 142 206 161 q 283 122 246 122 q 331 128 306 122 q 372 142 356 133 q 385 61 385 92 q 342 6 385 26 q 233 -14 300 -14 m 151 763 q 120 781 133 763 q 100 820 107 800 q 92 847 93 840 q 153 916 114 878 q 229 983 193 954 q 274 1011 265 1011 q 317 976 297 1011 q 344 897 338 940 q 242 817 321 869 q 151 763 164 764 z "},"č":{"ha":406,"x_min":28,"x_max":390,"o":"m 233 -14 q 115 14 158 -14 q 49 116 71 42 q 28 332 28 190 q 63 571 28 488 q 152 681 99 654 q 275 708 206 708 q 358 690 326 708 q 390 638 390 671 q 376 556 390 596 q 334 568 358 563 q 289 574 310 574 q 216 526 243 574 q 189 335 189 479 q 197 206 189 251 q 226 142 206 161 q 283 122 246 122 q 331 128 306 122 q 372 142 356 133 q 385 61 385 92 q 342 6 385 26 q 233 -14 300 -14 m 213 753 q 128 809 190 753 q 40 903 67 865 q 73 969 53 939 q 108 1000 93 1000 q 147 977 122 1000 q 192 929 171 954 q 219 896 214 904 q 260 950 240 929 q 293 981 281 971 q 308 992 306 990 q 353 959 336 976 q 369 925 369 942 q 336 867 369 908 q 264 789 303 825 q 213 753 225 753 z "},"ç":{"ha":406,"x_min":28,"x_max":390,"o":"m 283 122 q 331 128 306 122 q 372 142 356 133 q 385 61 385 92 q 342 6 385 26 q 233 -14 300 -14 l 228 -14 l 215 -79 l 238 -79 q 288 -104 267 -79 q 308 -178 308 -129 q 274 -269 308 -232 q 183 -307 240 -307 q 144 -302 163 -307 q 114 -292 125 -297 q 100 -286 103 -287 q 109 -249 101 -276 q 122 -215 117 -221 q 139 -217 126 -211 q 162 -228 151 -224 q 186 -233 172 -233 q 225 -189 225 -233 q 217 -156 225 -167 q 189 -144 208 -144 q 147 -148 163 -144 q 126 -153 131 -151 l 151 -4 q 57 92 86 17 q 28 332 28 167 q 63 571 28 488 q 152 681 99 654 q 275 708 206 708 q 358 690 326 708 q 390 638 390 671 q 376 556 390 596 q 334 568 358 563 q 289 574 310 574 q 216 526 243 574 q 189 335 189 479 q 197 206 189 251 q 226 142 206 161 q 283 122 246 122 z "},"d":{"ha":499,"x_min":28,"x_max":456,"o":"m 253 -14 q 135 9 183 -14 q 58 104 88 32 q 28 315 28 176 q 80 613 28 518 q 219 708 132 708 q 301 683 271 708 l 301 953 q 313 1001 301 988 q 353 1017 325 1014 q 456 1021 382 1021 l 456 28 q 253 -14 361 -14 m 254 122 q 301 136 283 122 l 301 569 q 271 576 290 576 q 238 562 253 576 q 212 494 222 547 q 201 335 201 440 q 214 168 201 214 q 254 122 226 122 z "},"ð":{"ha":536,"x_min":28,"x_max":507,"o":"m 424 856 q 507 401 507 678 q 458 95 507 204 q 275 -14 410 -14 q 133 22 188 -14 q 53 138 79 57 q 28 358 28 219 q 54 547 28 468 q 127 667 81 626 q 233 708 174 708 q 321 686 289 708 q 276 799 300 754 l 151 750 q 126 817 136 788 q 115 861 115 846 q 129 883 115 878 l 197 910 q 142 965 197 910 q 192 1015 160 996 q 256 1035 224 1035 q 311 1011 292 1035 q 351 968 339 983 l 433 1000 q 459 933 449 963 q 469 889 469 903 q 456 868 469 872 l 424 856 m 271 113 q 335 178 321 113 q 350 386 350 243 q 344 536 350 476 q 278 572 318 572 q 208 501 231 572 q 186 329 186 429 q 271 113 186 113 z "},"ď":{"ha":688,"x_min":28,"x_max":696,"o":"m 253 -14 q 135 9 183 -14 q 58 104 88 32 q 28 315 28 176 q 80 613 28 518 q 219 708 132 708 q 301 683 271 708 l 301 953 q 313 1001 301 988 q 353 1017 325 1014 q 456 1021 382 1021 l 456 28 q 253 -14 361 -14 m 254 122 q 301 136 283 122 l 301 569 q 271 576 290 576 q 238 562 253 576 q 212 494 222 547 q 201 335 201 440 q 214 168 201 214 q 254 122 226 122 m 569 649 q 531 657 546 649 q 511 689 517 665 q 538 742 533 725 q 549 794 543 760 q 518 826 526 807 q 510 876 510 846 q 535 940 510 914 q 599 967 561 967 q 671 940 646 967 q 696 865 696 914 q 672 763 696 813 q 617 681 647 713 q 569 649 586 649 z "},"đ":{"ha":543,"x_min":28,"x_max":533,"o":"m 518 919 q 533 854 533 889 q 517 797 533 819 q 475 775 501 775 l 456 775 l 456 28 q 253 -14 361 -14 q 135 9 183 -14 q 58 104 88 32 q 28 315 28 176 q 80 613 28 518 q 219 708 132 708 q 301 683 271 708 l 301 775 l 153 775 q 142 843 142 804 q 158 898 142 876 q 204 919 175 919 l 301 919 l 301 953 q 313 1001 301 988 q 353 1017 325 1014 q 456 1021 382 1021 l 456 919 l 518 919 m 301 569 q 271 576 290 576 q 238 562 253 576 q 212 494 222 547 q 201 335 201 440 q 214 168 201 214 q 254 122 226 122 q 301 136 283 122 l 301 569 z "},"e":{"ha":479,"x_min":28,"x_max":450,"o":"m 281 136 q 428 175 347 136 q 440 72 440 133 q 384 9 440 32 q 243 -14 328 -14 q 83 58 139 -14 q 28 314 28 129 q 60 560 28 472 q 146 678 93 647 q 272 708 199 708 q 450 482 450 708 q 431 285 450 361 q 189 265 351 268 q 213 165 193 194 q 281 136 232 136 m 253 575 q 206 529 221 575 q 189 386 192 483 q 293 399 267 386 q 300 471 300 419 q 290 555 300 535 q 253 575 281 575 z "},"é":{"ha":479,"x_min":28,"x_max":450,"o":"m 281 136 q 428 175 347 136 q 440 72 440 133 q 384 9 440 32 q 243 -14 328 -14 q 83 58 139 -14 q 28 314 28 129 q 60 560 28 472 q 146 678 93 647 q 272 708 199 708 q 450 482 450 708 q 431 285 450 361 q 189 265 351 268 q 213 165 193 194 q 281 136 232 136 m 253 575 q 206 529 221 575 q 189 386 192 483 q 293 399 267 386 q 300 471 300 419 q 290 555 300 535 q 253 575 281 575 m 188 763 q 156 781 169 763 q 136 820 143 800 q 128 847 129 840 q 190 916 150 878 q 265 983 229 954 q 310 1011 301 1011 q 353 976 333 1011 q 381 897 374 940 q 278 817 357 869 q 188 763 200 764 z "},"ě":{"ha":479,"x_min":28,"x_max":450,"o":"m 281 136 q 428 175 347 136 q 440 72 440 133 q 384 9 440 32 q 243 -14 328 -14 q 83 58 139 -14 q 28 314 28 129 q 60 560 28 472 q 146 678 93 647 q 272 708 199 708 q 450 482 450 708 q 431 285 450 361 q 189 265 351 268 q 213 165 193 194 q 281 136 232 136 m 253 575 q 206 529 221 575 q 189 386 192 483 q 293 399 267 386 q 300 471 300 419 q 290 555 300 535 q 253 575 281 575 m 249 753 q 165 809 226 753 q 76 903 103 865 q 109 969 89 939 q 144 1000 129 1000 q 183 977 158 1000 q 228 929 207 954 q 256 896 250 904 q 297 950 276 929 q 329 981 317 971 q 344 992 342 990 q 389 959 372 976 q 406 925 406 942 q 372 867 406 908 q 300 789 339 825 q 249 753 261 753 z "},"ê":{"ha":479,"x_min":28,"x_max":450,"o":"m 281 136 q 428 175 347 136 q 440 72 440 133 q 384 9 440 32 q 243 -14 328 -14 q 83 58 139 -14 q 28 314 28 129 q 60 560 28 472 q 146 678 93 647 q 272 708 199 708 q 450 482 450 708 q 431 285 450 361 q 189 265 351 268 q 213 165 193 194 q 281 136 232 136 m 253 575 q 206 529 221 575 q 189 386 192 483 q 293 399 267 386 q 300 471 300 419 q 290 555 300 535 q 253 575 281 575 m 319 764 q 303 780 315 767 q 274 815 290 793 q 246 860 258 836 q 227 830 242 853 q 193 786 213 807 q 158 765 174 765 q 54 806 86 765 l 217 992 q 247 996 231 996 q 290 976 272 996 q 333 931 300 967 q 396 857 365 896 q 426 801 426 818 q 319 764 426 764 z "},"ế":{"ha":479,"x_min":28,"x_max":567,"o":"m 508 1067 q 545 1038 529 1067 q 567 972 561 1008 q 482 906 546 950 q 407 861 418 863 q 381 876 392 861 q 365 908 371 892 q 358 931 360 925 q 442 1017 386 968 q 508 1067 497 1067 m 172 754 q 121 762 142 754 q 86 788 100 769 l 221 940 q 246 944 232 944 q 282 928 267 944 q 317 890 290 919 q 369 829 344 861 q 394 783 394 797 q 306 753 394 753 q 283 777 306 750 q 244 832 260 804 q 229 808 242 826 q 201 772 217 789 q 172 754 185 754 m 450 482 q 431 285 450 361 q 189 265 351 268 q 213 165 193 194 q 281 136 232 136 q 428 175 347 136 q 440 72 440 133 q 384 9 440 32 q 243 -14 328 -14 q 83 58 139 -14 q 28 314 28 129 q 60 560 28 472 q 146 678 93 647 q 272 708 199 708 q 450 482 450 708 m 293 399 q 300 471 300 419 q 290 555 300 535 q 253 575 281 575 q 206 529 221 575 q 189 386 192 483 q 293 399 267 386 z "},"ệ":{"ha":479,"x_min":28,"x_max":450,"o":"m 281 136 q 428 175 347 136 q 440 72 440 133 q 384 9 440 32 q 243 -14 328 -14 q 83 58 139 -14 q 28 314 28 129 q 60 560 28 472 q 146 678 93 647 q 272 708 199 708 q 450 482 450 708 q 431 285 450 361 q 189 265 351 268 q 213 165 193 194 q 281 136 232 136 m 253 575 q 206 529 221 575 q 189 386 192 483 q 293 399 267 386 q 300 471 300 419 q 290 555 300 535 q 253 575 281 575 m 236 -272 q 190 -251 206 -272 q 175 -179 175 -231 q 192 -114 175 -137 q 244 -90 210 -90 q 291 -109 278 -90 q 304 -174 304 -128 q 287 -247 304 -221 q 236 -272 269 -272 m 319 764 q 303 780 315 767 q 274 815 290 793 q 246 860 258 836 q 227 830 242 853 q 193 786 213 807 q 158 765 174 765 q 54 806 86 765 l 217 992 q 247 996 231 996 q 290 976 272 996 q 333 931 300 967 q 396 857 365 896 q 426 801 426 818 q 319 764 426 764 z "},"ề":{"ha":479,"x_min":28,"x_max":450,"o":"m 381 917 q 306 962 369 918 q 222 1029 242 1006 q 243 1092 226 1063 q 281 1122 260 1122 q 347 1073 292 1122 q 431 986 403 1024 q 424 964 429 981 q 407 932 418 947 q 381 917 396 917 m 172 754 q 121 762 142 754 q 86 788 100 769 l 221 940 q 246 944 232 944 q 282 928 267 944 q 317 890 290 919 q 369 829 344 861 q 394 783 394 797 q 306 753 394 753 q 283 777 306 750 q 244 832 260 804 q 229 808 242 826 q 201 772 217 789 q 172 754 185 754 m 281 136 q 428 175 347 136 q 440 72 440 133 q 384 9 440 32 q 243 -14 328 -14 q 83 58 139 -14 q 28 314 28 129 q 60 560 28 472 q 146 678 93 647 q 272 708 199 708 q 450 482 450 708 q 431 285 450 361 q 189 265 351 268 q 213 165 193 194 q 281 136 232 136 m 253 575 q 206 529 221 575 q 189 386 192 483 q 293 399 267 386 q 300 471 300 419 q 290 555 300 535 q 253 575 281 575 z "},"ể":{"ha":479,"x_min":28,"x_max":526,"o":"m 386 1115 q 494 1082 463 1115 q 526 1000 526 1049 q 515 951 526 968 q 487 923 503 935 q 467 907 471 911 q 460 892 461 903 q 458 879 458 882 q 386 878 457 878 q 385 883 386 879 q 383 894 383 888 q 388 911 383 903 q 408 935 394 924 q 427 956 421 946 q 433 983 433 967 q 388 1032 433 1032 q 342 1018 360 1032 l 342 1099 q 356 1109 342 1103 q 386 1115 369 1115 m 172 754 q 121 762 142 754 q 86 788 100 769 l 221 940 q 246 944 232 944 q 282 928 267 944 q 317 890 290 919 q 369 829 344 861 q 394 783 394 797 q 306 753 394 753 q 283 777 306 750 q 244 832 260 804 q 229 808 242 826 q 201 772 217 789 q 172 754 185 754 m 450 482 q 431 285 450 361 q 189 265 351 268 q 213 165 193 194 q 281 136 232 136 q 428 175 347 136 q 440 72 440 133 q 384 9 440 32 q 243 -14 328 -14 q 83 58 139 -14 q 28 314 28 129 q 60 560 28 472 q 146 678 93 647 q 272 708 199 708 q 450 482 450 708 m 293 399 q 300 471 300 419 q 290 555 300 535 q 253 575 281 575 q 206 529 221 575 q 189 386 192 483 q 293 399 267 386 z "},"ễ":{"ha":479,"x_min":28,"x_max":454,"o":"m 167 979 q 137 993 150 979 q 115 1022 124 1007 q 106 1042 107 1038 q 175 1113 135 1089 q 250 1138 215 1138 q 278 1131 267 1138 q 300 1111 289 1124 q 321 1094 311 1100 q 344 1088 331 1088 q 374 1094 364 1088 q 395 1112 385 1100 q 414 1124 406 1124 q 433 1108 425 1124 q 447 1075 442 1092 q 454 1053 453 1058 q 433 1028 454 1050 q 381 986 411 1006 q 319 967 351 967 q 289 973 299 967 q 267 993 279 979 q 250 1010 258 1004 q 229 1015 242 1015 q 206 1009 215 1015 q 185 991 196 1003 q 167 979 174 979 m 172 754 q 121 762 142 754 q 86 788 100 769 l 221 940 q 246 944 232 944 q 282 928 267 944 q 317 890 290 919 q 369 829 344 861 q 394 783 394 797 q 306 753 394 753 q 283 777 306 750 q 244 832 260 804 q 229 808 242 826 q 201 772 217 789 q 172 754 185 754 m 450 482 q 431 285 450 361 q 189 265 351 268 q 213 165 193 194 q 281 136 232 136 q 428 175 347 136 q 440 72 440 133 q 384 9 440 32 q 243 -14 328 -14 q 83 58 139 -14 q 28 314 28 129 q 60 560 28 472 q 146 678 93 647 q 272 708 199 708 q 450 482 450 708 m 293 399 q 300 471 300 419 q 290 555 300 535 q 253 575 281 575 q 206 529 221 575 q 189 386 192 483 q 293 399 267 386 z "},"ë":{"ha":479,"x_min":28,"x_max":450,"o":"m 281 136 q 428 175 347 136 q 440 72 440 133 q 384 9 440 32 q 243 -14 328 -14 q 83 58 139 -14 q 28 314 28 129 q 60 560 28 472 q 146 678 93 647 q 272 708 199 708 q 450 482 450 708 q 431 285 450 361 q 189 265 351 268 q 213 165 193 194 q 281 136 232 136 m 253 575 q 206 529 221 575 q 189 386 192 483 q 293 399 267 386 q 300 471 300 419 q 290 555 300 535 q 253 575 281 575 m 146 764 q 93 788 111 764 q 75 869 75 811 q 95 944 75 917 q 156 972 115 972 q 211 951 196 972 q 226 876 226 931 q 206 793 226 822 q 146 764 185 764 m 326 764 q 272 788 290 764 q 254 869 254 811 q 275 944 254 917 q 336 972 296 972 q 390 951 375 972 q 404 876 404 931 q 384 793 404 822 q 326 764 364 764 z "},"ė":{"ha":479,"x_min":28,"x_max":450,"o":"m 281 136 q 428 175 347 136 q 440 72 440 133 q 384 9 440 32 q 243 -14 328 -14 q 83 58 139 -14 q 28 314 28 129 q 60 560 28 472 q 146 678 93 647 q 272 708 199 708 q 450 482 450 708 q 431 285 450 361 q 189 265 351 268 q 213 165 193 194 q 281 136 232 136 m 253 575 q 206 529 221 575 q 189 386 192 483 q 293 399 267 386 q 300 471 300 419 q 290 555 300 535 q 253 575 281 575 m 236 758 q 180 783 199 758 q 161 869 161 808 q 183 949 161 919 q 246 978 204 978 q 303 956 288 978 q 318 876 318 933 q 297 790 318 821 q 236 758 276 758 z "},"ẹ":{"ha":479,"x_min":28,"x_max":450,"o":"m 281 136 q 428 175 347 136 q 440 72 440 133 q 384 9 440 32 q 243 -14 328 -14 q 83 58 139 -14 q 28 314 28 129 q 60 560 28 472 q 146 678 93 647 q 272 708 199 708 q 450 482 450 708 q 431 285 450 361 q 189 265 351 268 q 213 165 193 194 q 281 136 232 136 m 253 575 q 206 529 221 575 q 189 386 192 483 q 293 399 267 386 q 300 471 300 419 q 290 555 300 535 q 253 575 281 575 m 236 -272 q 190 -251 206 -272 q 175 -179 175 -231 q 192 -114 175 -137 q 244 -90 210 -90 q 291 -109 278 -90 q 304 -174 304 -128 q 287 -247 304 -221 q 236 -272 269 -272 z "},"è":{"ha":479,"x_min":28,"x_max":450,"o":"m 281 136 q 428 175 347 136 q 440 72 440 133 q 384 9 440 32 q 243 -14 328 -14 q 83 58 139 -14 q 28 314 28 129 q 60 560 28 472 q 146 678 93 647 q 272 708 199 708 q 450 482 450 708 q 431 285 450 361 q 189 265 351 268 q 213 165 193 194 q 281 136 232 136 m 253 575 q 206 529 221 575 q 189 386 192 483 q 293 399 267 386 q 300 471 300 419 q 290 555 300 535 q 253 575 281 575 m 321 749 q 230 803 307 750 q 128 885 153 857 q 155 962 135 926 q 199 997 175 997 q 279 938 211 997 q 381 833 347 879 q 372 806 379 826 q 352 767 365 786 q 321 749 339 749 z "},"ẻ":{"ha":479,"x_min":28,"x_max":450,"o":"m 281 136 q 428 175 347 136 q 440 72 440 133 q 384 9 440 32 q 243 -14 328 -14 q 83 58 139 -14 q 28 314 28 129 q 60 560 28 472 q 146 678 93 647 q 272 708 199 708 q 450 482 450 708 q 431 285 450 361 q 189 265 351 268 q 213 165 193 194 q 281 136 232 136 m 253 575 q 206 529 221 575 q 189 386 192 483 q 293 399 267 386 q 300 471 300 419 q 290 555 300 535 q 253 575 281 575 m 181 735 q 180 741 181 736 q 179 753 179 746 q 183 775 179 768 q 207 803 188 783 q 230 829 222 817 q 238 863 238 842 q 182 921 238 921 q 128 904 150 921 l 128 1001 q 144 1014 128 1007 q 181 1021 160 1021 q 311 981 272 1021 q 350 883 350 942 q 335 824 350 844 q 302 788 321 803 q 278 769 283 774 q 270 752 272 764 q 268 736 268 740 q 214 733 265 733 l 181 735 z "},"ē":{"ha":479,"x_min":28,"x_max":450,"o":"m 281 136 q 428 175 347 136 q 440 72 440 133 q 384 9 440 32 q 243 -14 328 -14 q 83 58 139 -14 q 28 314 28 129 q 60 560 28 472 q 146 678 93 647 q 272 708 199 708 q 450 482 450 708 q 431 285 450 361 q 189 265 351 268 q 213 165 193 194 q 281 136 232 136 m 253 575 q 206 529 221 575 q 189 386 192 483 q 293 399 267 386 q 300 471 300 419 q 290 555 300 535 q 253 575 281 575 m 56 789 q 44 857 44 818 q 61 912 44 890 q 107 933 78 933 l 421 933 q 436 868 436 903 q 420 811 436 833 q 378 789 404 789 l 56 789 z "},"ę":{"ha":479,"x_min":28,"x_max":450,"o":"m 333 -271 q 210 -147 210 -271 q 243 -14 210 -78 l 238 -14 q 82 60 136 -12 q 28 314 28 132 q 60 560 28 472 q 146 678 93 647 q 272 708 199 708 q 450 482 450 708 q 431 285 450 361 q 189 265 351 268 q 213 165 193 194 q 281 136 232 136 q 428 175 347 136 q 440 72 440 133 q 417 28 440 51 q 366 -44 386 -3 q 346 -125 346 -86 q 354 -154 346 -144 q 381 -164 363 -164 q 417 -154 400 -164 q 431 -214 431 -183 q 425 -240 431 -226 q 333 -271 406 -271 m 189 386 q 293 399 267 386 q 300 471 300 419 q 290 555 300 535 q 253 575 281 575 q 206 530 221 575 q 189 386 192 485 z "},"ẽ":{"ha":479,"x_min":28,"x_max":451,"o":"m 281 136 q 428 175 347 136 q 440 72 440 133 q 384 9 440 32 q 243 -14 328 -14 q 83 58 139 -14 q 28 314 28 129 q 60 560 28 472 q 146 678 93 647 q 272 708 199 708 q 450 482 450 708 q 431 285 450 361 q 189 265 351 268 q 213 165 193 194 q 281 136 232 136 m 253 575 q 206 529 221 575 q 189 386 192 483 q 293 399 267 386 q 300 471 300 419 q 290 555 300 535 q 253 575 281 575 m 288 758 q 249 767 263 758 q 224 790 236 775 q 203 810 213 804 q 178 817 194 817 q 126 789 151 817 q 103 772 113 772 q 67 789 83 772 q 42 824 51 806 q 29 849 32 843 q 113 935 64 906 q 204 964 163 964 q 236 956 224 964 q 264 933 249 949 q 290 911 279 918 q 318 904 301 904 q 353 911 342 904 q 378 932 365 918 q 388 942 382 938 q 401 947 394 947 q 425 928 414 947 q 443 888 436 908 q 451 861 450 868 q 425 831 451 858 q 363 781 399 804 q 288 758 326 758 z "},"f":{"ha":364,"x_min":14,"x_max":478,"o":"m 97 567 l 14 567 q 15 657 14 633 q 24 688 17 681 q 51 694 32 694 l 97 694 l 97 774 q 165 972 97 919 q 339 1025 233 1025 q 442 1007 406 1025 q 478 953 478 989 q 463 869 478 911 q 368 888 425 888 q 281 867 311 888 q 251 790 251 846 l 251 694 l 353 694 q 351 607 353 632 q 343 574 349 582 q 324 567 338 567 l 251 567 l 251 28 q 247 10 251 21 q 224 0 242 0 l 97 0 l 97 567 z "},"g":{"ha":531,"x_min":14,"x_max":524,"o":"m 524 621 q 510 578 524 592 q 475 564 497 564 q 446 568 463 564 q 479 440 479 517 q 426 269 479 325 q 254 214 372 214 q 217 215 229 214 q 199 176 199 192 q 215 161 199 165 q 267 153 231 157 l 319 146 q 458 92 413 131 q 503 -26 503 53 q 438 -203 503 -135 q 239 -272 372 -272 q 14 -117 14 -272 q 107 40 14 -25 q 33 117 33 64 q 54 180 33 149 q 121 249 75 211 q 38 450 38 304 q 97 650 38 592 q 272 708 157 708 q 340 696 306 708 l 507 696 q 524 621 524 663 m 261 328 q 309 360 294 328 q 324 482 324 392 q 310 574 324 547 q 265 600 297 600 q 218 567 235 600 q 201 457 201 535 q 214 356 201 383 q 261 328 226 328 m 346 -47 q 339 -10 346 -24 q 307 11 332 3 q 228 25 282 19 q 189 -22 204 6 q 174 -76 174 -49 q 192 -119 174 -106 q 256 -132 210 -132 q 324 -106 303 -132 q 346 -47 346 -79 z "},"ğ":{"ha":531,"x_min":14,"x_max":524,"o":"m 524 621 q 510 578 524 592 q 475 564 497 564 q 446 568 463 564 q 479 440 479 517 q 426 269 479 325 q 254 214 372 214 q 217 215 229 214 q 199 176 199 192 q 215 161 199 165 q 267 153 231 157 l 319 146 q 458 92 413 131 q 503 -26 503 53 q 438 -203 503 -135 q 239 -272 372 -272 q 14 -117 14 -272 q 107 40 14 -25 q 33 117 33 64 q 54 180 33 149 q 121 249 75 211 q 38 450 38 304 q 97 650 38 592 q 272 708 157 708 q 340 696 306 708 l 507 696 q 524 621 524 663 m 261 328 q 309 360 294 328 q 324 482 324 392 q 310 574 324 547 q 265 600 297 600 q 218 567 235 600 q 201 457 201 535 q 214 356 201 383 q 261 328 226 328 m 346 -47 q 339 -10 346 -24 q 307 11 332 3 q 228 25 282 19 q 189 -22 204 6 q 174 -76 174 -49 q 192 -119 174 -106 q 256 -132 210 -132 q 324 -106 303 -132 q 346 -47 346 -79 m 257 753 q 171 776 214 753 q 101 835 128 799 q 74 908 74 871 q 91 959 74 939 q 153 996 108 979 q 194 929 167 958 q 258 900 222 900 q 315 919 294 900 q 356 975 335 939 q 382 990 365 990 q 428 965 404 990 q 457 910 451 939 q 257 753 399 753 z "},"ģ":{"ha":531,"x_min":14,"x_max":524,"o":"m 269 761 q 201 785 225 761 q 176 856 176 810 q 199 954 176 907 q 252 1032 222 1001 q 297 1063 282 1063 q 334 1054 319 1063 q 353 1024 349 1046 q 327 972 332 989 q 318 925 322 956 q 347 893 339 913 q 354 846 354 874 q 331 785 354 810 q 269 761 307 761 m 524 621 q 510 578 524 592 q 475 564 497 564 q 446 568 463 564 q 479 440 479 517 q 426 269 479 325 q 254 214 372 214 q 217 215 229 214 q 199 176 199 192 q 215 161 199 165 q 267 153 231 157 l 319 146 q 458 92 413 131 q 503 -26 503 53 q 438 -203 503 -135 q 239 -272 372 -272 q 14 -117 14 -272 q 107 40 14 -25 q 33 117 33 64 q 54 180 33 149 q 121 249 75 211 q 38 450 38 304 q 97 650 38 592 q 272 708 157 708 q 340 696 306 708 l 507 696 q 524 621 524 663 m 261 328 q 309 360 294 328 q 324 482 324 392 q 310 574 324 547 q 265 600 297 600 q 218 567 235 600 q 201 457 201 535 q 214 356 201 383 q 261 328 226 328 m 346 -47 q 339 -10 346 -24 q 307 11 332 3 q 228 25 282 19 q 189 -22 204 6 q 174 -76 174 -49 q 192 -119 174 -106 q 256 -132 210 -132 q 324 -106 303 -132 q 346 -47 346 -79 z "},"h":{"ha":503,"x_min":46,"x_max":461,"o":"m 46 953 q 58 1001 46 988 q 98 1017 69 1014 q 200 1021 126 1021 l 200 660 q 260 696 224 683 q 333 708 297 708 q 435 667 410 708 q 461 529 461 625 l 461 28 q 452 8 461 13 q 404 1 443 3 q 301 0 365 0 l 301 481 q 293 544 301 522 q 257 567 285 567 q 200 549 228 567 l 200 28 q 193 8 200 13 q 149 1 186 3 q 46 0 111 0 l 46 953 z "},"i":{"ha":250,"x_min":46,"x_max":203,"o":"m 46 626 q 58 674 46 661 q 100 691 71 688 q 203 694 129 694 l 203 28 q 196 8 203 13 q 150 1 189 3 q 46 0 111 0 l 46 626 m 121 758 q 65 783 83 758 q 46 869 46 808 q 67 949 46 919 q 131 978 89 978 q 188 956 172 978 q 203 876 203 933 q 182 790 203 821 q 121 758 161 758 z "},"ı":{"ha":250,"x_min":46,"x_max":203,"o":"m 46 626 q 58 674 46 661 q 100 691 71 688 q 203 694 129 694 l 203 28 q 196 8 203 13 q 150 1 189 3 q 46 0 111 0 l 46 626 z "},"í":{"ha":250,"x_min":13,"x_max":265,"o":"m 46 626 q 58 674 46 661 q 100 691 71 688 q 203 694 129 694 l 203 28 q 196 8 203 13 q 150 1 189 3 q 46 0 111 0 l 46 626 m 72 763 q 41 781 54 763 q 21 820 28 800 q 13 847 14 840 q 74 916 35 878 q 150 983 114 954 q 194 1011 186 1011 q 238 976 218 1011 q 265 897 258 940 q 163 817 242 869 q 72 763 85 764 z "},"î":{"ha":250,"x_min":-61,"x_max":311,"o":"m 46 626 q 58 674 46 661 q 100 691 71 688 q 203 694 129 694 l 203 28 q 196 8 203 13 q 150 1 189 3 q 46 0 111 0 l 46 626 m 204 764 q 188 780 200 767 q 159 815 175 793 q 131 860 143 836 q 112 830 126 853 q 78 786 97 807 q 43 765 58 765 q -61 806 -29 765 l 101 992 q 132 996 115 996 q 175 976 157 996 q 217 931 185 967 q 281 857 250 896 q 311 801 311 818 q 204 764 311 764 z "},"ï":{"ha":250,"x_min":-40,"x_max":289,"o":"m 46 626 q 58 674 46 661 q 100 691 71 688 q 203 694 129 694 l 203 28 q 196 8 203 13 q 150 1 189 3 q 46 0 111 0 l 46 626 m 31 764 q -22 788 -4 764 q -40 869 -40 811 q -20 944 -40 917 q 40 972 0 972 q 96 951 81 972 q 111 876 111 931 q 90 793 111 822 q 31 764 69 764 m 211 764 q 157 788 175 764 q 139 869 139 811 q 160 944 139 917 q 221 972 181 972 q 274 951 260 972 q 289 876 289 931 q 269 793 289 822 q 211 764 249 764 z "},"ị":{"ha":250,"x_min":46,"x_max":203,"o":"m 46 626 q 58 674 46 661 q 100 691 71 688 q 203 694 129 694 l 203 28 q 196 8 203 13 q 150 1 189 3 q 46 0 111 0 l 46 626 m 121 758 q 65 783 83 758 q 46 869 46 808 q 67 949 46 919 q 131 978 89 978 q 188 956 172 978 q 203 876 203 933 q 182 790 203 821 q 121 758 161 758 m 122 -272 q 76 -251 92 -272 q 61 -179 61 -231 q 78 -114 61 -137 q 131 -90 96 -90 q 177 -109 164 -90 q 190 -174 190 -128 q 173 -247 190 -221 q 122 -272 156 -272 z "},"ì":{"ha":250,"x_min":13,"x_max":265,"o":"m 46 626 q 58 674 46 661 q 100 691 71 688 q 203 694 129 694 l 203 28 q 196 8 203 13 q 150 1 189 3 q 46 0 111 0 l 46 626 m 206 749 q 115 803 192 750 q 13 885 38 857 q 40 962 19 926 q 83 997 60 997 q 164 938 96 997 q 265 833 232 879 q 257 806 264 826 q 237 767 250 786 q 206 749 224 749 z "},"ỉ":{"ha":250,"x_min":13,"x_max":235,"o":"m 46 626 q 58 674 46 661 q 100 691 71 688 q 203 694 129 694 l 203 28 q 196 8 203 13 q 150 1 189 3 q 46 0 111 0 l 46 626 m 65 735 q 65 741 65 736 q 64 753 64 746 q 68 775 64 768 q 92 803 72 783 q 115 829 107 817 q 122 863 122 842 q 67 921 122 921 q 13 904 35 921 l 13 1001 q 28 1014 13 1007 q 65 1021 44 1021 q 196 981 157 1021 q 235 883 235 942 q 220 824 235 844 q 187 788 206 803 q 163 769 168 774 q 155 752 157 764 q 153 736 153 740 q 99 733 150 733 l 65 735 z "},"ĳ":{"ha":510,"x_min":46,"x_max":461,"o":"m 46 626 q 58 674 46 661 q 100 691 71 688 q 203 694 129 694 l 203 28 q 196 8 203 13 q 150 1 189 3 q 46 0 111 0 l 46 626 m 121 758 q 65 783 83 758 q 46 869 46 808 q 67 949 46 919 q 131 978 89 978 q 188 956 172 978 q 203 876 203 933 q 182 790 203 821 q 121 758 161 758 m 269 -274 q 158 -253 190 -274 q 125 -190 125 -233 q 146 -115 125 -142 q 246 -133 186 -133 q 295 -112 283 -133 q 307 -29 307 -90 l 307 626 q 319 674 307 661 q 360 691 332 688 q 461 694 389 694 l 461 -50 q 419 -212 461 -151 q 269 -274 378 -274 m 376 758 q 320 783 339 758 q 301 869 301 808 q 323 949 301 919 q 386 978 344 978 q 443 956 428 978 q 458 876 458 933 q 438 790 458 821 q 376 758 417 758 z "},"ī":{"ha":250,"x_min":-15,"x_max":265,"o":"m 46 626 q 58 674 46 661 q 100 691 71 688 q 203 694 129 694 l 203 28 q 196 8 203 13 q 150 1 189 3 q 46 0 111 0 l 46 626 m -4 789 q -15 857 -15 818 q 1 912 -15 890 q 47 933 18 933 l 250 933 q 265 868 265 903 q 249 811 265 833 q 207 789 233 789 l -4 789 z "},"į":{"ha":250,"x_min":-14,"x_max":208,"o":"m 121 758 q 65 783 83 758 q 46 869 46 808 q 67 949 46 919 q 131 978 89 978 q 188 956 172 978 q 203 876 203 933 q 182 790 203 821 q 121 758 161 758 m 114 -271 q -14 -153 -14 -271 q 1 -75 -14 -108 q 46 0 17 -42 l 46 626 q 53 676 46 664 q 89 692 61 689 q 203 694 117 694 l 203 28 q 200 12 203 18 q 188 -4 197 6 q 122 -126 122 -74 q 131 -155 122 -146 q 158 -164 139 -164 q 193 -154 179 -164 q 204 -185 200 -168 q 208 -214 208 -203 q 182 -257 208 -243 q 114 -271 156 -271 z "},"ĩ":{"ha":250,"x_min":-86,"x_max":336,"o":"m 46 626 q 58 674 46 661 q 100 691 71 688 q 203 694 129 694 l 203 28 q 196 8 203 13 q 150 1 189 3 q 46 0 111 0 l 46 626 m 172 758 q 134 767 147 758 q 108 790 121 775 q 88 810 97 804 q 63 817 79 817 q 11 789 36 817 q -12 772 -3 772 q -48 789 -32 772 q -74 824 -64 806 q -86 849 -83 843 q -2 935 -51 906 q 89 964 47 964 q 121 956 108 964 q 149 933 133 949 q 175 911 164 918 q 203 904 186 904 q 238 911 226 904 q 263 932 250 918 q 273 942 267 938 q 286 947 279 947 q 310 928 299 947 q 328 888 321 908 q 336 861 335 868 q 310 831 336 858 q 247 781 283 804 q 172 758 211 758 z "},"j":{"ha":260,"x_min":-125,"x_max":211,"o":"m 19 -274 q -92 -253 -60 -274 q -125 -190 -125 -233 q -104 -115 -125 -142 q -4 -133 -64 -133 q 45 -112 33 -133 q 57 -29 57 -90 l 57 626 q 69 674 57 661 q 110 691 82 688 q 211 694 139 694 l 211 -50 q 169 -212 211 -151 q 19 -274 128 -274 m 126 758 q 70 783 89 758 q 51 869 51 808 q 73 949 51 919 q 136 978 94 978 q 193 956 178 978 q 208 876 208 933 q 188 790 208 821 q 126 758 167 758 z "},"ȷ":{"ha":260,"x_min":-125,"x_max":211,"o":"m 19 -274 q -92 -253 -60 -274 q -125 -190 -125 -233 q -104 -115 -125 -142 q -4 -133 -64 -133 q 45 -112 33 -133 q 57 -29 57 -90 l 57 626 q 69 674 57 661 q 110 691 82 688 q 211 694 139 694 l 211 -50 q 169 -212 211 -151 q 19 -274 128 -274 z "},"k":{"ha":501,"x_min":46,"x_max":485,"o":"m 46 953 q 58 1001 46 988 q 99 1017 71 1014 q 201 1021 128 1021 l 201 668 q 350 708 272 708 q 440 674 414 708 q 465 590 465 640 q 440 467 465 521 q 383 381 415 414 q 485 118 482 308 q 481 24 485 72 q 471 7 479 11 q 419 1 463 3 q 304 0 376 0 q 311 142 311 79 q 250 308 311 308 q 217 299 233 308 q 201 288 201 289 l 201 28 q 194 8 201 13 q 150 1 188 3 q 46 0 113 0 l 46 953 m 201 390 q 269 450 247 417 q 292 532 292 483 q 264 571 292 571 q 201 531 231 571 l 201 390 z "},"ķ":{"ha":501,"x_min":46,"x_max":485,"o":"m 46 953 q 58 1001 46 988 q 99 1017 71 1014 q 201 1021 128 1021 l 201 668 q 350 708 272 708 q 440 674 414 708 q 465 590 465 640 q 440 467 465 521 q 383 381 415 414 q 485 118 482 308 q 481 24 485 72 q 471 7 479 11 q 419 1 463 3 q 304 0 376 0 q 311 142 311 79 q 250 308 311 308 q 217 299 233 308 q 201 288 201 289 l 201 28 q 194 8 201 13 q 150 1 188 3 q 46 0 113 0 l 46 953 m 201 390 q 269 450 247 417 q 292 532 292 483 q 264 571 292 571 q 201 531 231 571 l 201 390 m 217 -386 q 178 -378 193 -386 q 158 -346 164 -369 q 185 -292 181 -310 q 196 -242 190 -275 q 165 -209 174 -229 q 157 -158 157 -189 q 183 -95 157 -121 q 246 -69 208 -69 q 319 -95 293 -69 q 344 -169 344 -121 q 320 -273 344 -224 q 265 -354 296 -322 q 217 -386 233 -386 z "},"l":{"ha":247,"x_min":46,"x_max":200,"o":"m 46 953 q 58 1001 46 988 q 99 1017 71 1014 q 200 1021 128 1021 l 200 28 q 193 8 200 13 q 149 1 186 3 q 46 0 111 0 l 46 953 z "},"ĺ":{"ha":247,"x_min":11,"x_max":264,"o":"m 46 953 q 58 1001 46 988 q 99 1017 71 1014 q 200 1021 128 1021 l 200 28 q 193 8 200 13 q 149 1 186 3 q 46 0 111 0 l 46 953 m 71 1089 q 40 1108 53 1089 q 19 1147 26 1126 q 11 1174 13 1167 q 73 1242 33 1204 q 149 1309 113 1281 q 193 1338 185 1338 q 237 1302 217 1338 q 264 1224 257 1267 q 162 1143 240 1196 q 71 1089 83 1090 z "},"ľ":{"ha":247,"x_min":46,"x_max":200,"o":"m 46 953 q 58 1001 46 988 q 99 1017 71 1014 q 200 1021 128 1021 l 200 28 q 193 8 200 13 q 149 1 186 3 q 46 0 111 0 l 46 953 z "},"ļ":{"ha":247,"x_min":29,"x_max":217,"o":"m 46 953 q 58 1001 46 988 q 99 1017 71 1014 q 200 1021 128 1021 l 200 28 q 193 8 200 13 q 149 1 186 3 q 46 0 111 0 l 46 953 m 89 -386 q 51 -378 65 -386 q 31 -346 36 -369 q 58 -292 53 -310 q 68 -242 63 -275 q 38 -209 46 -229 q 29 -158 29 -189 q 55 -95 29 -121 q 118 -69 81 -69 q 191 -95 165 -69 q 217 -169 217 -121 q 192 -273 217 -224 q 137 -354 168 -322 q 89 -386 106 -386 z "},"ŀ":{"ha":392,"x_min":46,"x_max":417,"o":"m 46 953 q 58 1001 46 988 q 99 1017 71 1014 q 200 1021 128 1021 l 200 28 q 193 8 200 13 q 149 1 186 3 q 46 0 111 0 l 46 953 m 319 274 q 243 298 265 274 q 221 372 221 322 q 247 444 221 415 q 319 474 274 474 q 394 447 372 474 q 417 372 417 421 q 390 302 417 331 q 319 274 364 274 z "},"ł":{"ha":275,"x_min":1,"x_max":279,"o":"m 261 697 q 279 592 279 618 q 263 563 279 567 l 214 551 l 214 28 q 207 8 214 13 q 163 1 200 3 q 60 0 125 0 l 60 517 l 19 508 q 1 613 1 585 q 19 644 1 640 l 60 653 l 60 953 q 72 1001 60 988 q 113 1017 85 1014 q 214 1021 142 1021 l 214 688 l 261 697 z "},"m":{"ha":738,"x_min":46,"x_max":697,"o":"m 540 708 q 642 687 608 708 q 687 626 676 665 q 697 519 697 588 l 697 28 q 690 8 697 13 q 644 1 682 3 q 543 0 606 0 l 543 515 q 535 561 543 549 q 501 574 526 574 q 449 561 472 574 l 449 28 q 442 8 449 13 q 399 1 436 3 q 299 0 363 0 l 297 0 l 294 0 l 294 521 q 287 566 294 556 q 254 576 279 576 q 200 560 229 576 l 200 28 q 192 8 200 13 q 147 1 185 3 q 46 0 110 0 l 46 663 q 260 708 144 708 q 376 671 335 708 q 456 699 413 689 q 540 708 500 708 z "},"n":{"ha":503,"x_min":46,"x_max":461,"o":"m 46 663 q 147 694 82 679 q 261 708 211 708 q 415 669 369 708 q 461 529 461 631 l 461 28 q 453 8 461 13 q 406 1 446 3 q 301 0 367 0 l 301 481 q 292 557 301 538 q 256 576 283 576 q 200 560 225 576 l 200 28 q 192 8 200 13 q 147 1 185 3 q 46 0 110 0 l 46 663 z "},"ń":{"ha":503,"x_min":46,"x_max":461,"o":"m 46 663 q 147 694 82 679 q 261 708 211 708 q 415 669 369 708 q 461 529 461 631 l 461 28 q 453 8 461 13 q 406 1 446 3 q 301 0 367 0 l 301 481 q 292 557 301 538 q 256 576 283 576 q 200 560 225 576 l 200 28 q 192 8 200 13 q 147 1 185 3 q 46 0 110 0 l 46 663 m 199 763 q 167 781 181 763 q 147 820 154 800 q 139 847 140 840 q 201 916 161 878 q 276 983 240 954 q 321 1011 313 1011 q 365 976 344 1011 q 392 897 385 940 q 290 817 368 869 q 199 763 211 764 z "},"ŉ":{"ha":503,"x_min":46,"x_max":461,"o":"m 46 663 q 147 694 82 679 q 261 708 211 708 q 415 669 369 708 q 461 529 461 631 l 461 28 q 453 8 461 13 q 406 1 446 3 q 301 0 367 0 l 301 481 q 292 557 301 538 q 256 576 283 576 q 200 560 225 576 l 200 28 q 192 8 200 13 q 147 1 185 3 q 46 0 110 0 l 46 663 m 110 793 q 72 801 86 793 q 51 833 57 810 q 78 887 74 869 q 89 939 83 904 q 58 971 67 951 q 50 1021 50 990 q 76 1085 50 1058 q 139 1111 101 1111 q 211 1085 186 1111 q 236 1010 236 1058 q 212 907 236 957 q 157 825 188 857 q 110 793 126 793 z "},"ň":{"ha":503,"x_min":46,"x_max":461,"o":"m 46 663 q 147 694 82 679 q 261 708 211 708 q 415 669 369 708 q 461 529 461 631 l 461 28 q 453 8 461 13 q 406 1 446 3 q 301 0 367 0 l 301 481 q 292 557 301 538 q 256 576 283 576 q 200 560 225 576 l 200 28 q 192 8 200 13 q 147 1 185 3 q 46 0 110 0 l 46 663 m 260 753 q 176 809 238 753 q 88 903 114 865 q 120 969 100 939 q 156 1000 140 1000 q 194 977 169 1000 q 240 929 218 954 q 267 896 261 904 q 308 950 288 929 q 340 981 328 971 q 356 992 353 990 q 400 959 383 976 q 417 925 417 942 q 383 867 417 908 q 311 789 350 825 q 260 753 272 753 z "},"ņ":{"ha":503,"x_min":46,"x_max":461,"o":"m 46 663 q 147 694 82 679 q 261 708 211 708 q 415 669 369 708 q 461 529 461 631 l 461 28 q 453 8 461 13 q 406 1 446 3 q 301 0 367 0 l 301 481 q 292 557 301 538 q 256 576 283 576 q 200 560 225 576 l 200 28 q 192 8 200 13 q 147 1 185 3 q 46 0 110 0 l 46 663 m 217 -386 q 178 -378 193 -386 q 158 -346 164 -369 q 185 -292 181 -310 q 196 -242 190 -275 q 165 -209 174 -229 q 157 -158 157 -189 q 183 -95 157 -121 q 246 -69 208 -69 q 319 -95 293 -69 q 344 -169 344 -121 q 320 -273 344 -224 q 265 -354 296 -322 q 217 -386 233 -386 z "},"ñ":{"ha":503,"x_min":40,"x_max":463,"o":"m 46 663 q 147 694 82 679 q 261 708 211 708 q 415 669 369 708 q 461 529 461 631 l 461 28 q 453 8 461 13 q 406 1 446 3 q 301 0 367 0 l 301 481 q 292 557 301 538 q 256 576 283 576 q 200 560 225 576 l 200 28 q 192 8 200 13 q 147 1 185 3 q 46 0 110 0 l 46 663 m 299 758 q 260 767 274 758 q 235 790 247 775 q 215 810 224 804 q 189 817 206 817 q 138 789 163 817 q 114 772 124 772 q 78 789 94 772 q 53 824 63 806 q 40 849 43 843 q 124 935 75 906 q 215 964 174 964 q 247 956 235 964 q 275 933 260 949 q 301 911 290 918 q 329 904 313 904 q 365 911 353 904 q 389 932 376 918 q 399 942 393 938 q 413 947 406 947 q 436 928 425 947 q 454 888 447 908 q 463 861 461 868 q 436 831 463 858 q 374 781 410 804 q 299 758 338 758 z "},"o":{"ha":503,"x_min":28,"x_max":475,"o":"m 247 -14 q 119 13 165 -14 q 51 118 74 40 q 28 349 28 196 q 258 708 28 708 q 383 677 336 708 q 452 569 429 646 q 475 354 475 493 q 419 72 475 158 q 247 -14 363 -14 m 251 114 q 279 130 268 114 q 298 198 290 146 q 306 350 306 250 q 301 499 306 451 q 286 564 297 547 q 253 581 275 581 q 212 533 226 581 q 197 350 197 486 q 203 195 197 246 q 221 129 210 144 q 251 114 232 114 z "},"ó":{"ha":503,"x_min":28,"x_max":475,"o":"m 247 -14 q 119 13 165 -14 q 51 118 74 40 q 28 349 28 196 q 258 708 28 708 q 383 677 336 708 q 452 569 429 646 q 475 354 475 493 q 419 72 475 158 q 247 -14 363 -14 m 251 114 q 279 130 268 114 q 298 198 290 146 q 306 350 306 250 q 301 499 306 451 q 286 564 297 547 q 253 581 275 581 q 212 533 226 581 q 197 350 197 486 q 203 195 197 246 q 221 129 210 144 q 251 114 232 114 m 199 763 q 167 781 181 763 q 147 820 154 800 q 139 847 140 840 q 201 916 161 878 q 276 983 240 954 q 321 1011 313 1011 q 365 976 344 1011 q 392 897 385 940 q 290 817 368 869 q 199 763 211 764 z "},"ô":{"ha":503,"x_min":28,"x_max":475,"o":"m 247 -14 q 119 13 165 -14 q 51 118 74 40 q 28 349 28 196 q 258 708 28 708 q 383 677 336 708 q 452 569 429 646 q 475 354 475 493 q 419 72 475 158 q 247 -14 363 -14 m 251 114 q 279 130 268 114 q 298 198 290 146 q 306 350 306 250 q 301 499 306 451 q 286 564 297 547 q 253 581 275 581 q 212 533 226 581 q 197 350 197 486 q 203 195 197 246 q 221 129 210 144 q 251 114 232 114 m 331 764 q 314 780 326 767 q 285 815 301 793 q 257 860 269 836 q 238 830 253 853 q 204 786 224 807 q 169 765 185 765 q 65 806 97 765 l 228 992 q 258 996 242 996 q 301 976 283 996 q 344 931 311 967 q 407 857 376 896 q 438 801 438 818 q 331 764 438 764 z "},"ố":{"ha":503,"x_min":28,"x_max":578,"o":"m 418 861 q 392 876 403 861 q 376 908 382 892 q 369 931 371 925 q 453 1017 397 968 q 519 1067 508 1067 q 556 1038 540 1067 q 578 972 572 1008 q 493 906 557 950 q 418 861 429 863 m 317 753 q 294 777 317 750 q 256 832 271 804 q 240 808 253 826 q 212 772 228 789 q 183 754 196 754 q 132 762 153 754 q 97 788 111 769 l 232 940 q 257 944 242 944 q 293 928 278 944 q 328 890 301 919 q 381 829 356 861 q 406 783 406 797 q 317 753 406 753 m 247 -14 q 119 13 165 -14 q 51 118 74 40 q 28 349 28 196 q 258 708 28 708 q 383 677 336 708 q 452 569 429 646 q 475 354 475 493 q 419 72 475 158 q 247 -14 363 -14 m 251 114 q 279 130 268 114 q 298 198 290 146 q 306 350 306 250 q 301 499 306 451 q 286 564 297 547 q 253 581 275 581 q 212 533 226 581 q 197 350 197 486 q 203 195 197 246 q 221 129 210 144 q 251 114 232 114 z "},"ộ":{"ha":503,"x_min":28,"x_max":475,"o":"m 247 -14 q 119 13 165 -14 q 51 118 74 40 q 28 349 28 196 q 258 708 28 708 q 383 677 336 708 q 452 569 429 646 q 475 354 475 493 q 419 72 475 158 q 247 -14 363 -14 m 251 114 q 279 130 268 114 q 298 198 290 146 q 306 350 306 250 q 301 499 306 451 q 286 564 297 547 q 253 581 275 581 q 212 533 226 581 q 197 350 197 486 q 203 195 197 246 q 221 129 210 144 q 251 114 232 114 m 249 -272 q 203 -251 218 -272 q 188 -179 188 -231 q 205 -114 188 -137 q 257 -90 222 -90 q 303 -109 290 -90 q 317 -174 317 -128 q 299 -247 317 -221 q 249 -272 282 -272 m 331 764 q 314 780 326 767 q 285 815 301 793 q 257 860 269 836 q 238 830 253 853 q 204 786 224 807 q 169 765 185 765 q 65 806 97 765 l 228 992 q 258 996 242 996 q 301 976 283 996 q 344 931 311 967 q 407 857 376 896 q 438 801 438 818 q 331 764 438 764 z "},"ồ":{"ha":503,"x_min":28,"x_max":475,"o":"m 392 917 q 317 962 381 918 q 233 1029 253 1006 q 254 1092 238 1063 q 292 1122 271 1122 q 358 1073 303 1122 q 442 986 414 1024 q 435 964 440 981 q 418 932 429 947 q 392 917 407 917 m 317 753 q 294 777 317 750 q 256 832 271 804 q 240 808 253 826 q 212 772 228 789 q 183 754 196 754 q 132 762 153 754 q 97 788 111 769 l 232 940 q 257 944 242 944 q 293 928 278 944 q 328 890 301 919 q 381 829 356 861 q 406 783 406 797 q 317 753 406 753 m 247 -14 q 119 13 165 -14 q 51 118 74 40 q 28 349 28 196 q 258 708 28 708 q 383 677 336 708 q 452 569 429 646 q 475 354 475 493 q 419 72 475 158 q 247 -14 363 -14 m 251 114 q 279 130 268 114 q 298 198 290 146 q 306 350 306 250 q 301 499 306 451 q 286 564 297 547 q 253 581 275 581 q 212 533 226 581 q 197 350 197 486 q 203 195 197 246 q 221 129 210 144 q 251 114 232 114 z "},"ổ":{"ha":503,"x_min":28,"x_max":538,"o":"m 397 878 q 396 883 397 879 q 394 894 394 888 q 399 911 394 903 q 419 935 406 924 q 438 956 432 946 q 444 983 444 967 q 399 1032 444 1032 q 353 1018 371 1032 l 353 1099 q 367 1109 353 1103 q 397 1115 381 1115 q 506 1082 474 1115 q 538 1000 538 1049 q 526 951 538 968 q 498 923 514 935 q 478 907 482 911 q 471 892 472 903 q 469 879 469 882 q 397 878 468 878 m 317 753 q 294 777 317 750 q 256 832 271 804 q 240 808 253 826 q 212 772 228 789 q 183 754 196 754 q 132 762 153 754 q 97 788 111 769 l 232 940 q 257 944 242 944 q 293 928 278 944 q 328 890 301 919 q 381 829 356 861 q 406 783 406 797 q 317 753 406 753 m 247 -14 q 119 13 165 -14 q 51 118 74 40 q 28 349 28 196 q 258 708 28 708 q 383 677 336 708 q 452 569 429 646 q 475 354 475 493 q 419 72 475 158 q 247 -14 363 -14 m 251 114 q 279 130 268 114 q 298 198 290 146 q 306 350 306 250 q 301 499 306 451 q 286 564 297 547 q 253 581 275 581 q 212 533 226 581 q 197 350 197 486 q 203 195 197 246 q 221 129 210 144 q 251 114 232 114 z "},"ỗ":{"ha":503,"x_min":28,"x_max":475,"o":"m 331 967 q 300 973 310 967 q 278 993 290 979 q 261 1010 269 1004 q 240 1015 253 1015 q 217 1009 226 1015 q 196 991 207 1003 q 178 979 185 979 q 148 993 161 979 q 126 1022 135 1007 q 117 1042 118 1038 q 186 1113 146 1089 q 261 1138 226 1138 q 289 1131 278 1138 q 311 1111 300 1124 q 332 1094 322 1100 q 356 1088 342 1088 q 385 1094 375 1088 q 406 1112 396 1100 q 425 1124 417 1124 q 444 1108 436 1124 q 458 1075 453 1092 q 465 1053 464 1058 q 444 1028 465 1050 q 392 986 422 1006 q 331 967 363 967 m 317 753 q 294 777 317 750 q 256 832 271 804 q 240 808 253 826 q 212 772 228 789 q 183 754 196 754 q 132 762 153 754 q 97 788 111 769 l 232 940 q 257 944 242 944 q 293 928 278 944 q 328 890 301 919 q 381 829 356 861 q 406 783 406 797 q 317 753 406 753 m 247 -14 q 119 13 165 -14 q 51 118 74 40 q 28 349 28 196 q 258 708 28 708 q 383 677 336 708 q 452 569 429 646 q 475 354 475 493 q 419 72 475 158 q 247 -14 363 -14 m 251 114 q 279 130 268 114 q 298 198 290 146 q 306 350 306 250 q 301 499 306 451 q 286 564 297 547 q 253 581 275 581 q 212 533 226 581 q 197 350 197 486 q 203 195 197 246 q 221 129 210 144 q 251 114 232 114 z "},"ö":{"ha":503,"x_min":28,"x_max":475,"o":"m 247 -14 q 119 13 165 -14 q 51 118 74 40 q 28 349 28 196 q 258 708 28 708 q 383 677 336 708 q 452 569 429 646 q 475 354 475 493 q 419 72 475 158 q 247 -14 363 -14 m 251 114 q 279 130 268 114 q 298 198 290 146 q 306 350 306 250 q 301 499 306 451 q 286 564 297 547 q 253 581 275 581 q 212 533 226 581 q 197 350 197 486 q 203 195 197 246 q 221 129 210 144 q 251 114 232 114 m 157 764 q 104 788 122 764 q 86 869 86 811 q 106 944 86 917 q 167 972 126 972 q 222 951 207 972 q 238 876 238 931 q 217 793 238 822 q 157 764 196 764 m 338 764 q 283 788 301 764 q 265 869 265 811 q 286 944 265 917 q 347 972 307 972 q 401 951 386 972 q 415 876 415 931 q 395 793 415 822 q 338 764 375 764 z "},"ọ":{"ha":503,"x_min":28,"x_max":475,"o":"m 247 -14 q 119 13 165 -14 q 51 118 74 40 q 28 349 28 196 q 258 708 28 708 q 383 677 336 708 q 452 569 429 646 q 475 354 475 493 q 419 72 475 158 q 247 -14 363 -14 m 251 114 q 279 130 268 114 q 298 198 290 146 q 306 350 306 250 q 301 499 306 451 q 286 564 297 547 q 253 581 275 581 q 212 533 226 581 q 197 350 197 486 q 203 195 197 246 q 221 129 210 144 q 251 114 232 114 m 249 -272 q 203 -251 218 -272 q 188 -179 188 -231 q 205 -114 188 -137 q 257 -90 222 -90 q 303 -109 290 -90 q 317 -174 317 -128 q 299 -247 317 -221 q 249 -272 282 -272 z "},"ò":{"ha":503,"x_min":28,"x_max":475,"o":"m 247 -14 q 119 13 165 -14 q 51 118 74 40 q 28 349 28 196 q 258 708 28 708 q 383 677 336 708 q 452 569 429 646 q 475 354 475 493 q 419 72 475 158 q 247 -14 363 -14 m 251 114 q 279 130 268 114 q 298 198 290 146 q 306 350 306 250 q 301 499 306 451 q 286 564 297 547 q 253 581 275 581 q 212 533 226 581 q 197 350 197 486 q 203 195 197 246 q 221 129 210 144 q 251 114 232 114 m 332 749 q 241 803 318 750 q 139 885 164 857 q 166 962 146 926 q 210 997 186 997 q 290 938 222 997 q 392 833 358 879 q 383 806 390 826 q 363 767 376 786 q 332 749 350 749 z "},"ỏ":{"ha":503,"x_min":28,"x_max":475,"o":"m 247 -14 q 119 13 165 -14 q 51 118 74 40 q 28 349 28 196 q 258 708 28 708 q 383 677 336 708 q 452 569 429 646 q 475 354 475 493 q 419 72 475 158 q 247 -14 363 -14 m 251 114 q 279 130 268 114 q 298 198 290 146 q 306 350 306 250 q 301 499 306 451 q 286 564 297 547 q 253 581 275 581 q 212 533 226 581 q 197 350 197 486 q 203 195 197 246 q 221 129 210 144 q 251 114 232 114 m 192 735 q 191 741 192 736 q 190 753 190 746 q 194 775 190 768 q 218 803 199 783 q 241 829 233 817 q 249 863 249 842 q 193 921 249 921 q 139 904 161 921 l 139 1001 q 155 1014 139 1007 q 192 1021 171 1021 q 322 981 283 1021 q 361 883 361 942 q 347 824 361 844 q 313 788 332 803 q 289 769 294 774 q 281 752 283 764 q 279 736 279 740 q 225 733 276 733 l 192 735 z "},"ơ":{"ha":503,"x_min":28,"x_max":513,"o":"m 511 775 q 493 696 513 738 q 428 628 474 654 q 475 354 475 547 q 419 72 475 158 q 247 -14 363 -14 q 119 13 165 -14 q 51 118 74 40 q 28 349 28 196 q 258 708 28 708 q 343 697 310 708 q 380 726 369 706 q 390 781 390 747 q 404 790 390 786 q 438 793 418 793 q 488 788 465 793 q 511 775 511 783 m 251 114 q 279 130 268 114 q 298 198 290 146 q 306 350 306 250 q 301 499 306 451 q 286 564 297 547 q 253 581 275 581 q 212 533 226 581 q 197 350 197 486 q 203 195 197 246 q 221 129 210 144 q 251 114 232 114 z "},"ớ":{"ha":503,"x_min":28,"x_max":511,"o":"m 511 775 q 493 696 513 738 q 428 628 474 654 q 475 354 475 547 q 419 72 475 158 q 247 -14 363 -14 q 119 13 165 -14 q 51 118 74 40 q 28 349 28 196 q 258 708 28 708 q 343 697 310 708 q 380 726 369 706 q 390 781 390 747 q 404 790 390 786 q 438 793 418 793 q 488 788 465 793 q 511 775 511 783 m 251 114 q 279 130 268 114 q 298 198 290 146 q 306 350 306 250 q 301 499 306 451 q 286 564 297 547 q 253 581 275 581 q 212 533 226 581 q 197 350 197 486 q 203 195 197 246 q 221 129 210 144 q 251 114 232 114 m 199 763 q 167 781 181 763 q 147 820 154 800 q 139 847 140 840 q 201 916 161 878 q 276 983 240 954 q 321 1011 313 1011 q 365 976 344 1011 q 392 897 385 940 q 290 817 368 869 q 199 763 211 764 z "},"ợ":{"ha":503,"x_min":28,"x_max":511,"o":"m 511 775 q 493 696 513 738 q 428 628 474 654 q 475 354 475 547 q 419 72 475 158 q 247 -14 363 -14 q 119 13 165 -14 q 51 118 74 40 q 28 349 28 196 q 258 708 28 708 q 343 697 310 708 q 380 726 369 706 q 390 781 390 747 q 404 790 390 786 q 438 793 418 793 q 488 788 465 793 q 511 775 511 783 m 251 114 q 279 130 268 114 q 298 198 290 146 q 306 350 306 250 q 301 499 306 451 q 286 564 297 547 q 253 581 275 581 q 212 533 226 581 q 197 350 197 486 q 203 195 197 246 q 221 129 210 144 q 251 114 232 114 m 249 -272 q 203 -251 218 -272 q 188 -179 188 -231 q 205 -114 188 -137 q 257 -90 222 -90 q 303 -109 290 -90 q 317 -174 317 -128 q 299 -247 317 -221 q 249 -272 282 -272 z "},"ờ":{"ha":503,"x_min":28,"x_max":511,"o":"m 511 775 q 493 696 513 738 q 428 628 474 654 q 475 354 475 547 q 419 72 475 158 q 247 -14 363 -14 q 119 13 165 -14 q 51 118 74 40 q 28 349 28 196 q 258 708 28 708 q 343 697 310 708 q 380 726 369 706 q 390 781 390 747 q 404 790 390 786 q 438 793 418 793 q 488 788 465 793 q 511 775 511 783 m 251 114 q 279 130 268 114 q 298 198 290 146 q 306 350 306 250 q 301 499 306 451 q 286 564 297 547 q 253 581 275 581 q 212 533 226 581 q 197 350 197 486 q 203 195 197 246 q 221 129 210 144 q 251 114 232 114 m 311 749 q 220 803 297 750 q 118 885 143 857 q 145 962 125 926 q 189 997 165 997 q 269 938 201 997 q 371 833 338 879 q 363 806 369 826 q 342 767 356 786 q 311 749 329 749 z "},"ở":{"ha":503,"x_min":28,"x_max":511,"o":"m 511 775 q 493 696 513 738 q 428 628 474 654 q 475 354 475 547 q 419 72 475 158 q 247 -14 363 -14 q 119 13 165 -14 q 51 118 74 40 q 28 349 28 196 q 258 708 28 708 q 343 697 310 708 q 380 726 369 706 q 390 781 390 747 q 404 790 390 786 q 438 793 418 793 q 488 788 465 793 q 511 775 511 783 m 251 114 q 279 130 268 114 q 298 198 290 146 q 306 350 306 250 q 301 499 306 451 q 286 564 297 547 q 253 581 275 581 q 212 533 226 581 q 197 350 197 486 q 203 195 197 246 q 221 129 210 144 q 251 114 232 114 m 192 735 q 191 741 192 736 q 190 753 190 746 q 194 775 190 768 q 218 803 199 783 q 241 829 233 817 q 249 863 249 842 q 193 921 249 921 q 139 904 161 921 l 139 1001 q 155 1014 139 1007 q 192 1021 171 1021 q 322 981 283 1021 q 361 883 361 942 q 347 824 361 844 q 313 788 332 803 q 289 769 294 774 q 281 752 283 764 q 279 736 279 740 q 225 733 276 733 l 192 735 z "},"ỡ":{"ha":503,"x_min":28,"x_max":511,"o":"m 511 775 q 493 696 513 738 q 428 628 474 654 q 475 354 475 547 q 419 72 475 158 q 247 -14 363 -14 q 119 13 165 -14 q 51 118 74 40 q 28 349 28 196 q 258 708 28 708 q 343 697 310 708 q 380 726 369 706 q 390 781 390 747 q 404 790 390 786 q 438 793 418 793 q 488 788 465 793 q 511 775 511 783 m 251 114 q 279 130 268 114 q 298 198 290 146 q 306 350 306 250 q 301 499 306 451 q 286 564 297 547 q 253 581 275 581 q 212 533 226 581 q 197 350 197 486 q 203 195 197 246 q 221 129 210 144 q 251 114 232 114 m 299 758 q 260 767 274 758 q 235 790 247 775 q 215 810 224 804 q 189 817 206 817 q 138 789 163 817 q 114 772 124 772 q 78 789 94 772 q 53 824 63 806 q 40 849 43 843 q 124 935 75 906 q 215 964 174 964 q 247 956 235 964 q 275 933 260 949 q 301 911 290 918 q 329 904 313 904 q 365 911 353 904 q 389 932 376 918 q 399 942 393 938 q 413 947 406 947 q 436 928 425 947 q 454 888 447 908 q 463 861 461 868 q 436 831 463 858 q 374 781 410 804 q 299 758 338 758 z "},"ő":{"ha":503,"x_min":28,"x_max":478,"o":"m 247 -14 q 119 13 165 -14 q 51 118 74 40 q 28 349 28 196 q 258 708 28 708 q 383 677 336 708 q 452 569 429 646 q 475 354 475 493 q 419 72 475 158 q 247 -14 363 -14 m 251 114 q 279 130 268 114 q 298 198 290 146 q 306 350 306 250 q 301 499 306 451 q 286 564 297 547 q 253 581 275 581 q 212 533 226 581 q 197 350 197 486 q 203 195 197 246 q 221 129 210 144 q 251 114 232 114 m 149 749 q 112 759 131 744 q 81 791 93 774 q 65 814 68 808 q 128 928 83 861 q 186 1000 174 996 q 238 978 210 1006 q 285 911 265 950 q 215 818 271 882 q 149 749 160 754 m 342 749 q 307 759 325 744 q 276 791 289 774 q 261 814 264 808 q 323 928 279 861 q 381 1000 367 996 q 432 977 404 1006 q 478 911 460 949 q 409 817 464 882 q 342 749 354 753 z "},"ō":{"ha":503,"x_min":28,"x_max":475,"o":"m 247 -14 q 119 13 165 -14 q 51 118 74 40 q 28 349 28 196 q 258 708 28 708 q 383 677 336 708 q 452 569 429 646 q 475 354 475 493 q 419 72 475 158 q 247 -14 363 -14 m 251 114 q 279 130 268 114 q 298 198 290 146 q 306 350 306 250 q 301 499 306 451 q 286 564 297 547 q 253 581 275 581 q 212 533 226 581 q 197 350 197 486 q 203 195 197 246 q 221 129 210 144 q 251 114 232 114 m 67 789 q 56 857 56 818 q 72 912 56 890 q 118 933 89 933 l 432 933 q 447 868 447 903 q 431 811 447 833 q 389 789 415 789 l 67 789 z "},"ø":{"ha":553,"x_min":4,"x_max":564,"o":"m 564 664 q 490 510 564 644 q 500 354 500 450 q 444 72 500 158 q 272 -14 388 -14 q 187 -5 222 -14 q 126 28 151 4 q 88 -42 100 -24 q 32 -19 60 -37 q 4 21 4 0 q 69 144 4 36 q 53 349 53 222 q 283 708 53 708 q 372 696 335 708 q 433 654 408 683 q 478 725 461 701 q 505 715 485 724 q 544 694 525 707 q 564 664 564 681 m 278 576 q 237 531 251 576 q 222 350 222 485 l 222 339 l 322 528 q 306 567 317 557 q 278 576 296 576 m 276 114 q 304 130 293 114 q 323 198 315 146 q 331 350 331 250 l 331 356 q 232 171 268 238 q 248 125 238 136 q 276 114 258 114 z "},"õ":{"ha":503,"x_min":28,"x_max":475,"o":"m 247 -14 q 119 13 165 -14 q 51 118 74 40 q 28 349 28 196 q 258 708 28 708 q 383 677 336 708 q 452 569 429 646 q 475 354 475 493 q 419 72 475 158 q 247 -14 363 -14 m 251 114 q 279 130 268 114 q 298 198 290 146 q 306 350 306 250 q 301 499 306 451 q 286 564 297 547 q 253 581 275 581 q 212 533 226 581 q 197 350 197 486 q 203 195 197 246 q 221 129 210 144 q 251 114 232 114 m 299 758 q 260 767 274 758 q 235 790 247 775 q 215 810 224 804 q 189 817 206 817 q 138 789 163 817 q 114 772 124 772 q 78 789 94 772 q 53 824 63 806 q 40 849 43 843 q 124 935 75 906 q 215 964 174 964 q 247 956 235 964 q 275 933 260 949 q 301 911 290 918 q 329 904 313 904 q 365 911 353 904 q 389 932 376 918 q 399 942 393 938 q 413 947 406 947 q 436 928 425 947 q 454 888 447 908 q 463 861 461 868 q 436 831 463 858 q 374 781 410 804 q 299 758 338 758 z "},"œ":{"ha":768,"x_min":28,"x_max":740,"o":"m 554 136 q 640 146 601 136 q 718 175 678 156 q 727 116 724 156 q 731 39 731 76 q 703 15 731 28 q 631 -6 676 3 q 533 -14 585 -14 q 450 -3 486 -14 q 388 33 414 7 q 247 -14 335 -14 q 119 13 165 -14 q 51 118 74 40 q 28 349 28 196 q 86 620 28 533 q 258 707 144 707 q 344 695 308 707 q 406 657 381 683 q 475 697 436 686 q 563 708 514 708 q 740 482 740 708 q 721 285 740 361 q 479 265 642 268 q 488 181 481 208 q 510 145 494 154 q 554 136 525 136 m 251 114 q 279 130 268 114 q 298 198 290 146 q 306 350 306 250 q 301 498 306 451 q 286 560 297 544 q 253 575 275 575 q 212 530 226 575 q 197 350 197 485 q 203 195 197 246 q 221 129 210 144 q 251 114 232 114 m 542 575 q 497 529 511 575 q 479 386 482 483 q 583 399 557 386 q 590 471 590 419 q 580 555 590 535 q 542 575 569 575 z "},"p":{"ha":504,"x_min":46,"x_max":475,"o":"m 121 -274 q 63 -260 79 -274 q 46 -206 46 -246 l 46 654 q 141 694 86 679 q 251 708 196 708 q 418 647 361 708 q 475 426 475 586 q 451 153 475 250 q 388 21 428 56 q 293 -14 349 -14 q 200 13 232 -14 l 200 -261 q 121 -274 167 -274 m 240 122 q 272 142 258 122 q 294 228 285 163 q 303 417 303 293 q 297 517 303 483 q 278 564 290 551 q 243 576 265 576 q 200 560 221 576 l 200 149 q 240 122 219 122 z "},"þ":{"ha":507,"x_min":46,"x_max":475,"o":"m 251 707 q 418 647 361 707 q 475 426 475 586 q 422 81 475 176 q 293 -14 368 -14 q 200 13 232 -14 l 200 -265 q 108 -278 167 -278 q 57 -265 68 -278 q 46 -210 46 -251 l 46 953 q 58 1001 46 988 q 99 1017 71 1014 q 200 1021 128 1021 l 200 704 q 251 707 233 707 m 240 115 q 285 176 268 115 q 303 417 303 238 q 297 522 303 489 q 278 565 290 556 q 240 575 265 575 q 200 554 221 575 l 200 142 q 217 120 207 125 q 240 115 226 115 z "},"q":{"ha":506,"x_min":28,"x_max":463,"o":"m 372 -275 q 306 -269 347 -275 l 306 33 q 201 -14 276 -14 q 75 53 122 -14 q 28 299 28 119 q 317 708 28 708 q 397 699 363 708 q 463 667 431 689 l 463 -207 q 456 -251 463 -237 q 431 -269 449 -265 q 372 -275 413 -274 m 258 119 q 306 169 293 119 l 306 563 q 292 574 299 571 q 275 576 286 576 q 222 517 240 576 q 204 306 204 458 q 217 159 204 199 q 258 119 231 119 z "},"r":{"ha":346,"x_min":46,"x_max":332,"o":"m 46 646 q 239 708 140 708 q 313 692 293 708 q 332 639 332 676 q 317 550 332 593 q 265 561 294 561 q 235 556 251 561 q 204 539 218 550 l 203 28 q 196 8 203 13 q 151 1 189 3 q 46 0 113 0 l 46 646 z "},"ŕ":{"ha":346,"x_min":46,"x_max":332,"o":"m 46 646 q 239 708 140 708 q 313 692 293 708 q 332 639 332 676 q 317 550 332 593 q 265 561 294 561 q 235 556 251 561 q 204 539 218 550 l 203 28 q 196 8 203 13 q 151 1 189 3 q 46 0 113 0 l 46 646 m 122 763 q 91 781 104 763 q 71 820 78 800 q 63 847 64 840 q 124 916 85 878 q 200 983 164 954 q 244 1011 236 1011 q 288 976 268 1011 q 315 897 308 940 q 213 817 292 869 q 122 763 135 764 z "},"ř":{"ha":346,"x_min":11,"x_max":340,"o":"m 46 646 q 239 708 140 708 q 313 692 293 708 q 332 639 332 676 q 317 550 332 593 q 265 561 294 561 q 235 556 251 561 q 204 539 218 550 l 203 28 q 196 8 203 13 q 151 1 189 3 q 46 0 113 0 l 46 646 m 183 753 q 99 809 161 753 q 11 903 38 865 q 44 969 24 939 q 79 1000 64 1000 q 117 977 93 1000 q 163 929 142 954 q 190 896 185 904 q 231 950 211 929 q 264 981 251 971 q 279 992 276 990 q 324 959 307 976 q 340 925 340 942 q 307 867 340 908 q 235 789 274 825 q 183 753 196 753 z "},"ŗ":{"ha":346,"x_min":38,"x_max":332,"o":"m 46 646 q 239 708 140 708 q 313 692 293 708 q 332 639 332 676 q 317 550 332 593 q 265 561 294 561 q 235 556 251 561 q 204 539 218 550 l 203 28 q 196 8 203 13 q 151 1 189 3 q 46 0 113 0 l 46 646 m 97 -386 q 59 -378 74 -386 q 39 -346 44 -369 q 66 -292 61 -310 q 76 -242 71 -275 q 46 -209 54 -229 q 38 -158 38 -189 q 63 -95 38 -121 q 126 -69 89 -69 q 199 -95 174 -69 q 225 -169 225 -121 q 201 -273 225 -224 q 145 -354 176 -322 q 97 -386 114 -386 z "},"s":{"ha":443,"x_min":25,"x_max":425,"o":"m 190 -14 q 26 68 26 -14 q 51 154 26 108 q 174 124 108 124 q 228 140 210 124 q 246 183 246 156 q 214 261 246 225 l 93 389 q 42 464 58 425 q 25 536 25 503 q 79 662 25 615 q 254 708 133 708 q 391 683 357 708 q 425 621 425 657 q 417 583 425 603 q 396 547 410 563 q 275 576 342 576 q 208 533 208 576 q 217 504 208 519 q 250 464 225 489 l 353 360 q 408 276 393 313 q 422 186 422 239 q 360 40 422 93 q 190 -14 297 -14 z "},"ś":{"ha":443,"x_min":25,"x_max":425,"o":"m 190 -14 q 26 68 26 -14 q 51 154 26 108 q 174 124 108 124 q 228 140 210 124 q 246 183 246 156 q 214 261 246 225 l 93 389 q 42 464 58 425 q 25 536 25 503 q 79 662 25 615 q 254 708 133 708 q 391 683 357 708 q 425 621 425 657 q 417 583 425 603 q 396 547 410 563 q 275 576 342 576 q 208 533 208 576 q 217 504 208 519 q 250 464 225 489 l 353 360 q 408 276 393 313 q 422 186 422 239 q 360 40 422 93 q 190 -14 297 -14 m 168 763 q 137 781 150 763 q 117 820 124 800 q 108 847 110 840 q 170 916 131 878 q 246 983 210 954 q 290 1011 282 1011 q 334 976 314 1011 q 361 897 354 940 q 259 817 338 869 q 168 763 181 764 z "},"š":{"ha":443,"x_min":25,"x_max":425,"o":"m 190 -14 q 26 68 26 -14 q 51 154 26 108 q 174 124 108 124 q 228 140 210 124 q 246 183 246 156 q 214 261 246 225 l 93 389 q 42 464 58 425 q 25 536 25 503 q 79 662 25 615 q 254 708 133 708 q 391 683 357 708 q 425 621 425 657 q 417 583 425 603 q 396 547 410 563 q 275 576 342 576 q 208 533 208 576 q 217 504 208 519 q 250 464 225 489 l 353 360 q 408 276 393 313 q 422 186 422 239 q 360 40 422 93 q 190 -14 297 -14 m 229 753 q 145 809 207 753 q 57 903 83 865 q 90 969 69 939 q 125 1000 110 1000 q 163 977 139 1000 q 209 929 188 954 q 236 896 231 904 q 277 950 257 929 q 310 981 297 971 q 325 992 322 990 q 369 959 353 976 q 386 925 386 942 q 353 867 386 908 q 281 789 319 825 q 229 753 242 753 z "},"ş":{"ha":443,"x_min":25,"x_max":425,"o":"m 353 360 q 408 276 393 313 q 422 186 422 239 q 375 54 422 106 q 244 -10 328 3 l 232 -79 l 254 -79 q 304 -104 283 -79 q 325 -178 325 -129 q 291 -269 325 -232 q 200 -307 257 -307 q 160 -302 179 -307 q 131 -292 142 -297 q 117 -286 119 -287 q 126 -249 118 -276 q 139 -215 133 -221 q 156 -217 143 -211 q 178 -228 168 -224 q 203 -233 189 -233 q 242 -189 242 -233 q 233 -156 242 -167 q 206 -144 225 -144 q 163 -148 179 -144 q 143 -153 147 -151 l 167 -14 q 26 68 26 -7 q 51 154 26 108 q 174 124 108 124 q 228 140 210 124 q 246 183 246 156 q 214 261 246 225 l 93 389 q 42 464 58 425 q 25 536 25 503 q 79 662 25 615 q 254 708 133 708 q 391 683 357 708 q 425 621 425 657 q 417 583 425 603 q 396 547 410 563 q 275 576 342 576 q 208 533 208 576 q 217 504 208 519 q 250 464 225 489 l 353 360 z "},"ș":{"ha":443,"x_min":25,"x_max":425,"o":"m 190 -14 q 26 68 26 -14 q 51 154 26 108 q 174 124 108 124 q 228 140 210 124 q 246 183 246 156 q 214 261 246 225 l 93 389 q 42 464 58 425 q 25 536 25 503 q 79 662 25 615 q 254 708 133 708 q 391 683 357 708 q 425 621 425 657 q 417 583 425 603 q 396 547 410 563 q 275 576 342 576 q 208 533 208 576 q 217 504 208 519 q 250 464 225 489 l 353 360 q 408 276 393 313 q 422 186 422 239 q 360 40 422 93 q 190 -14 297 -14 m 186 -386 q 148 -378 163 -386 q 128 -346 133 -369 q 155 -292 150 -310 q 165 -242 160 -275 q 135 -209 143 -229 q 126 -158 126 -189 q 152 -95 126 -121 q 215 -69 178 -69 q 288 -95 263 -69 q 314 -169 314 -121 q 290 -273 314 -224 q 234 -354 265 -322 q 186 -386 203 -386 z "},"ß":{"ha":636,"x_min":36,"x_max":632,"o":"m 121 -14 q 76 -10 94 -14 q 47 -1 57 -6 q 36 6 38 4 q 42 25 38 10 q 51 69 47 40 q 56 135 56 99 l 50 764 q 111 925 50 871 q 281 979 172 979 q 497 923 425 979 q 568 776 568 867 q 551 706 568 732 q 500 653 533 681 q 461 614 474 631 q 449 571 449 597 q 463 528 449 550 q 510 467 478 506 q 599 338 567 397 q 632 196 632 278 q 577 45 632 103 q 426 -12 522 -12 q 301 7 344 -12 q 258 54 258 26 q 268 113 258 90 q 296 156 278 135 q 310 146 299 153 q 342 132 322 139 q 386 125 363 125 q 457 196 457 125 q 435 272 457 235 q 374 361 414 310 q 302 467 326 422 q 278 563 278 511 q 298 640 278 610 q 353 701 318 671 q 390 740 378 724 q 401 776 401 756 q 372 820 401 804 q 289 836 343 836 q 222 801 238 836 q 206 679 206 767 l 211 88 q 194 8 211 31 q 121 -14 176 -14 z "},"ſ":{"ha":243,"x_min":32,"x_max":460,"o":"m 108 -11 q 65 -7 82 -11 q 40 2 47 -3 q 32 8 33 7 q 38 53 33 18 q 43 122 43 89 l 43 817 q 106 975 43 925 q 296 1025 168 1025 q 413 1001 367 1025 q 460 939 460 978 q 449 893 460 918 q 421 847 439 868 q 356 884 383 875 q 292 893 329 893 q 219 859 239 893 q 199 757 199 825 l 199 61 q 180 3 199 17 q 108 -11 161 -11 z "},"t":{"ha":394,"x_min":13,"x_max":367,"o":"m 240 -14 q 150 8 181 -14 q 108 72 119 31 q 97 182 97 114 l 97 564 l 13 564 q 14 653 13 628 q 22 686 15 678 q 44 694 28 694 l 97 694 l 97 896 q 110 931 97 921 q 151 942 122 940 q 251 944 179 944 l 251 694 l 365 694 q 364 605 365 629 q 356 572 363 581 q 335 564 350 564 l 251 564 l 251 185 q 257 134 251 151 q 285 117 263 117 q 357 135 319 117 q 367 61 367 89 q 240 -14 367 -14 z "},"ť":{"ha":464,"x_min":13,"x_max":485,"o":"m 240 -14 q 150 8 181 -14 q 108 72 119 31 q 97 182 97 114 l 97 564 l 13 564 q 14 653 13 628 q 22 686 15 678 q 44 694 28 694 l 97 694 l 97 896 q 110 931 97 921 q 151 942 122 940 q 251 944 179 944 l 251 694 l 365 694 q 364 605 365 629 q 356 572 363 581 q 335 564 350 564 l 251 564 l 251 185 q 257 134 251 151 q 285 117 263 117 q 357 135 319 117 q 367 61 367 89 q 240 -14 367 -14 m 358 731 q 320 739 335 731 q 300 771 306 747 q 327 824 322 807 q 338 876 332 842 q 307 908 315 889 q 299 958 299 928 q 324 1022 299 996 q 388 1049 350 1049 q 460 1022 435 1049 q 485 947 485 996 q 460 844 485 894 q 406 763 436 794 q 358 731 375 731 z "},"ţ":{"ha":394,"x_min":13,"x_max":367,"o":"m 222 -14 l 210 -79 l 232 -79 q 282 -104 261 -79 q 303 -178 303 -129 q 269 -269 303 -232 q 178 -307 235 -307 q 138 -302 157 -307 q 108 -292 119 -297 q 94 -286 97 -287 q 103 -249 96 -276 q 117 -215 111 -221 q 133 -217 121 -211 q 156 -228 146 -224 q 181 -233 167 -233 q 219 -189 219 -233 q 211 -156 219 -167 q 183 -144 203 -144 q 141 -148 157 -144 q 121 -153 125 -151 l 147 3 l 160 3 q 110 65 124 22 q 97 182 97 108 l 97 564 l 13 564 q 14 653 13 628 q 22 686 15 678 q 44 694 28 694 l 97 694 l 97 896 q 110 931 97 921 q 151 942 122 940 q 251 944 179 944 l 251 694 l 365 694 q 364 605 365 629 q 356 572 363 581 q 335 564 350 564 l 251 564 l 251 185 q 257 134 251 151 q 285 117 263 117 q 357 135 319 117 q 367 61 367 89 q 240 -14 367 -14 l 222 -14 z "},"ț":{"ha":394,"x_min":13,"x_max":367,"o":"m 240 -14 q 150 8 181 -14 q 108 72 119 31 q 97 182 97 114 l 97 564 l 13 564 q 14 653 13 628 q 22 686 15 678 q 44 694 28 694 l 97 694 l 97 896 q 110 931 97 921 q 151 942 122 940 q 251 944 179 944 l 251 694 l 365 694 q 364 605 365 629 q 356 572 363 581 q 335 564 350 564 l 251 564 l 251 185 q 257 134 251 151 q 285 117 263 117 q 357 135 319 117 q 367 61 367 89 q 240 -14 367 -14 m 164 -386 q 126 -378 140 -386 q 106 -346 111 -369 q 133 -292 128 -310 q 143 -242 138 -275 q 113 -209 121 -229 q 104 -158 104 -189 q 130 -95 104 -121 q 193 -69 156 -69 q 266 -95 240 -69 q 292 -169 292 -121 q 267 -273 292 -224 q 212 -354 243 -322 q 164 -386 181 -386 z "},"u":{"ha":499,"x_min":40,"x_max":456,"o":"m 250 -14 q 86 38 132 -14 q 40 196 40 90 l 40 667 q 47 687 40 682 q 94 693 54 692 q 200 694 133 694 l 200 186 q 210 134 200 150 q 249 118 219 118 q 301 136 282 118 l 301 667 q 308 687 301 682 q 352 693 314 692 q 456 694 390 694 l 456 39 q 363 1 418 17 q 250 -14 308 -14 z "},"ú":{"ha":499,"x_min":40,"x_max":456,"o":"m 250 -14 q 86 38 132 -14 q 40 196 40 90 l 40 667 q 47 687 40 682 q 94 693 54 692 q 200 694 133 694 l 200 186 q 210 134 200 150 q 249 118 219 118 q 301 136 282 118 l 301 667 q 308 687 301 682 q 352 693 314 692 q 456 694 390 694 l 456 39 q 363 1 418 17 q 250 -14 308 -14 m 196 763 q 165 781 178 763 q 144 820 151 800 q 136 847 138 840 q 198 916 158 878 q 274 983 238 954 q 318 1011 310 1011 q 362 976 342 1011 q 389 897 382 940 q 287 817 365 869 q 196 763 208 764 z "},"û":{"ha":499,"x_min":40,"x_max":456,"o":"m 250 -14 q 86 38 132 -14 q 40 196 40 90 l 40 667 q 47 687 40 682 q 94 693 54 692 q 200 694 133 694 l 200 186 q 210 134 200 150 q 249 118 219 118 q 301 136 282 118 l 301 667 q 308 687 301 682 q 352 693 314 692 q 456 694 390 694 l 456 39 q 363 1 418 17 q 250 -14 308 -14 m 328 764 q 311 780 324 767 q 283 815 299 793 q 254 860 267 836 q 235 830 250 853 q 201 786 221 807 q 167 765 182 765 q 63 806 94 765 l 225 992 q 256 996 239 996 q 299 976 281 996 q 341 931 308 967 q 404 857 374 896 q 435 801 435 818 q 328 764 435 764 z "},"ü":{"ha":499,"x_min":40,"x_max":456,"o":"m 250 -14 q 86 38 132 -14 q 40 196 40 90 l 40 667 q 47 687 40 682 q 94 693 54 692 q 200 694 133 694 l 200 186 q 210 134 200 150 q 249 118 219 118 q 301 136 282 118 l 301 667 q 308 687 301 682 q 352 693 314 692 q 456 694 390 694 l 456 39 q 363 1 418 17 q 250 -14 308 -14 m 154 764 q 101 788 119 764 q 83 869 83 811 q 103 944 83 917 q 164 972 124 972 q 219 951 204 972 q 235 876 235 931 q 214 793 235 822 q 154 764 193 764 m 335 764 q 281 788 299 764 q 263 869 263 811 q 283 944 263 917 q 344 972 304 972 q 398 951 383 972 q 413 876 413 931 q 392 793 413 822 q 335 764 372 764 z "},"ụ":{"ha":499,"x_min":40,"x_max":456,"o":"m 250 -14 q 86 38 132 -14 q 40 196 40 90 l 40 667 q 47 687 40 682 q 94 693 54 692 q 200 694 133 694 l 200 186 q 210 134 200 150 q 249 118 219 118 q 301 136 282 118 l 301 667 q 308 687 301 682 q 352 693 314 692 q 456 694 390 694 l 456 39 q 363 1 418 17 q 250 -14 308 -14 m 246 -272 q 200 -251 215 -272 q 185 -179 185 -231 q 202 -114 185 -137 q 254 -90 219 -90 q 301 -109 288 -90 q 314 -174 314 -128 q 297 -247 314 -221 q 246 -272 279 -272 z "},"ù":{"ha":499,"x_min":40,"x_max":456,"o":"m 250 -14 q 86 38 132 -14 q 40 196 40 90 l 40 667 q 47 687 40 682 q 94 693 54 692 q 200 694 133 694 l 200 186 q 210 134 200 150 q 249 118 219 118 q 301 136 282 118 l 301 667 q 308 687 301 682 q 352 693 314 692 q 456 694 390 694 l 456 39 q 363 1 418 17 q 250 -14 308 -14 m 329 749 q 238 803 315 750 q 136 885 161 857 q 163 962 143 926 q 207 997 183 997 q 288 938 219 997 q 389 833 356 879 q 381 806 388 826 q 360 767 374 786 q 329 749 347 749 z "},"ủ":{"ha":499,"x_min":40,"x_max":456,"o":"m 250 -14 q 86 38 132 -14 q 40 196 40 90 l 40 667 q 47 687 40 682 q 94 693 54 692 q 200 694 133 694 l 200 186 q 210 134 200 150 q 249 118 219 118 q 301 136 282 118 l 301 667 q 308 687 301 682 q 352 693 314 692 q 456 694 390 694 l 456 39 q 363 1 418 17 q 250 -14 308 -14 m 189 735 q 188 741 189 736 q 188 753 188 746 q 192 775 188 768 q 215 803 196 783 q 238 829 231 817 q 246 863 246 842 q 190 921 246 921 q 136 904 158 921 l 136 1001 q 152 1014 136 1007 q 189 1021 168 1021 q 319 981 281 1021 q 358 883 358 942 q 344 824 358 844 q 310 788 329 803 q 286 769 292 774 q 278 752 281 764 q 276 736 276 740 q 222 733 274 733 l 189 735 z "},"ư":{"ha":499,"x_min":40,"x_max":572,"o":"m 569 775 q 545 685 572 732 q 456 613 518 638 l 456 39 q 363 1 418 17 q 250 -14 308 -14 q 86 38 132 -14 q 40 196 40 90 l 40 667 q 47 687 40 682 q 94 693 54 692 q 200 694 133 694 l 200 186 q 210 134 200 150 q 249 118 219 118 q 301 136 282 118 l 301 667 q 306 685 301 681 q 327 692 310 690 q 393 694 344 693 q 437 724 425 703 q 449 781 449 744 q 463 790 449 786 q 496 793 476 793 q 547 788 524 793 q 569 775 569 783 z "},"ứ":{"ha":499,"x_min":40,"x_max":569,"o":"m 569 775 q 545 685 572 732 q 456 613 518 638 l 456 39 q 363 1 418 17 q 250 -14 308 -14 q 86 38 132 -14 q 40 196 40 90 l 40 667 q 47 687 40 682 q 94 693 54 692 q 200 694 133 694 l 200 186 q 210 134 200 150 q 249 118 219 118 q 301 136 282 118 l 301 667 q 306 685 301 681 q 327 692 310 690 q 393 694 344 693 q 437 724 425 703 q 449 781 449 744 q 463 790 449 786 q 496 793 476 793 q 547 788 524 793 q 569 775 569 783 m 196 763 q 165 781 178 763 q 144 820 151 800 q 136 847 138 840 q 198 916 158 878 q 274 983 238 954 q 318 1011 310 1011 q 362 976 342 1011 q 389 897 382 940 q 287 817 365 869 q 196 763 208 764 z "},"ự":{"ha":499,"x_min":40,"x_max":569,"o":"m 569 775 q 545 685 572 732 q 456 613 518 638 l 456 39 q 363 1 418 17 q 250 -14 308 -14 q 86 38 132 -14 q 40 196 40 90 l 40 667 q 47 687 40 682 q 94 693 54 692 q 200 694 133 694 l 200 186 q 210 134 200 150 q 249 118 219 118 q 301 136 282 118 l 301 667 q 306 685 301 681 q 327 692 310 690 q 393 694 344 693 q 437 724 425 703 q 449 781 449 744 q 463 790 449 786 q 496 793 476 793 q 547 788 524 793 q 569 775 569 783 m 246 -272 q 200 -251 215 -272 q 185 -179 185 -231 q 202 -114 185 -137 q 254 -90 219 -90 q 301 -109 288 -90 q 314 -174 314 -128 q 297 -247 314 -221 q 246 -272 279 -272 z "},"ừ":{"ha":499,"x_min":40,"x_max":569,"o":"m 569 775 q 545 685 572 732 q 456 613 518 638 l 456 39 q 363 1 418 17 q 250 -14 308 -14 q 86 38 132 -14 q 40 196 40 90 l 40 667 q 47 687 40 682 q 94 693 54 692 q 200 694 133 694 l 200 186 q 210 134 200 150 q 249 118 219 118 q 301 136 282 118 l 301 667 q 306 685 301 681 q 327 692 310 690 q 393 694 344 693 q 437 724 425 703 q 449 781 449 744 q 463 790 449 786 q 496 793 476 793 q 547 788 524 793 q 569 775 569 783 m 308 749 q 217 803 294 750 q 115 885 140 857 q 142 962 122 926 q 186 997 163 997 q 267 938 199 997 q 368 833 335 879 q 360 806 367 826 q 340 767 353 786 q 308 749 326 749 z "},"ử":{"ha":499,"x_min":40,"x_max":569,"o":"m 569 775 q 545 685 572 732 q 456 613 518 638 l 456 39 q 363 1 418 17 q 250 -14 308 -14 q 86 38 132 -14 q 40 196 40 90 l 40 667 q 47 687 40 682 q 94 693 54 692 q 200 694 133 694 l 200 186 q 210 134 200 150 q 249 118 219 118 q 301 136 282 118 l 301 667 q 306 685 301 681 q 327 692 310 690 q 393 694 344 693 q 437 724 425 703 q 449 781 449 744 q 463 790 449 786 q 496 793 476 793 q 547 788 524 793 q 569 775 569 783 m 189 735 q 188 741 189 736 q 188 753 188 746 q 192 775 188 768 q 215 803 196 783 q 238 829 231 817 q 246 863 246 842 q 190 921 246 921 q 136 904 158 921 l 136 1001 q 152 1014 136 1007 q 189 1021 168 1021 q 319 981 281 1021 q 358 883 358 942 q 344 824 358 844 q 310 788 329 803 q 286 769 292 774 q 278 752 281 764 q 276 736 276 740 q 222 733 274 733 l 189 735 z "},"ữ":{"ha":499,"x_min":38,"x_max":569,"o":"m 569 775 q 545 685 572 732 q 456 613 518 638 l 456 39 q 363 1 418 17 q 250 -14 308 -14 q 86 38 132 -14 q 40 196 40 90 l 40 667 q 47 687 40 682 q 94 693 54 692 q 200 694 133 694 l 200 186 q 210 134 200 150 q 249 118 219 118 q 301 136 282 118 l 301 667 q 306 685 301 681 q 327 692 310 690 q 393 694 344 693 q 437 724 425 703 q 449 781 449 744 q 463 790 449 786 q 496 793 476 793 q 547 788 524 793 q 569 775 569 783 m 296 758 q 258 767 271 758 q 232 790 244 775 q 212 810 221 804 q 186 817 203 817 q 135 789 160 817 q 111 772 121 772 q 76 789 92 772 q 50 824 60 806 q 38 849 40 843 q 122 935 72 906 q 213 964 171 964 q 244 956 232 964 q 272 933 257 949 q 299 911 288 918 q 326 904 310 904 q 362 911 350 904 q 386 932 374 918 q 397 942 390 938 q 410 947 403 947 q 433 928 422 947 q 451 888 444 908 q 460 861 458 868 q 433 831 460 858 q 371 781 407 804 q 296 758 335 758 z "},"ű":{"ha":499,"x_min":40,"x_max":475,"o":"m 250 -14 q 86 38 132 -14 q 40 196 40 90 l 40 667 q 47 687 40 682 q 94 693 54 692 q 200 694 133 694 l 200 186 q 210 134 200 150 q 249 118 219 118 q 301 136 282 118 l 301 667 q 308 687 301 682 q 352 693 314 692 q 456 694 390 694 l 456 39 q 363 1 418 17 q 250 -14 308 -14 m 146 749 q 109 759 128 744 q 78 791 90 774 q 63 814 65 808 q 126 928 81 861 q 183 1000 171 996 q 235 978 207 1006 q 282 911 263 950 q 213 818 268 882 q 146 749 157 754 m 339 749 q 304 759 322 744 q 274 791 286 774 q 258 814 261 808 q 320 928 276 861 q 378 1000 364 996 q 429 977 401 1006 q 475 911 457 949 q 406 817 461 882 q 339 749 351 753 z "},"ū":{"ha":499,"x_min":40,"x_max":456,"o":"m 250 -14 q 86 38 132 -14 q 40 196 40 90 l 40 667 q 47 687 40 682 q 94 693 54 692 q 200 694 133 694 l 200 186 q 210 134 200 150 q 249 118 219 118 q 301 136 282 118 l 301 667 q 308 687 301 682 q 352 693 314 692 q 456 694 390 694 l 456 39 q 363 1 418 17 q 250 -14 308 -14 m 64 789 q 53 857 53 818 q 69 912 53 890 q 115 933 86 933 l 429 933 q 444 868 444 903 q 428 811 444 833 q 386 789 413 789 l 64 789 z "},"ų":{"ha":499,"x_min":40,"x_max":456,"o":"m 350 -271 q 226 -147 226 -271 q 241 -75 226 -110 q 279 -12 256 -40 q 250 -14 269 -14 q 86 38 132 -14 q 40 196 40 90 l 40 667 q 47 687 40 682 q 94 693 54 692 q 200 694 133 694 l 200 186 q 210 134 200 150 q 247 118 219 118 q 301 136 282 118 l 301 667 q 308 687 301 682 q 352 693 314 692 q 456 694 390 694 l 456 39 q 391 -39 419 7 q 363 -125 363 -85 q 371 -155 363 -146 q 399 -164 379 -164 q 433 -154 419 -164 q 449 -214 449 -183 q 442 -240 449 -229 q 350 -271 422 -271 z "},"ů":{"ha":499,"x_min":40,"x_max":456,"o":"m 250 -14 q 86 38 132 -14 q 40 196 40 90 l 40 667 q 47 687 40 682 q 94 693 54 692 q 200 694 133 694 l 200 186 q 210 134 200 150 q 249 118 219 118 q 301 136 282 118 l 301 667 q 308 687 301 682 q 352 693 314 692 q 456 694 390 694 l 456 39 q 363 1 418 17 q 250 -14 308 -14 m 246 735 q 138 766 172 735 q 104 879 104 797 q 254 1025 104 1025 q 362 994 329 1025 q 394 882 394 963 q 246 735 394 735 m 249 835 q 290 881 290 835 q 254 925 290 925 q 210 879 210 925 q 249 835 210 835 z "},"ũ":{"ha":499,"x_min":38,"x_max":460,"o":"m 250 -14 q 86 38 132 -14 q 40 196 40 90 l 40 667 q 47 687 40 682 q 94 693 54 692 q 200 694 133 694 l 200 186 q 210 134 200 150 q 249 118 219 118 q 301 136 282 118 l 301 667 q 308 687 301 682 q 352 693 314 692 q 456 694 390 694 l 456 39 q 363 1 418 17 q 250 -14 308 -14 m 296 758 q 258 767 271 758 q 232 790 244 775 q 212 810 221 804 q 186 817 203 817 q 135 789 160 817 q 111 772 121 772 q 76 789 92 772 q 50 824 60 806 q 38 849 40 843 q 122 935 72 906 q 213 964 171 964 q 244 956 232 964 q 272 933 257 949 q 299 911 288 918 q 326 904 310 904 q 362 911 350 904 q 386 932 374 918 q 397 942 390 938 q 410 947 403 947 q 433 928 422 947 q 451 888 444 908 q 460 861 458 868 q 433 831 460 858 q 371 781 407 804 q 296 758 335 758 z "},"v":{"ha":458,"x_min":11,"x_max":449,"o":"m 197 -7 q 133 63 149 -7 l 14 649 q 11 669 11 665 q 24 687 11 682 q 78 693 36 692 q 182 694 119 694 l 208 493 q 226 307 218 418 q 236 161 235 196 l 239 161 q 249 308 240 196 q 267 494 257 419 l 286 664 q 297 686 289 681 q 333 693 304 692 q 449 694 361 694 l 310 0 q 197 -7 269 -7 z "},"w":{"ha":731,"x_min":6,"x_max":724,"o":"m 575 664 q 585 686 578 681 q 619 693 593 692 q 724 694 646 694 q 647 293 704 586 q 585 0 590 0 q 554 -4 579 -1 q 485 -7 529 -7 q 434 10 457 -7 q 406 63 411 26 l 392 154 q 374 379 378 250 q 351 154 363 221 l 326 0 q 271 -4 314 -1 q 193 -7 228 -7 q 131 61 146 -7 q 65 379 107 164 q 8 665 22 594 q 15 686 6 681 q 56 693 25 692 q 179 694 88 694 l 207 499 q 226 308 218 414 q 236 168 235 201 l 247 168 l 250 207 q 263 371 253 299 l 301 650 q 313 676 304 671 q 350 681 321 681 l 453 681 l 500 371 q 510 263 506 333 q 517 168 515 192 l 528 168 q 554 499 536 363 l 575 664 z "},"ẃ":{"ha":731,"x_min":8,"x_max":724,"o":"m 575 664 q 585 686 578 681 q 619 693 593 692 q 724 694 646 694 q 647 293 704 586 q 585 0 590 0 q 554 -4 579 -1 q 485 -7 529 -7 q 434 10 457 -7 q 406 63 411 26 l 392 154 q 374 379 378 250 q 351 154 363 221 l 326 0 q 271 -4 314 -1 q 193 -7 228 -7 q 131 61 146 -7 q 65 379 107 164 q 8 665 22 594 q 15 686 6 681 q 56 693 25 692 q 179 694 88 694 l 207 499 q 226 308 218 414 q 236 168 235 201 l 247 168 l 250 207 q 263 371 253 299 l 301 650 q 313 676 304 671 q 350 681 321 681 l 453 681 l 500 371 q 510 263 506 333 q 517 168 515 192 l 528 168 q 554 499 536 363 l 575 664 m 313 763 q 281 781 294 763 q 261 820 268 800 q 253 847 254 840 q 315 916 275 878 q 390 983 354 954 q 435 1011 426 1011 q 478 976 458 1011 q 506 897 499 940 q 403 817 482 869 q 313 763 325 764 z "},"ŵ":{"ha":731,"x_min":8,"x_max":724,"o":"m 575 664 q 585 686 578 681 q 619 693 593 692 q 724 694 646 694 q 647 293 704 586 q 585 0 590 0 q 554 -4 579 -1 q 485 -7 529 -7 q 434 10 457 -7 q 406 63 411 26 l 392 154 q 374 379 378 250 q 351 154 363 221 l 326 0 q 271 -4 314 -1 q 193 -7 228 -7 q 131 61 146 -7 q 65 379 107 164 q 8 665 22 594 q 15 686 6 681 q 56 693 25 692 q 179 694 88 694 l 207 499 q 226 308 218 414 q 236 168 235 201 l 247 168 l 250 207 q 263 371 253 299 l 301 650 q 313 676 304 671 q 350 681 321 681 l 453 681 l 500 371 q 510 263 506 333 q 517 168 515 192 l 528 168 q 554 499 536 363 l 575 664 m 444 764 q 428 780 440 767 q 399 815 415 793 q 371 860 383 836 q 352 830 367 853 q 318 786 338 807 q 283 765 299 765 q 179 806 211 765 l 342 992 q 372 996 356 996 q 415 976 397 996 q 458 931 425 967 q 521 857 490 896 q 551 801 551 818 q 444 764 551 764 z "},"ẅ":{"ha":731,"x_min":8,"x_max":724,"o":"m 575 664 q 585 686 578 681 q 619 693 593 692 q 724 694 646 694 q 647 293 704 586 q 585 0 590 0 q 554 -4 579 -1 q 485 -7 529 -7 q 434 10 457 -7 q 406 63 411 26 l 392 154 q 374 379 378 250 q 351 154 363 221 l 326 0 q 271 -4 314 -1 q 193 -7 228 -7 q 131 61 146 -7 q 65 379 107 164 q 8 665 22 594 q 15 686 6 681 q 56 693 25 692 q 179 694 88 694 l 207 499 q 226 308 218 414 q 236 168 235 201 l 247 168 l 250 207 q 263 371 253 299 l 301 650 q 313 676 304 671 q 350 681 321 681 l 453 681 l 500 371 q 510 263 506 333 q 517 168 515 192 l 528 168 q 554 499 536 363 l 575 664 m 271 764 q 218 788 236 764 q 200 869 200 811 q 220 944 200 917 q 281 972 240 972 q 336 951 321 972 q 351 876 351 931 q 331 793 351 822 q 271 764 310 764 m 451 764 q 397 788 415 764 q 379 869 379 811 q 400 944 379 917 q 461 972 421 972 q 515 951 500 972 q 529 876 529 931 q 509 793 529 822 q 451 764 489 764 z "}}}
